<?xml version="1.0" encoding="utf-8"?>
<!-- Generator: Adobe Illustrator 25.2.0, SVG Export Plug-In . SVG Version: 6.00 Build 0)  -->
<svg version="1.1" id="Logo" xmlns="http://www.w3.org/2000/svg" xmlns:xlink="http://www.w3.org/1999/xlink" x="0px" y="0px"
	 viewBox="0 0 20 20" style="enable-background:new 0 0 20 20;" xml:space="preserve">
<style type="text/css">
	.st0{fill:#071A52;}
</style>
<path id="Logo_1_" class="st0" d="M20,12.9V8.3c0-0.1,0-0.2,0-0.3c0-0.2-0.1-0.4-0.2-0.6c-0.6-1.3-2-1.8-2.4-1.9
	c-0.2,0-0.9-0.2-1.9-0.1c-0.5,0.1-0.9,0.3-1,0.3c-0.4,0.2-0.8,0.4-1.2,0.9c-0.4,0.5-0.4,1-0.5,1.3c0,0,0,0,0,0c0,0.1-0.1,0.1-0.1,0
	c-0.1-0.1-0.2-0.2-0.3-0.4c-0.2-0.2-0.7-0.9-1.5-1.2c-0.8-0.4-2-0.6-3.2,0C6.6,6.8,6.1,7.7,5.9,8.1c0,0-0.1,0.1-0.1,0
	C5.8,8,5.8,8,5.7,8c-1.3-1-3.3-0.4-3.4-0.3C1.9,7.8,1.2,8.1,0.6,8.8C0.2,9.5,0.1,10.1,0,10.2c-0.1,0.9,0.2,1.6,0.3,1.8
	c0.6,1.2,1.9,1.7,2.4,1.8c0.1,0,0.2,0,0.3,0h0.3h15.9C19.6,13.8,20,13.4,20,12.9z"/>
<g>
</g>
<g>
</g>
<g>
</g>
<g>
</g>
<g>
</g>
<g>
</g>
<g>
</g>
<g>
</g>
<g>
</g>
<g>
</g>
<g>
</g>
<g>
</g>
<g>
</g>
<g>
</g>
<g>
</g>
</svg>
