<?xml version="1.0" encoding="utf-8"?>
<!-- Generator: Adobe Illustrator 25.2.0, SVG Export Plug-In . SVG Version: 6.00 Build 0)  -->
<svg version="1.1" id="Flat" xmlns="http://www.w3.org/2000/svg" xmlns:xlink="http://www.w3.org/1999/xlink" x="0px" y="0px"
	 viewBox="0 0 20 20" style="enable-background:new 0 0 20 20;" xml:space="preserve">
<style type="text/css">
	.st0{fill:#009432;}
	.st1{fill:#EA2027;}
</style>
<g id="XMLID_1_">
	<g>
		<path class="st0" d="M17.4,14.5l-1.8-2.1c-0.3-0.4-0.3-0.9,0-1.3c0.3-0.4,0.8-0.4,1.1,0l3.1,3.6c0,0,0,0,0,0c0,0,0,0,0,0.1
			c0,0,0,0,0,0s0,0,0,0c0,0,0,0,0,0c0,0,0,0,0,0c0,0,0,0,0,0c0,0,0,0,0,0c0,0,0,0,0,0c0,0,0,0,0,0c0,0,0,0,0,0c0,0,0,0,0,0
			c0,0,0,0,0,0.1c0,0,0,0,0,0c0,0.1,0,0.1,0,0.2c0,0,0,0,0,0c0,0,0,0,0,0.1c0,0,0,0,0,0c0,0,0,0,0,0.1c0,0,0,0,0,0c0,0,0,0,0,0
			c0,0,0,0,0,0c0,0,0,0,0,0s0,0,0,0c0,0,0,0,0,0.1c0,0,0,0,0,0s0,0,0,0c0,0,0,0,0,0c0,0,0,0,0,0l-3.1,3.6c-0.3,0.4-0.8,0.4-1.1,0
			c-0.3-0.4-0.3-0.9,0-1.3l1.8-2.1H0.8c-0.4,0-0.8-0.4-0.8-0.9s0.3-0.9,0.8-0.9H17.4z"/>
		<path class="st1" d="M4.4,7.5c0.3,0.3,0.3,0.9,0,1.3c-0.3,0.4-0.8,0.4-1.1,0L0.2,5.2c0,0,0,0,0,0c0,0,0,0,0-0.1c0,0,0,0,0,0
			c0,0,0,0,0,0c0,0,0,0,0-0.1c0,0,0,0,0,0c0,0,0,0,0,0c0,0,0,0,0,0c0,0,0,0,0,0c0,0,0,0,0,0c0,0,0,0,0,0c0,0,0,0,0,0c0,0,0,0,0,0
			c0,0,0,0,0,0c0-0.1,0-0.1,0-0.2c0,0,0,0,0,0c0,0,0,0,0-0.1c0,0,0,0,0,0c0,0,0,0,0,0c0,0,0,0,0,0c0,0,0,0,0,0c0,0,0,0,0,0
			c0,0,0,0,0,0c0,0,0,0,0,0c0,0,0,0,0,0c0,0,0,0,0,0c0,0,0,0,0,0c0,0,0,0,0-0.1c0,0,0,0,0,0l3.1-3.6c0.3-0.3,0.8-0.3,1.1,0
			c0.3,0.4,0.3,0.9,0,1.3L2.6,3.6h16.6C19.7,3.6,20,4,20,4.5s-0.3,0.9-0.8,0.9H2.6L4.4,7.5z"/>
	</g>
	<g>
	</g>
</g>
</svg>
