<?xml version="1.0" encoding="utf-8"?>
<!-- Generator: Adobe Illustrator 25.2.0, SVG Export Plug-In . SVG Version: 6.00 Build 0)  -->
<svg version="1.1" id="Capa_1" xmlns="http://www.w3.org/2000/svg" xmlns:xlink="http://www.w3.org/1999/xlink" x="0px" y="0px"
	 viewBox="0 0 100 100" style="enable-background:new 0 0 100 100;" xml:space="preserve">
<style type="text/css">
	.st0{fill:#BABABA;}
</style>
<g>
	<g id="XMLID_1_">
		<g>
			<path class="st0" d="M89.3,20.7c1.3-1.4,1.3-3.7,0-5.4c-1.3-1.3-3.7-1.3-5.4,0c-1.3,1.4-1.3,3.7,0,5.4C85.2,22,87.6,22,89.3,20.7
				z M82.6,4.9L94,16.3c0.3,0.3,0.7,1,0.7,1.7s0,1.3-0.7,2L20.1,93.9c-1,1-2.7,1-3.7,0L6,83.5c-1-1-1-2.7,0-3.7l5.7-5.7l3.4,3.4
				c0.3,0.3,1,0.7,1.7,0.7s1.3-0.3,1.7-0.7c1-1,1-2.7,0-3.7L15,70.4l9.7-9.7l3.4,3.4c0.3,0.3,1,0.7,1.7,0.7s1.3-0.3,1.7-0.7
				c1-1,1-2.7,0-3.7L28.1,57l9.7-9.7l3.4,3.4c0.3,0.3,1,0.7,1.7,0.7c0.7,0,1.3-0.3,1.7-0.7c1-1,1-2.7,0-3.7l-3.4-3.4l9.7-9.7
				l3.4,3.3c0.3,0.3,1,0.7,1.7,0.7c0.7,0,1.3-0.3,1.7-0.7c1-1,1-2.7,0-3.7l-3.4-3.4l9.7-9.7l3.3,3.4c0.3,0.3,1,0.7,1.7,0.7
				c0.7,0,1.3-0.3,1.7-0.7c1-1,1-2.7,0-3.7l-3.4-3.4L79.2,4.9c0.3-0.3,1-0.7,1.7-0.7C81.5,4.2,82.2,4.6,82.6,4.9z"/>
			<path d="M97.7,12.6C99,14,100,16,100,18c0,2-1,4-2.3,5.4L23.4,97.6c-1.4,1.7-3.4,2.3-5.4,2.3c-2,0-4-1-5.4-2.3L2.3,87.2
				c-3-3-3-7.7,0-10.8L76.5,2.2c3-3,7.7-2.7,10.8,0L97.7,12.6z M94,20c0.7-0.7,0.7-1.4,0.7-2s-0.3-1.3-0.7-1.7L82.6,4.9
				c-0.3-0.3-1-0.7-1.7-0.7c-0.7,0-1.3,0.3-1.7,0.7L67.4,16.7l3.4,3.4c1,1,1,2.7,0,3.7c-0.3,0.3-1,0.7-1.7,0.7
				c-0.7,0-1.3-0.3-1.7-0.7l-3.3-3.4l-9.7,9.7l3.4,3.4c1,1,1,2.7,0,3.7c-0.3,0.3-1,0.7-1.7,0.7c-0.7,0-1.4-0.3-1.7-0.7L51,33.8
				l-9.7,9.7l3.4,3.4c1,1,1,2.7,0,3.7c-0.3,0.3-1,0.7-1.7,0.7c-0.7,0-1.3-0.3-1.7-0.7l-3.4-3.4L28.1,57l3.4,3.4c1,1,1,2.7,0,3.7
				c-0.3,0.3-1,0.7-1.7,0.7s-1.3-0.3-1.7-0.7l-3.4-3.4L15,70.4l3.4,3.4c1,1,1,2.7,0,3.7c-0.3,0.3-1,0.7-1.7,0.7s-1.3-0.3-1.7-0.7
				l-3.4-3.4L6,79.8c-1,1-1,2.7,0,3.7l10.4,10.4c1,1,2.7,1,3.7,0L94,20z"/>
			<path d="M89.3,15.3c1.3,1.7,1.3,4,0,5.4c-1.7,1.3-4,1.3-5.4,0c-1.3-1.7-1.3-4,0-5.4C85.6,14,87.9,14,89.3,15.3z"/>
		</g>
		<g>
		</g>
	</g>
</g>
</svg>
