<?xml version="1.0" encoding="utf-8"?>
<!-- Generator: Adobe Illustrator 25.2.0, SVG Export Plug-In . SVG Version: 6.00 Build 0)  -->
<svg version="1.1" id="Layer_1" xmlns="http://www.w3.org/2000/svg" xmlns:xlink="http://www.w3.org/1999/xlink" x="0px" y="0px"
	 viewBox="0 0 20 20" style="enable-background:new 0 0 20 20;" xml:space="preserve">
<style type="text/css">
	.st0{fill:#1E90FF;}
	.st1{fill:#CED6E0;}
</style>
<g id="XMLID_1_">
	<g>
		<rect x="3.8" y="4.1" class="st0" width="12.5" height="11.7"/>
		<path class="st1" d="M11.2,17.2h8.1c-0.1,0.4-0.5,0.8-0.9,0.8h-7.2V17.2z"/>
		<path class="st1" d="M8.8,18H1.6c-0.4,0-0.7-0.3-0.9-0.8h8.1V18z"/>
		<path class="st1" d="M3.1,3.2v13.2H2.5V2.7c0-0.2,0.1-0.4,0.3-0.3h0h14.4c0.2,0,0.3,0.1,0.3,0.3v0v13.7h-0.6V3.2H3.1z"/>
		<rect x="3.1" y="16.4" width="13.7" height="0.2"/>
		<path d="M3.1,3.2h13.7v13.2H3.1V3.2z M16.2,4.1H3.8v11.7h12.5V4.1z"/>
		<path d="M18.4,18c0.4,0,0.7-0.3,0.9-0.8h-8.1V18H18.4z M8.8,17.2H0.7c0.1,0.4,0.5,0.8,0.9,0.8h7.2V17.2z M3.1,16.6h13.7v-0.2h0.6
			V2.7v0c0-0.2-0.1-0.4-0.3-0.3H2.8h0c-0.2,0-0.3,0.2-0.3,0.3v13.7h0.6V16.6z M18.4,18.7H1.6c-0.9,0-1.6-0.9-1.6-2v-0.3h1.9V2.7v0
			c0-0.6,0.4-1.1,0.9-1.1h14.4h0c0.5,0,0.9,0.5,0.9,1.1v13.7H20v0.3C20,17.8,19.3,18.7,18.4,18.7z"/>
	</g>
	<g>
	</g>
</g>
</svg>
