<?xml version="1.0" encoding="utf-8"?>
<!-- Generator: Adobe Illustrator 25.2.0, SVG Export Plug-In . SVG Version: 6.00 Build 0)  -->
<svg version="1.1" id="Layer_1" xmlns="http://www.w3.org/2000/svg" xmlns:xlink="http://www.w3.org/1999/xlink" x="0px" y="0px"
	 viewBox="0 0 120 120" style="enable-background:new 0 0 120 120;" xml:space="preserve">
<style type="text/css">
	.st0{fill:#FABB53;stroke:#000000;stroke-width:3.5;stroke-miterlimit:10;}
	.st1{fill:#F7972E;stroke:#000000;stroke-width:3.5;stroke-miterlimit:10;}
	.st2{fill:#FAB353;stroke:#000000;stroke-width:3.5;stroke-miterlimit:10;}
	.st3{fill:#FACE53;stroke:#000000;stroke-width:3.5;stroke-miterlimit:10;}
	.st4{fill:#4C5665;stroke:#000000;stroke-width:3.5;stroke-miterlimit:10;}
	.st5{fill:#616C7F;stroke:#000000;stroke-width:3.5;stroke-miterlimit:10;}
	.st6{fill:#3F4856;stroke:#000000;stroke-width:3.5;stroke-miterlimit:10;}
</style>
<g id="Winner-2">
	<path class="st0" d="M38.5,62.5c-23.7,0-33.3-24-35.1-37.2c-0.4-2.6,1.5-5,4.1-5.3c0.2,0,0.4,0,0.7,0h23.6c2.6,0,4.7,2.1,4.7,4.7
		s-2.1,4.7-4.7,4.7H13.9c2.4,8.8,9.3,25.1,26.8,23.6c2.6-0.2,4.9,1.8,5.1,4.3s-1.7,4.8-4.3,5C40.5,62.5,39.4,62.5,38.5,62.5z"/>
	<path class="st1" d="M24.6,5.7h70.8c2.6,0,4.7,2.1,4.7,4.7l0,0c0,2.6-2.1,4.7-4.7,4.7H24.6c-2.6,0-4.7-2.1-4.7-4.7l0,0
		C19.9,7.8,22,5.7,24.6,5.7z"/>
	<path class="st2" d="M24.6,5.7h70.8c2.6,0,4.7,2.1,4.7,4.7l0,0c0,2.6-2.1,4.7-4.7,4.7H24.6c-2.6,0-4.7-2.1-4.7-4.7l0,0
		C19.9,7.8,22,5.7,24.6,5.7z"/>
	<path class="st3" d="M81.6,62.5c-1,0-2,0-3-0.1c-2.6-0.2-4.5-2.5-4.3-5.1c0.2-2.6,2.5-4.5,5.1-4.3h0.1
		c17.8,1.5,24.5-14.8,26.8-23.6H88.4c-2.6,0-4.7-2.1-4.7-4.7s2.1-4.7,4.7-4.7H112c2.6,0,4.7,2.1,4.7,4.7c0,0.2,0,0.4,0,0.7
		C114.9,38.5,105.3,62.5,81.6,62.5z"/>
	<path class="st0" d="M81.6,62.5c-1,0-2,0-3-0.1c-2.6-0.2-4.5-2.5-4.3-5.1c0.2-2.6,2.5-4.5,5.1-4.3h0.1
		c17.8,1.5,24.5-14.8,26.8-23.6H88.4c-2.6,0-4.7-2.1-4.7-4.7s2.1-4.7,4.7-4.7H112c2.6,0,4.7,2.1,4.7,4.7c0,0.2,0,0.4,0,0.7
		C114.9,38.5,105.3,62.5,81.6,62.5z"/>
	<polygon class="st0" points="69.5,83.6 50.6,83.6 52.9,71.8 67.1,71.8 	"/>
	<path class="st4" d="M83.6,107.2H36.4V86c0-1.3,1.1-2.4,2.5-2.4h42.2c1.3,0,2.5,1,2.5,2.4L83.6,107.2L83.6,107.2z"/>
	<rect x="45.9" y="90.7" class="st5" width="28.3" height="11.8"/>
	<path class="st3" d="M27,15.1h66.1l0,0v26c0,18.2-14.8,33.1-33.1,33.1l0,0C41.8,74.2,27,59.3,27,41.1V15.1L27,15.1z"/>
	<path class="st6" d="M29.3,107.2h61.4c1.3,0,2.4,1,2.4,2.4v2.4c0,1.3-1,2.4-2.4,2.4H29.3c-1.3,0-2.4-1-2.4-2.4v-2.4
		C27,108.3,28,107.2,29.3,107.2z"/>
</g>
</svg>
