<?xml version="1.0" encoding="utf-8"?>
<!-- Generator: Adobe Illustrator 25.2.0, SVG Export Plug-In . SVG Version: 6.00 Build 0)  -->
<svg version="1.1" id="Capa_1" xmlns="http://www.w3.org/2000/svg" xmlns:xlink="http://www.w3.org/1999/xlink" x="0px" y="0px"
	 viewBox="0 0 100 100" style="enable-background:new 0 0 100 100;" xml:space="preserve">
<style type="text/css">
	.st0{fill:#C0392B;}
</style>
<g>
	<g id="XMLID_1_">
		<g>
			<polygon class="st0" points="68.2,50 37.7,67.6 37.7,32.4 			"/>
			<path d="M50,0c27.6,0,50,22.4,50,50c0,27.6-22.4,50-50,50C22.4,100,0,77.6,0,50C0,22.4,22.4,0,50,0z M93.2,50
				C93.2,26.2,73.8,6.8,50,6.8C26.2,6.8,6.8,26.2,6.8,50c0,23.8,19.4,43.2,43.2,43.2C73.8,93.2,93.2,73.8,93.2,50z"/>
			<path d="M76.7,47.1c1,0.6,1.6,1.7,1.6,2.9c0,1.2-0.6,2.3-1.7,3L36,76.4c-0.5,0.3-1.1,0.4-1.7,0.4c-0.6,0-1.2-0.2-1.7-0.4
				c-1.1-0.6-1.7-1.8-1.7-3V26.5c0-1.2,0.6-2.3,1.7-3c1.1-0.6,2.3-0.6,3.4,0L76.7,47.1z M37.7,67.6L68.2,50L37.7,32.4V67.6z"/>
		</g>
		<g>
		</g>
	</g>
</g>
</svg>
