<?xml version="1.0" encoding="utf-8"?>
<!-- Generator: Adobe Illustrator 25.2.0, SVG Export Plug-In . SVG Version: 6.00 Build 0)  -->
<svg version="1.1" id="Layer_1" xmlns="http://www.w3.org/2000/svg" xmlns:xlink="http://www.w3.org/1999/xlink" x="0px" y="0px"
	 viewBox="0 0 100 100" style="enable-background:new 0 0 100 100;" xml:space="preserve">
<style type="text/css">
	.st0{fill:#FFC10A;}
</style>
<g id="Layer_2_1_">
</g>
<g id="Layer_3">
</g>
<g id="Layer_4">
</g>
<g id="Layer_5">
</g>
<g id="Layer_6">
</g>
<g id="Layer_7">
</g>
<g id="Layer_8">
</g>
<g id="Layer_9">
</g>
<g id="Layer_10">
</g>
<g id="Layer_11">
</g>
<g id="Layer_12">
</g>
<g id="Layer_13">
</g>
<g id="Layer_14">
</g>
<g id="Layer_15">
</g>
<g id="Layer_16">
</g>
<g id="Layer_17">
	<g>
		<path class="st0" d="M82.1,36.6L46.5,92.9c-0.3,0.9-1.5,1.5-2.4,1.5c-0.3,0-0.6,0-0.9-0.3c-1.2-0.6-2.1-1.8-1.8-3.3l5-37.9H20.4
			c-1.2,0-2.1-0.6-2.7-1.5c-0.6-0.9-0.3-2.1,0.3-3L47.7,7c0.9-1.2,2.1-1.5,3.3-1.2C52.1,6.1,53,7.2,53,8.4v23.7h26.7
			c1.2,0,2.1,0.6,2.7,1.5C82.6,34.5,82.6,35.7,82.1,36.6z"/>
	</g>
</g>
<g id="Layer_18">
</g>
<g id="Layer_19">
</g>
<g id="Layer_20">
</g>
<g id="Layer_21">
</g>
<g id="Layer_22">
</g>
<g id="Layer_23">
</g>
<g id="Layer_24">
</g>
<g id="Layer_25">
</g>
<g id="Wearher">
</g>
</svg>
