<?xml version="1.0" encoding="utf-8"?>
<!-- Generator: Adobe Illustrator 25.2.0, SVG Export Plug-In . SVG Version: 6.00 Build 0)  -->
<svg version="1.1" id="mdi-monitor-dashboard" xmlns="http://www.w3.org/2000/svg" xmlns:xlink="http://www.w3.org/1999/xlink"
	 x="0px" y="0px" viewBox="0 0 100 100" style="enable-background:new 0 0 100 100;" xml:space="preserve">
<style type="text/css">
	.st0{fill:#0A0400;}
	.st1{fill:#22D326;}
	.st2{fill:#5FB7FF;}
	.st3{fill:#FF4FE3;}
	.st4{fill:#D8D31E;}
</style>
<g id="XMLID_2_">
	<g>
		<path class="st0" d="M100,13.6v54.5c0,5-4.1,9.1-9.1,9.1H59.1v9.1h9.1v9.1H31.8v-9.1h9.1v-9.1H9.1c-5,0-9.1-4.1-9.1-9.1V13.6
			c0-5.1,4.1-9.1,9.1-9.1h81.8C95.9,4.5,100,8.6,100,13.6z M90.9,68.2V13.6H9.1v54.5H90.9z"/>
		<rect x="66.2" y="39.6" class="st1" width="18.2" height="22.7"/>
		<rect x="63.6" y="22.7" class="st2" width="18.2" height="9.1"/>
		<rect x="40.9" y="50" class="st3" width="18.2" height="9.1"/>
		<rect x="18.2" y="50" class="st1" width="18.2" height="9.1"/>
	</g>
	<g>
	</g>
</g>
<g id="XMLID_1_">
	<g>
		<rect x="18.2" y="22.7" class="st4" width="40.9" height="22.7"/>
	</g>
	<g>
	</g>
</g>
</svg>
