<?xml version="1.0" encoding="utf-8"?>
<!-- Generator: Adobe Illustrator 25.2.0, SVG Export Plug-In . SVG Version: 6.00 Build 0)  -->
<svg version="1.1" id="Layer_1" xmlns="http://www.w3.org/2000/svg" xmlns:xlink="http://www.w3.org/1999/xlink" x="0px" y="0px"
	 viewBox="0 0 120 120" style="enable-background:new 0 0 120 120;" xml:space="preserve">
<style type="text/css">
	.st0{fill:#D0E4FF;}
	.st1{fill:#F37622;}
</style>
<g id="XMLID_1_">
	<g>
		<rect x="27.9" y="63.3" class="st0" width="3.9" height="4.5"/>
		<rect x="27.9" y="41.2" class="st0" width="3.9" height="4.5"/>
		<rect x="46.7" y="41.2" class="st0" width="3.9" height="4.5"/>
		<path d="M117,113.1c3.9,0,3.9,6.9,0,6.9c-38,0-76.1,0-114.1,0c-3.9,0-3.9-6.9,0-6.9h7V24c0-1.9,1.4-3.5,3-3.5h49.6v-17
			c0-1.9,1.3-3.5,3-3.5H107c1.7,0,3,1.5,3,3.5v109.6H117z M104,113.1V6.9H68.5v106.2H104z M62.5,113.1V27.4H15.9V113
			c0,0.1,13,0.1,13,0.1V96c0-1.9,1.3-3.5,3-3.5h14.7c1.7,0,3,1.5,3,3.5v17.1H62.5z M43.6,113.1V99.5h-8.7v13.6H43.6z"/>
		<path class="st1" d="M104,6.9v106.2H68.5V6.9H104z M98.3,80.2V17.9c0-2-1.3-3.5-3-3.5h-18c-1.7,0-3,1.5-3,3.4v62.4
			c0,2,1.3,3.5,3,3.5h18C97,83.7,98.3,82.1,98.3,80.2z"/>
		<path d="M98.3,17.9v62.3c0,1.9-1.3,3.5-3,3.5h-18c-1.7,0-3-1.5-3-3.5V17.8c0-1.9,1.3-3.4,3-3.4h18C97,14.4,98.3,15.9,98.3,17.9z
			 M92.3,76.7c0-0.1,0-55.4,0-55.4h-12v55.4H92.3z"/>
		<path class="st0" d="M92.3,21.3c0,0,0,55.3,0,55.4h-12V21.3H92.3z"/>
		<path class="st1" d="M62.5,27.4v85.7H49.6V96c0-2-1.3-3.5-3-3.5H31.9c-1.7,0-3,1.6-3,3.5v17.1c0,0-13,0-13-0.1V27.4H62.5z
			 M56.6,71.3V59.9c0-2-1.3-3.5-3-3.5h-9.9c-1.7,0-3,1.5-3,3.5v11.4c0,2,1.3,3.5,3,3.5h9.9C55.3,74.8,56.6,73.2,56.6,71.3z
			 M56.6,49.2V37.8c0-2-1.3-3.5-3-3.5h-9.9c-1.7,0-3,1.5-3,3.4v11.5c0,2,1.3,3.5,3,3.5h9.9C55.3,52.7,56.6,51.1,56.6,49.2z
			 M37.8,71.3V59.9c0-2-1.3-3.5-3-3.5h-9.9c-1.7,0-3,1.5-3,3.5v11.4c0,2,1.3,3.5,3,3.5h9.9C36.5,74.8,37.8,73.2,37.8,71.3z
			 M37.8,49.2V37.8c0-2-1.3-3.5-3-3.5h-9.9c-1.7,0-3,1.5-3,3.4v11.5c0,2,1.3,3.5,3,3.5h9.9C36.5,52.7,37.8,51.1,37.8,49.2z"/>
		<path d="M56.6,59.9v11.4c0,1.9-1.3,3.5-3,3.5h-9.9c-1.7,0-3-1.5-3-3.5V59.9c0-2,1.3-3.5,3-3.5h9.9C55.3,56.4,56.6,57.9,56.6,59.9z
			 M50.6,67.8v-4.5h-3.9v4.5H50.6z"/>
		<path d="M56.6,37.8v11.4c0,1.9-1.3,3.5-3,3.5h-9.9c-1.7,0-3-1.5-3-3.5V37.7c0-1.9,1.3-3.4,3-3.4h9.9
			C55.3,34.3,56.6,35.8,56.6,37.8z M50.6,45.7v-4.5h-3.9v4.5H50.6z"/>
		<rect x="46.7" y="63.3" class="st0" width="3.9" height="4.5"/>
		<rect x="34.9" y="99.5" class="st0" width="8.7" height="13.6"/>
		<path d="M37.8,59.9v11.4c0,1.9-1.3,3.5-3,3.5h-9.9c-1.7,0-3-1.5-3-3.5V59.9c0-2,1.3-3.5,3-3.5h9.9C36.5,56.4,37.8,57.9,37.8,59.9z
			 M31.8,67.8v-4.5h-3.9v4.5H31.8z"/>
		<path d="M37.8,37.8v11.4c0,1.9-1.3,3.5-3,3.5h-9.9c-1.7,0-3-1.5-3-3.5V37.7c0-1.9,1.3-3.4,3-3.4h9.9
			C36.5,34.3,37.8,35.8,37.8,37.8z M31.8,45.7v-4.5h-3.9v4.5H31.8z"/>
	</g>
	<g>
	</g>
</g>
</svg>
