<?xml version="1.0" encoding="utf-8"?>
<!-- Generator: Adobe Illustrator 25.2.0, SVG Export Plug-In . SVG Version: 6.00 Build 0)  -->
<svg version="1.1" id="Layer_1" xmlns="http://www.w3.org/2000/svg" xmlns:xlink="http://www.w3.org/1999/xlink" x="0px" y="0px"
	 viewBox="0 0 100 100" style="enable-background:new 0 0 100 100;" xml:space="preserve">
<style type="text/css">
	.st0{fill:#DD0031;}
	.st1{fill:#C3002F;}
	.st2{fill:#FFFFFF;}
</style>
<polygon class="st0" points="50,1.7 50,1.7 50,1.7 5,17.7 11.9,77.2 50,98.3 50,98.3 50,98.3 88.1,77.2 95,17.7 "/>
<polygon class="st1" points="50,1.7 50,12.4 50,12.3 50,61.3 50,61.3 50,98.3 50,98.3 88.1,77.2 95,17.7 "/>
<path class="st2" d="M50,12.3L21.9,75.4h10.5L38,61.3h23.9l5.7,14.1H78L50,12.3z M58.2,52.6H41.8L50,32.8L58.2,52.6z"/>
</svg>
