<?xml version="1.0" encoding="utf-8"?>
<!-- Generator: Adobe Illustrator 25.2.0, SVG Export Plug-In . SVG Version: 6.00 Build 0)  -->
<svg version="1.1" id="Layer_1" xmlns="http://www.w3.org/2000/svg" xmlns:xlink="http://www.w3.org/1999/xlink" x="0px" y="0px"
	 viewBox="0 0 100 100" style="enable-background:new 0 0 100 100;" xml:space="preserve">
<style type="text/css">
	.st0{fill:#5B4282;}
</style>
<path class="st0" d="M59.3,51.4c-1.9-0.6-4.6-0.5-8.1-0.5H37.1v18.4h15.1c2.4,0,4-0.3,5-0.4c1.7-0.3,3.1-0.9,4.2-1.6
	c1.1-0.7,2.1-1.8,2.8-3.1c0.7-1.3,1.1-2.9,1.1-4.7c0-2.1-0.5-3.6-1.6-5.1C62.6,52.9,61.1,52,59.3,51.4z M57.3,43
	c1.9-0.6,3.3-1.5,4.2-2.8c0.9-1.3,1.4-2.9,1.4-4.8c0-1.8-0.4-3.5-1.3-4.8c-0.9-1.4-2.1-1.9-3.8-2.4c-1.6-0.5-4.4-0.4-8.4-0.4H37.1
	v16h13.3C53.6,43.7,55.9,43.4,57.3,43z M99.5,13.8c0-7.3-6-13.3-13.3-13.3H12.8c-7.3,0-13.3,6-13.3,13.3v73.4
	c0,7.3,6,13.3,13.3,13.3h73.4c7.3,0,13.3-6,13.3-13.3V13.8z M71.1,66.7c-1.1,2.2-2.4,3.9-4,5.1c-1.6,1.2-3.6,2.2-6,2.8
	c-2.4,0.6-5.4,1-8.9,1H29.9V20.5h21.9c4.2,0,7.6,0.5,10.1,1.6c2.5,1.1,4.5,2.8,6,5.1c1.4,2.3,2.2,4.7,2.2,7.3c0,2.4-0.6,4.6-1.9,6.6
	c-1.3,2.1-3.2,3.8-5.8,5c3.3,1,5.9,2.6,7.7,5c1.8,2.4,2.7,5.1,2.7,8.3C72.8,62.1,72.2,64.5,71.1,66.7z"/>
</svg>
