<?xml version="1.0" encoding="utf-8"?>
<!-- Generator: Adobe Illustrator 25.2.0, SVG Export Plug-In . SVG Version: 6.00 Build 0)  -->
<svg version="1.1" id="Layer_1" xmlns="http://www.w3.org/2000/svg" xmlns:xlink="http://www.w3.org/1999/xlink" x="0px" y="0px"
	 viewBox="0 0 100 100" style="enable-background:new 0 0 100 100;" xml:space="preserve">
<style type="text/css">
	.st0{fill:#1572B6;}
	.st1{fill:#33A9DC;}
	.st2{fill:#FFFFFF;}
	.st3{fill:#EBEBEB;}
</style>
<polygon class="st0" points="13.9,90 5.9,0 94.1,0 86.1,90 49.9,100 "/>
<polygon class="st1" points="50,92.3 79.2,84.3 86,7.4 50,7.4 "/>
<polygon class="st2" points="50,40 64.6,40 65.6,28.7 50,28.7 50,17.6 50,17.6 77.7,17.6 77.4,20.6 74.7,51 50,51 "/>
<polygon class="st3" points="50.1,68.6 50,68.7 37.7,65.3 36.9,56.5 31,56.5 25.9,56.5 27.4,73.9 50,80.1 50.1,80.1 "/>
<polygon class="st2" points="63.7,50.5 62.3,65.3 50,68.6 50,80.1 72.7,73.9 72.8,72 74.7,50.5 "/>
<polygon class="st3" points="50,17.6 50,24.5 50,28.6 50,28.7 23.4,28.7 23.4,28.7 23.4,28.7 23.2,26.2 22.6,20.6 22.4,17.6 "/>
<polygon class="st3" points="50,40 50,46.8 50,51 50,51 37.9,51 37.9,51 37.9,51 37.6,48.5 37.1,42.9 36.9,40 "/>
</svg>
