<?xml version="1.0" encoding="utf-8"?>
<!-- Generator: Adobe Illustrator 25.2.0, SVG Export Plug-In . SVG Version: 6.00 Build 0)  -->
<svg version="1.1" id="Layer_1" xmlns="http://www.w3.org/2000/svg" xmlns:xlink="http://www.w3.org/1999/xlink" x="0px" y="0px"
	 viewBox="0 0 100 100" style="enable-background:new 0 0 100 100;" xml:space="preserve">
<style type="text/css">
	.st0{fill:#0074BD;}
	.st1{fill:#EA2D2E;}
</style>
<path class="st0" d="M32.2,77.3c0,0-5.2,2.2,3.7,3c10.7,0.9,16.2,0.8,28.1-0.9c0,0,3.1,1.4,7.5,2.7C44.9,90.5,11.4,81.6,32.2,77.3z
	 M29,66.4c0,0-5.8,3.2,3.1,3.8c11.5,0.9,20.5,0.9,36.2-1.3c0,0,2.2,1.6,5.6,2.5C41.7,78.4,6,72,29,66.4z"/>
<path class="st1" d="M56.3,47.8c6.5,5.6-1.7,10.6-1.7,10.6s16.6-6.3,9-14.2c-7.1-7.4-12.6-11,17-23.7C80.6,20.4,34.1,29,56.3,47.8z"
	/>
<path class="st0" d="M91.4,85.4c0,0,3.8,2.3-4.2,4.1C71.9,93,23.4,94,10,89.7c-4.8-1.6,4.2-3.7,7.1-4.2c3-0.5,4.7-0.4,4.7-0.4
	C16.3,82.4-13,90.6,6.8,93C60.9,99.5,105.4,90.1,91.4,85.4z M34.7,55c0,0-24.6,4.3-8.7,5.9c6.7,0.7,20.1,0.5,32.6-0.3
	c10.2-0.6,20.4-2,20.4-2s-3.6,1.1-6.2,2.4c-25,4.9-73.4,2.6-59.5-2.4C25.1,54.6,34.7,55,34.7,55z M78.9,73.3
	c25.4-9.7,13.7-19.1,5.5-17.9c-2,0.3-2.9,0.6-2.9,0.6s0.7-0.9,2.2-1.2c16.2-4.2,28.7,12.4-5.2,19C78.4,73.8,78.8,73.5,78.9,73.3z"/>
<path class="st1" d="M63.6,0c0,0,14.1,10.4-13.4,26.4c-22,12.8-5,20.1,0,28.5c-12.9-8.6-22.3-16.1-16-23.1
	C43.5,21.5,69.3,16.5,63.6,0z"/>
<path class="st0" d="M37.2,99.7c24.4,1.2,61.9-0.6,62.8-9.2c0,0-1.7,3.2-20.2,5.8C59,99.2,33.3,98.9,18,97
	C18,97,21.2,98.9,37.2,99.7z"/>
</svg>
