<?xml version="1.0" encoding="utf-8"?>
<!-- Generator: Adobe Illustrator 25.2.0, SVG Export Plug-In . SVG Version: 6.00 Build 0)  -->
<svg version="1.1" id="Layer_1" xmlns="http://www.w3.org/2000/svg" xmlns:xlink="http://www.w3.org/1999/xlink" x="0px" y="0px"
	 viewBox="0 0 100 100" style="enable-background:new 0 0 100 100;" xml:space="preserve">
<style type="text/css">
	.st0{fill:#83CD29;}
</style>
<path class="st0" d="M50,100c-1.5,0-3-0.4-4.3-1l-13.8-7.2c-2.1-1-1.1-1.4-0.4-1.6c2.2-0.6,4.3-1.4,6.2-2.5c0.3-0.1,0.7-0.1,1,0.1
	l10.6,5.6c0.4,0.2,0.9,0.2,1.3,0L92,72.1c0.4-0.2,0.6-0.6,0.6-1V28.8c0-0.4-0.2-0.8-0.6-1L50.6,6.7c-0.4-0.2-0.9-0.2-1.3,0L8.1,27.8
	c-0.4,0.2-0.6,0.6-0.7,1v42.3c0,0.4,0.2,0.8,0.6,1l11.3,5.8c6.1,2.7,9.9-0.5,9.9-3.7V32.4c0-0.6,0.5-1.1,1.2-1.1l0,0h5.2
	c0.7,0,1.2,0.5,1.2,1.1l0,0v41.8c0,7.3-4.5,11.4-12.2,11.4c-3.4,0.1-6.7-0.7-9.5-2.3L4.3,77.8C1.7,76.4,0,73.9,0,71.1V28.8
	c0-2.8,1.6-5.3,4.3-6.7L45.7,1c2.7-1.3,6-1.3,8.7,0l41.3,21.2c2.7,1.4,4.3,3.9,4.3,6.7v42.3c0,2.8-1.7,5.3-4.3,6.7L54.3,99
	C53,99.6,51.5,100,50,100z"/>
<path class="st0" d="M42.2,57c0-0.6,0.5-1.1,1.2-1.1h5.3c0.6,0,1.1,0.4,1.2,0.9c0.8,4.8,3.2,7.3,14.1,7.3c8.7,0,12.4-1.7,12.4-5.8
	c0-2.4-1.1-4.1-14.6-5.3c-11.3-1-18.3-3.2-18.3-11.2c0-7.4,7-11.8,18.8-11.8c13.2,0,19.8,4.1,20.6,12.8c0.1,0.6-0.4,1.1-1.1,1.2
	c0,0-0.1,0-0.1,0h-5.4c-0.6,0-1-0.3-1.2-0.8c-1.3-5.1-4.4-6.7-12.9-6.7c-9.5,0-10.6,2.9-10.6,5.1c0,2.7,1.3,3.4,14.1,4.9
	c12.7,1.5,18.7,3.6,18.7,11.5c0,8-7.5,12.6-20.6,12.6C46,70.5,42.2,63.1,42.2,57z"/>
</svg>
