<?xml version="1.0" encoding="utf-8"?>
<!-- Generator: Adobe Illustrator 25.2.0, SVG Export Plug-In . SVG Version: 6.00 Build 0)  -->
<svg version="1.1" id="Layer_1" xmlns="http://www.w3.org/2000/svg" xmlns:xlink="http://www.w3.org/1999/xlink" x="0px" y="0px"
	 viewBox="0 0 100 100" style="enable-background:new 0 0 100 100;" xml:space="preserve">
<style type="text/css">
	.st0{fill:url(#SVGID_1_);}
	.st1{fill:#6280B6;}
	.st2{fill:#FFFFFF;}
	.st3{fill:#000004;}
</style>
<radialGradient id="SVGID_1_" cx="2.5927" cy="60.5223" r="68.6436" gradientTransform="matrix(0.9565 0 0 -1 27.5415 92.693)" gradientUnits="userSpaceOnUse">
	<stop  offset="0" style="stop-color:#FFFFFF"/>
	<stop  offset="0.5" style="stop-color:#4C6B96"/>
	<stop  offset="1" style="stop-color:#231F20"/>
</radialGradient>
<ellipse class="st0" cx="50" cy="50" rx="50" ry="27.5"/>
<ellipse class="st1" cx="50" cy="50" rx="48" ry="25.5"/>
<path class="st2" d="M59.7,58.2l2.4-12.8c0.7-2.2,0.2-4.7-1.3-6.4c-2.1-1.5-4.6-2.2-7.1-2h-4.1l1.2-6.3c0.1-0.4-0.2-0.9-0.6-1
	c0,0-0.1,0-0.1,0h-5.7c-0.4,0-0.7,0.3-0.8,0.7L40.9,44c-0.2-1.5-0.8-2.8-1.7-3.9c-2.1-2.2-4.9-3.3-7.9-3h-11c-0.4,0-0.7,0.3-0.8,0.7
	l-5.1,27.6c-0.1,0.4,0.2,0.9,0.6,1c0,0,0.1,0,0.1,0H21c0.4,0,0.7-0.3,0.8-0.7l1.2-6.7h4.3c1.9,0.1,3.8-0.2,5.6-0.7
	c1.5-0.5,2.9-1.4,4.1-2.6c1-0.9,1.8-2,2.4-3.2l-1,5.5c-0.1,0.4,0.2,0.9,0.6,1c0,0,0.1,0,0.1,0h5.7c0.4,0,0.7-0.3,0.8-0.7l2.8-15.1
	h3.9c1.7,0,2.1,0.3,2.3,0.5c0.1,0.1,0.4,0.6,0.1,2.1l-2.3,12.2c-0.1,0.4,0.2,0.9,0.6,1c0,0,0.1,0,0.1,0H59
	C59.4,58.9,59.7,58.6,59.7,58.2z M33.3,47.6c-0.2,1.6-0.9,3-2,4.1c-1.4,0.9-3,1.3-4.7,1.2h-2.5l1.8-9.9h3.3c2.4,0,3.4,0.5,3.8,1
	C33.6,45.1,33.7,46.4,33.3,47.6z"/>
<path class="st2" d="M84.1,40c-2.1-2.2-4.9-3.3-7.9-3h-11c-0.4,0-0.7,0.3-0.8,0.7l-5.1,27.6c-0.1,0.4,0.2,0.9,0.6,1c0,0,0.1,0,0.1,0
	h5.7c0.4,0,0.7-0.3,0.8-0.7l1.2-6.7h4.3c1.9,0.1,3.8-0.2,5.6-0.7c1.5-0.5,2.9-1.4,4.1-2.6c2-1.9,3.4-4.4,3.8-7.2
	C86.4,45.5,85.9,42.4,84.1,40z M78.1,47.6c-0.2,1.6-0.9,3-2,4.1c-1.4,0.9-3.1,1.3-4.7,1.2h-2.5l1.8-9.9H74c2.4,0,3.4,0.5,3.8,1
	C78.4,45.1,78.5,46.4,78.1,47.6z"/>
<path class="st3" d="M29.2,42.2c1.6-0.2,3.1,0.2,4.4,1.3c0.8,1.3,1,2.9,0.5,4.3c-0.2,1.8-1,3.4-2.3,4.6c-1.5,1-3.4,1.5-5.2,1.4h-3.5
	l2.1-11.5L29.2,42.2z M15.2,65.4H21l1.4-7.3h4.9c1.8,0.1,3.6-0.2,5.4-0.7c1.4-0.5,2.7-1.3,3.8-2.4c1.9-1.8,3.2-4.1,3.6-6.8
	c0.7-2.6,0.2-5.5-1.4-7.6c-1.9-2-4.6-3-7.3-2.7h-11L15.2,65.4z"/>
<path class="st3" d="M44.2,30.5H50l-1.4,7.3h5.1c2.3-0.3,4.7,0.4,6.6,1.7c1.3,1.5,1.7,3.7,1.1,5.7L59,58.1h-5.8l2.3-12.2
	c0.3-0.9,0.2-2-0.3-2.8c-0.8-0.6-1.8-0.9-2.9-0.7h-4.6l-2.9,15.8h-5.7L44.2,30.5z"/>
<path class="st3" d="M74,42.2c1.6-0.2,3.1,0.2,4.4,1.3c0.8,1.3,1,2.9,0.5,4.3c-0.2,1.8-1,3.4-2.3,4.6c-1.5,1-3.4,1.5-5.2,1.4h-3.5
	l2.1-11.5L74,42.2z M60,65.4h5.7l1.4-7.3h4.9c1.8,0.1,3.6-0.2,5.4-0.7c1.4-0.5,2.7-1.3,3.8-2.4c1.9-1.8,3.2-4.1,3.6-6.8
	c0.7-2.6,0.2-5.5-1.4-7.6c-1.9-2-4.6-3-7.3-2.7h-11L60,65.4z"/>
</svg>
