<?xml version="1.0" encoding="utf-8"?>
<!-- Generator: Adobe Illustrator 25.2.0, SVG Export Plug-In . SVG Version: 6.00 Build 0)  -->
<svg version="1.1"
	 id="svg2" sodipodi:docname="python.svg" xmlns:cc="http://creativecommons.org/ns#" xmlns:dc="http://purl.org/dc/elements/1.1/" xmlns:inkscape="http://www.inkscape.org/namespaces/inkscape" xmlns:rdf="http://www.w3.org/1999/02/22-rdf-syntax-ns#" xmlns:sodipodi="http://sodipodi.sourceforge.net/DTD/sodipodi-0.dtd" xmlns:svg="http://www.w3.org/2000/svg"
	 xmlns="http://www.w3.org/2000/svg" xmlns:xlink="http://www.w3.org/1999/xlink" x="0px" y="0px" viewBox="0 0 100 100"
	 style="enable-background:new 0 0 100 100;" xml:space="preserve">
<style type="text/css">
	.st0{fill:#F9F9F9;}
	.st1{fill:#4586B9;}
	.st2{fill:#FFE634;}
</style>
<sodipodi:namedview  bordercolor="#666666" borderopacity="1" gridtolerance="10" guidetolerance="10" id="namedview71" inkscape:current-layer="svg2" inkscape:cx="22.519772" inkscape:cy="39.54886" inkscape:pageopacity="0" inkscape:pageshadow="2" inkscape:window-height="566" inkscape:window-maximized="0" inkscape:window-width="1039" inkscape:window-x="192" inkscape:window-y="110" inkscape:zoom="2.4583333" objecttolerance="10" pagecolor="#ffffff" showgrid="false">
	</sodipodi:namedview>
<g id="g33" transform="translate(0,80)">
</g>
<g id="g53" transform="matrix(4.9975858,0,0,4.9975858,-56.023051,-55.69933)">
	<g id="g55">
		<g id="g57">
			<path id="path59" inkscape:connector-curvature="0" class="st0" d="M19.4,13.7c0,0.7-0.6,1.3-1.3,1.3c-0.7,0-1.3-0.6-1.3-1.3
				s0.6-1.3,1.3-1.3C18.9,12.4,19.4,13,19.4,13.7"/>
			<path id="path61" inkscape:connector-curvature="0" class="st1" d="M21.1,11.2c-0.8,0-1.6,0.1-2.3,0.2c-2,0.4-2.4,1.1-2.4,2.5
				v1.8h4.8v0.6h-6.6c-1.4,0-2.6,0.8-3,2.4c-0.4,1.8-0.5,3,0,4.8c0.3,1.4,1.2,2.4,2.6,2.4h1.4v-2.4c0-1.6,1.4-3,3-3h5.1
				c1.3,0,2.6-1.1,2.6-2.4v-4.3c0-1.3-1.3-2.3-2.6-2.5C22.8,11.3,21.9,11.2,21.1,11.2 M18.5,12.7c0.5,0,0.9,0.4,0.9,0.9
				c0,0.5-0.4,0.9-0.9,0.9c-0.5,0-0.9-0.4-0.9-0.9C17.6,13.1,18,12.7,18.5,12.7"/>
			<path id="path63" inkscape:connector-curvature="0" class="st0" d="M25.3,28.7c0,0.7-0.6,1.3-1.3,1.3c-0.7,0-1.3-0.6-1.3-1.3
				s0.6-1.3,1.3-1.3C24.7,27.4,25.3,28,25.3,28.7"/>
			<path id="path65" inkscape:connector-curvature="0" class="st2" d="M26.9,16.3v2.1c0,1.6-1.4,2.8-3,2.8h-5.3
				c-1.3,0-2.4,1.3-2.4,2.6v4.5c0,1.3,1.1,2.1,2.4,2.4c1.5,0.4,3.2,0.5,5,0c1.2-0.3,2.4-1,2.4-2.4v-1.8h-4.8V26h7.2
				c1.4,0,1.9-1,2.4-2.4c0.5-1.5,0.5-2.9,0-4.8c-0.3-1.4-1-2.4-2.4-2.4 M23.9,27.8c0.5,0,0.9,0.4,0.9,0.9c0,0.5-0.4,0.9-0.9,0.9
				c-0.5,0-0.9-0.4-0.9-0.9S23.4,27.8,23.9,27.8"/>
		</g>
	</g>
</g>
</svg>
