<?xml version="1.0" encoding="utf-8"?>
<!-- Generator: Adobe Illustrator 25.2.0, SVG Export Plug-In . SVG Version: 6.00 Build 0)  -->
<svg version="1.1" id="Layer_1" xmlns="http://www.w3.org/2000/svg" xmlns:xlink="http://www.w3.org/1999/xlink" x="0px" y="0px"
	 viewBox="0 0 100 100" style="enable-background:new 0 0 100 100;" xml:space="preserve">
<style type="text/css">
	.st0{fill:#61DAFB;}
</style>
<g>
	<circle class="st0" cx="50" cy="50" r="9.1"/>
	<path class="st0" d="M84.6,35c-1.8-0.6-3.6-1.3-5.5-1.8c0.5-1.9,0.9-3.8,1.2-5.7c1.7-10.5-0.2-18-5.3-20.8
		c-1.5-0.9-3.2-1.3-5.1-1.3c-5.6,0-12.7,4.2-19.9,11.1C42.8,9.5,35.7,5.4,30.1,5.4c-1.9,0-3.6,0.4-5.1,1.3c-5.1,3-6.9,10.4-5.3,20.8
		c0.3,1.8,0.7,3.8,1.2,5.7c-1.9,0.6-3.8,1.1-5.5,1.8C5.4,38.8,0,44.1,0,50s5.5,11.2,15.4,15c1.8,0.6,3.6,1.3,5.5,1.8
		c-0.5,1.9-0.9,3.8-1.2,5.7c-1.7,10.5,0.2,18,5.3,20.8c1.5,0.9,3.2,1.3,5.1,1.3c5.7,0,12.8-4.2,19.9-11.1
		c7.2,6.9,14.3,11.1,19.9,11.1c1.9,0,3.6-0.4,5.1-1.3c5.1-3,6.9-10.4,5.3-20.8c-0.3-1.8-0.7-3.8-1.2-5.7c1.9-0.6,3.8-1.1,5.5-1.8
		c10-3.8,15.4-9.1,15.4-15S94.6,38.8,84.6,35z M72.8,10.6c3.3,1.9,4.4,7.8,3,16.2c-0.2,1.7-0.6,3.4-1.1,5.3c-4.2-1-8.5-1.6-13.2-2
		c-2.7-3.8-5.5-7.3-8.3-10.4c5.9-5.8,11.9-9.8,16.8-9.8C71,9.9,72,10.1,72.8,10.6z M63.8,58c-1.4,2.6-3.1,5.1-4.9,7.7
		C56,65.9,53,66,50,66c-3.1,0-6.1-0.1-8.9-0.3c-1.8-2.6-3.4-5.1-4.8-7.7c-1.5-2.6-3-5.4-4.2-8c1.3-2.6,2.7-5.4,4.2-8
		c1.4-2.6,3.1-5.1,4.9-7.7c3-0.2,5.9-0.3,8.9-0.3c3.1,0,6.1,0.1,8.9,0.3c1.8,2.6,3.4,5.1,4.8,7.7c1.5,2.6,3,5.4,4.2,8
		C66.7,52.6,65.3,55.3,63.8,58z M70.4,55.4c1.2,2.8,2.2,5.5,3,8.2c-2.7,0.6-5.6,1.1-8.6,1.5c1-1.5,2-3.1,2.9-4.8
		C68.7,58.6,69.6,56.9,70.4,55.4z M50,77c-1.9-2.1-3.8-4.3-5.5-6.6c1.8,0.1,3.7,0.2,5.5,0.2s3.7-0.1,5.5-0.2
		C53.8,72.7,51.9,74.9,50,77z M35.1,65c-3-0.4-5.9-0.9-8.6-1.5c0.9-2.6,1.8-5.4,3-8.2c0.9,1.6,1.8,3.3,2.7,4.9
		C33.2,61.9,34.2,63.4,35.1,65z M29.6,44.6c-1.2-2.8-2.2-5.5-3-8.2c2.7-0.6,5.6-1.1,8.6-1.5c-1,1.5-2,3.1-2.9,4.8
		C31.3,41.4,30.4,43.1,29.6,44.6z M50,23c1.9,2.1,3.8,4.3,5.5,6.6c-1.8-0.1-3.7-0.2-5.5-0.2s-3.7,0.1-5.5,0.2
		C46.2,27.3,48.1,25.1,50,23z M67.7,39.8L64.9,35c3,0.4,5.9,0.9,8.6,1.5c-0.9,2.6-1.8,5.4-3,8.2C69.6,43.1,68.7,41.4,67.7,39.8z
		 M24.2,26.8c-1.4-8.4-0.2-14.3,3-16.2C28,10.1,29,9.9,30,9.9c4.8,0,10.8,3.9,16.8,9.8c-2.8,3-5.6,6.5-8.3,10.4
		c-4.6,0.4-9,1.1-13.2,2C24.8,30.3,24.5,28.5,24.2,26.8z M4.5,50c0-3.8,4.6-7.7,12.5-10.7c1.6-0.6,3.4-1.2,5.1-1.7
		c1.3,4,2.9,8.2,4.8,12.5c-1.9,4.2-3.6,8.4-4.8,12.4C11.1,59.3,4.5,54.5,4.5,50z M27.2,89.4c-3.3-1.9-4.4-7.8-3-16.2
		c0.2-1.7,0.6-3.4,1.1-5.3c4.2,1,8.5,1.6,13.2,2c2.7,3.8,5.5,7.3,8.3,10.4c-5.9,5.8-11.9,9.8-16.8,9.8C29,90.1,28,89.9,27.2,89.4z
		 M75.8,73.2c1.4,8.4,0.2,14.3-3,16.2C72,89.9,71,90.1,70,90.1c-4.8,0-10.8-3.9-16.8-9.8c2.8-3,5.6-6.5,8.3-10.4
		c4.6-0.4,9-1.1,13.2-2C75.2,69.7,75.5,71.5,75.8,73.2z M83,60.7c-1.6,0.6-3.4,1.2-5.1,1.7c-1.3-4-2.9-8.2-4.8-12.5
		c1.9-4.2,3.6-8.4,4.8-12.4c11,3.2,17.7,8,17.7,12.5C95.5,53.8,90.9,57.7,83,60.7z"/>
</g>
</svg>
