<?xml version="1.0" encoding="utf-8"?>
<!-- Generator: Adobe Illustrator 25.2.0, SVG Export Plug-In . SVG Version: 6.00 Build 0)  -->
<svg version="1.1" id="Layer_1" xmlns="http://www.w3.org/2000/svg" xmlns:xlink="http://www.w3.org/1999/xlink" x="0px" y="0px"
	 viewBox="0 0 100 100" style="enable-background:new 0 0 100 100;" xml:space="preserve">
<style type="text/css">
	.st0{fill:url(#SVGID_1_);}
	.st1{fill:url(#SVGID_2_);}
	.st2{fill:url(#SVGID_3_);}
	.st3{fill:url(#SVGID_4_);}
	.st4{fill:url(#SVGID_5_);}
	.st5{fill:url(#SVGID_6_);}
	.st6{fill:url(#SVGID_7_);}
	.st7{fill:url(#SVGID_8_);}
	.st8{fill:#FFFFFF;}
	.st9{fill:url(#SVGID_9_);}
	.st10{fill:url(#SVGID_10_);}
	.st11{fill:url(#SVGID_11_);}
	.st12{fill:url(#SVGID_12_);}
	.st13{fill:#9E1209;}
	.st14{fill:url(#SVGID_13_);}
	.st15{fill:url(#SVGID_14_);}
	.st16{fill:url(#SVGID_15_);}
	.st17{fill:url(#SVGID_16_);}
</style>
<linearGradient id="SVGID_1_" gradientUnits="userSpaceOnUse" x1="-1140.1771" y1="902.3683" x2="-1140.281" y2="902.182" gradientTransform="matrix(202.935 0 0 202.78 231469.375 -182873.1406)">
	<stop  offset="0" style="stop-color:#FB7655"/>
	<stop  offset="0.41" style="stop-color:#E42B1E"/>
	<stop  offset="0.99" style="stop-color:#990000"/>
	<stop  offset="1" style="stop-color:#990000"/>
</linearGradient>
<path class="st0" d="M77.5,66l-57.1,34l73.9-5l5.7-74.8L77.5,66z"/>
<linearGradient id="SVGID_2_" gradientUnits="userSpaceOnUse" x1="-1128.3574" y1="904.9448" x2="-1128.8076" y2="904.7804" gradientTransform="matrix(60.308 0 0 111.778 68147.3203 -101075.1953)">
	<stop  offset="0" style="stop-color:#871101"/>
	<stop  offset="0.99" style="stop-color:#911209"/>
	<stop  offset="1" style="stop-color:#911209"/>
</linearGradient>
<path class="st1" d="M94.4,94.9l-6.4-44L70.8,73.9L94.4,94.9z"/>
<linearGradient id="SVGID_3_" gradientUnits="userSpaceOnUse" x1="-1139.7883" y1="930.1104" x2="-1139.9352" y2="929.2757" gradientTransform="matrix(188.32 0 0 21.986 214721.1875 -20339.6074)">
	<stop  offset="0" style="stop-color:#871101"/>
	<stop  offset="0.99" style="stop-color:#911209"/>
	<stop  offset="1" style="stop-color:#911209"/>
</linearGradient>
<path class="st2" d="M94.5,94.9L48,91.3l-27.3,8.6L94.5,94.9z"/>
<linearGradient id="SVGID_4_" gradientUnits="userSpaceOnUse" x1="-1128.3932" y1="905.5761" x2="-1128.3287" y2="905.859" gradientTransform="matrix(65.222 0 0 97.1 73615.6016 -87866.9141)">
	<stop  offset="0" style="stop-color:#FFFFFF"/>
	<stop  offset="0.23" style="stop-color:#E57252"/>
	<stop  offset="0.46" style="stop-color:#DE3B20"/>
	<stop  offset="0.99" style="stop-color:#A60003"/>
	<stop  offset="1" style="stop-color:#A60003"/>
</linearGradient>
<path class="st3" d="M20.7,99.9l11.6-38.2L6.7,67.2L20.7,99.9z"/>
<linearGradient id="SVGID_5_" gradientUnits="userSpaceOnUse" x1="-1135.3708" y1="905.353" x2="-1135.3566" y2="905.6144" gradientTransform="matrix(105.32 0 0 106.825 119625.8047 -96675.7266)">
	<stop  offset="0" style="stop-color:#FFFFFF"/>
	<stop  offset="0.23" style="stop-color:#E4714E"/>
	<stop  offset="0.56" style="stop-color:#BE1A0D"/>
	<stop  offset="0.99" style="stop-color:#A80D00"/>
	<stop  offset="1" style="stop-color:#A80D00"/>
</linearGradient>
<path class="st4" d="M70.8,74L60,32L29.4,60.7L70.8,74z"/>
<linearGradient id="SVGID_6_" gradientUnits="userSpaceOnUse" x1="-1134.6985" y1="910.3182" x2="-1134.6519" y2="910.6188" gradientTransform="matrix(94.321 0 0 66.418 107100.2891 -60449.043)">
	<stop  offset="0" style="stop-color:#FFFFFF"/>
	<stop  offset="0.18" style="stop-color:#E46342"/>
	<stop  offset="0.4" style="stop-color:#C82410"/>
	<stop  offset="0.99" style="stop-color:#A80D00"/>
	<stop  offset="1" style="stop-color:#A80D00"/>
</linearGradient>
<path class="st5" d="M97.6,32.5L68.6,8.8L60.6,35L97.6,32.5z"/>
<linearGradient id="SVGID_7_" gradientUnits="userSpaceOnUse" x1="-1130.9916" y1="932.2947" x2="-1130.7089" y2="931.8796" gradientTransform="matrix(70.767 0 0 24.301 80096.3203 -22649.5391)">
	<stop  offset="0" style="stop-color:#FFFFFF"/>
	<stop  offset="0.54" style="stop-color:#C81F11"/>
	<stop  offset="0.99" style="stop-color:#BF0905"/>
	<stop  offset="1" style="stop-color:#BF0905"/>
</linearGradient>
<path class="st6" d="M84,0.4L67,9.8L56.3,0.3L84,0.4z"/>
<linearGradient id="SVGID_8_" gradientUnits="userSpaceOnUse" x1="-1082.8441" y1="908.3953" x2="-1082.7546" y2="908.6246" gradientTransform="matrix(18.177 0 0 72.645 19684.9102 -65932.4219)">
	<stop  offset="0" style="stop-color:#FFFFFF"/>
	<stop  offset="0.31" style="stop-color:#DE4024"/>
	<stop  offset="0.99" style="stop-color:#BF190B"/>
	<stop  offset="1" style="stop-color:#BF190B"/>
</linearGradient>
<path class="st7" d="M0,80l7.1-13L1.4,51.4L0,80z"/>
<path class="st8" d="M1,50.9l5.8,16.5L32,61.8L60.8,35l8.1-25.9L56.1,0L34.4,8.2c-6.9,6.4-20.2,19-20.6,19.3S5,43.4,1,50.9L1,50.9z"
	/>
<linearGradient id="SVGID_9_" gradientUnits="userSpaceOnUse" x1="-1138.8672" y1="903.6982" x2="-1138.3771" y2="903.1903" gradientTransform="matrix(158.162 0 0 157.937 180116.5781 -142649.1406)">
	<stop  offset="0" style="stop-color:#BD0012"/>
	<stop  offset="7.000000e-02" style="stop-color:#FFFFFF"/>
	<stop  offset="0.17" style="stop-color:#FFFFFF"/>
	<stop  offset="0.27" style="stop-color:#C82F1C"/>
	<stop  offset="0.33" style="stop-color:#820C01"/>
	<stop  offset="0.46" style="stop-color:#A31601"/>
	<stop  offset="0.72" style="stop-color:#B31301"/>
	<stop  offset="0.99" style="stop-color:#E82609"/>
	<stop  offset="1" style="stop-color:#E82609"/>
</linearGradient>
<path class="st9" d="M21.4,21.3c14.9-14.8,34-23.5,41.3-16s-0.4,25.5-15.3,40.3S13.6,69.5,6.3,62S6.5,36,21.4,21.3z"/>
<linearGradient id="SVGID_10_" gradientUnits="userSpaceOnUse" x1="-1137.0026" y1="905.782" x2="-1137.1884" y2="905.7213" gradientTransform="matrix(127.074 0 0 97.409 144533.5 -88144.6641)">
	<stop  offset="0" style="stop-color:#8C0C01"/>
	<stop  offset="0.54" style="stop-color:#990C00"/>
	<stop  offset="0.99" style="stop-color:#A80D0E"/>
	<stop  offset="1" style="stop-color:#A80D0E"/>
</linearGradient>
<path class="st10" d="M20.7,99.9l11.5-38.3l38.3,12.3C56.7,87,41.3,98,20.7,99.9L20.7,99.9z"/>
<linearGradient id="SVGID_11_" gradientUnits="userSpaceOnUse" x1="-1134.502" y1="905.6145" x2="-1134.7236" y2="905.4393" gradientTransform="matrix(94.011 0 0 105.603 106745.7422 -95577.2266)">
	<stop  offset="0" style="stop-color:#7E110B"/>
	<stop  offset="0.99" style="stop-color:#9E0C00"/>
	<stop  offset="1" style="stop-color:#9E0C00"/>
</linearGradient>
<path class="st11" d="M60.8,34.9l9.8,39.1c11.6-12.2,22-25.3,27-41.5L60.8,34.9L60.8,34.9z"/>
<linearGradient id="SVGID_12_" gradientUnits="userSpaceOnUse" x1="-1132.5914" y1="908.4049" x2="-1132.7238" y2="908.269" gradientTransform="matrix(79.702 0 0 81.791 90367.5156 -74275.3828)">
	<stop  offset="0" style="stop-color:#79130D"/>
	<stop  offset="0.99" style="stop-color:#9E120B"/>
	<stop  offset="1" style="stop-color:#9E120B"/>
</linearGradient>
<path class="st12" d="M97.6,32.6c3.9-11.9,4.8-29-13.7-32.2L68.7,8.8L97.6,32.6L97.6,32.6z"/>
<path class="st13" d="M0,79.8c0.5,19.7,14.7,20,20.7,20.1L6.8,67.4L0,79.8z"/>
<radialGradient id="SVGID_13_" cx="-1134.578" cy="914.1425" r="0.2714" gradientTransform="matrix(93.113 0 0 48.7909 105716.7891 -44562.0039)" gradientUnits="userSpaceOnUse">
	<stop  offset="0" style="stop-color:#A80D00"/>
	<stop  offset="0.99" style="stop-color:#7E0E08"/>
	<stop  offset="1" style="stop-color:#7E0E08"/>
</radialGradient>
<path class="st14" d="M60.9,34.9c8.9,5.5,26.8,16.5,27.2,16.7c4.2-5.8,7.3-12.3,9.4-19.1L60.9,34.9L60.9,34.9z"/>
<radialGradient id="SVGID_14_" cx="-1134.6936" cy="907.8228" r="0.3464" gradientTransform="matrix(97.434 0 0 76.0599 110595.5625 -68975.3125)" gradientUnits="userSpaceOnUse">
	<stop  offset="0" style="stop-color:#A30C00"/>
	<stop  offset="0.99" style="stop-color:#800E08"/>
	<stop  offset="1" style="stop-color:#800E08"/>
</radialGradient>
<path class="st15" d="M32.2,61.6l15.4,29.8c8.4-4.7,16.1-10.6,22.8-17.5L32.2,61.6L32.2,61.6z"/>
<linearGradient id="SVGID_15_" gradientUnits="userSpaceOnUse" x1="-1117.4026" y1="907.3191" x2="-1117.6101" y2="906.9685" gradientTransform="matrix(40.137 0 0 81.143 44862.5312 -73523.1016)">
	<stop  offset="0" style="stop-color:#8B2114"/>
	<stop  offset="0.43" style="stop-color:#9E100A"/>
	<stop  offset="0.99" style="stop-color:#B3100C"/>
	<stop  offset="1" style="stop-color:#B3100C"/>
</linearGradient>
<path class="st16" d="M6.7,67.4L4.6,93.5c4.1,5.6,9.8,6.1,15.7,5.7C16,88.5,7.4,67,6.7,67.4L6.7,67.4z"/>
<linearGradient id="SVGID_16_" gradientUnits="userSpaceOnUse" x1="-1132.5621" y1="923.5052" x2="-1132.3224" y2="923.7593" gradientTransform="matrix(78.099 0 0 32.624 88530.3516 -30123.3379)">
	<stop  offset="0" style="stop-color:#B31000"/>
	<stop  offset="0.44" style="stop-color:#910F08"/>
	<stop  offset="0.99" style="stop-color:#791C12"/>
	<stop  offset="1" style="stop-color:#791C12"/>
</linearGradient>
<path class="st17" d="M68.6,8.9l30.6,4.3C97.6,6.3,92.6,1.8,84,0.4L68.6,8.9L68.6,8.9z"/>
</svg>
