<?xml version="1.0" encoding="utf-8"?>
<!-- Generator: Adobe Illustrator 25.2.0, SVG Export Plug-In . SVG Version: 6.00 Build 0)  -->
<svg version="1.1" id="Social_Icons" xmlns="http://www.w3.org/2000/svg" xmlns:xlink="http://www.w3.org/1999/xlink" x="0px"
	 y="0px" viewBox="0 0 32 32" style="enable-background:new 0 0 32 32;" xml:space="preserve">
<style type="text/css">
	.st0{fill:none;}
	.st1{fill:none;stroke:#FFFFFF;stroke-width:1.5;stroke-miterlimit:10;}
</style>
<g id="_x31__stroke">
	<g id="Facebook_1_">
		<path class="st0" d="M8.6,1.1H28c1.6,0,2.9,1.3,2.9,2.9V28c0,1.6-1.3,2.9-2.9,2.9H4c-1.6,0-2.9-1.3-2.9-2.9V8.6
			C1.1,4.4,4.4,1.1,8.6,1.1z"/>
		<path id="Facebook" class="st1" d="M16.6,30.9H2.8c-1,0-1.8-0.8-1.8-1.8V2.8C1,1.8,1.8,1,2.8,1h26.5c1,0,1.8,0.8,1.8,1.8v26.5
			c0,1-0.8,1.8-1.8,1.8h-7.5c-0.1,0-0.1-0.1-0.1-0.1V19.4c0-0.1,0.1-0.1,0.1-0.1h3.4c0.2,0,0.4-0.2,0.5-0.4l0.5-3.6
			c0-0.3-0.2-0.5-0.5-0.5h-3.9c-0.1,0-0.1-0.1-0.1-0.1v-2.8c0-1.3,0.4-2.2,2.2-2.2h2.3c0.1,0,0.1-0.1,0.1-0.1V6.2
			c0-0.2-0.2-0.4-0.4-0.5c-0.7-0.1-1.8-0.1-3.1-0.1c-3.4,0-5.8,2.1-5.8,5.9v3.3c0,0.1-0.1,0.1-0.1,0.1h-3.8C13,14.9,13,15,13,15v4.2
			c0,0.1,0.1,0.1,0.1,0.1h3.8c0.1,0,0.1,0.1,0.1,0.1v11.1C17,30.7,16.8,30.9,16.6,30.9z"/>
	</g>
</g>
</svg>
