<?xml version="1.0" encoding="utf-8"?>
<!-- Generator: Adobe Illustrator 25.2.0, SVG Export Plug-In . SVG Version: 6.00 Build 0)  -->
<svg version="1.1" id="Flat" xmlns="http://www.w3.org/2000/svg" xmlns:xlink="http://www.w3.org/1999/xlink" x="0px" y="0px"
	 viewBox="0 0 32 32" style="enable-background:new 0 0 32 32;" xml:space="preserve">
<style type="text/css">
	.st0{fill:#FFFFFF;stroke:#FFFFFF;stroke-width:0.5;stroke-miterlimit:10;}
</style>
<path class="st0" d="M16,10.3c-3.2,0-5.7,2.6-5.7,5.7s2.6,5.7,5.7,5.7s5.7-2.6,5.7-5.7S19.1,10.3,16,10.3z M16,20.7
	c-2.6,0-4.7-2.1-4.7-4.7s2.1-4.7,4.7-4.7s4.7,2.1,4.7,4.7S18.6,20.7,16,20.7z M21.7,3.5H10.3c-3.7,0-6.8,3-6.8,6.8v11.5
	c0,3.7,3,6.7,6.8,6.7h11.4c3.7,0,6.8-3,6.8-6.8V10.3C28.5,6.5,25.4,3.5,21.7,3.5z M27.5,21.7c0,3.1-2.6,5.7-5.7,5.7H10.3
	c-3.1,0-5.7-2.6-5.7-5.7V10.3c0-3.1,2.6-5.7,5.7-5.7h11.4c3.1,0,5.7,2.6,5.7,5.7V21.7z M23.8,9.2c0,0.5-0.5,1-1,1s-1-0.5-1-1
	s0.4-1,1-1C23.3,8.2,23.8,8.7,23.8,9.2z"/>
</svg>
