<?xml version="1.0" encoding="utf-8"?>
<!-- Generator: Adobe Illustrator 25.2.0, SVG Export Plug-In . SVG Version: 6.00 Build 0)  -->
<svg version="1.1" id="Layer_1" xmlns="http://www.w3.org/2000/svg" xmlns:xlink="http://www.w3.org/1999/xlink" x="0px" y="0px"
	 viewBox="0 0 100 105" style="enable-background:new 0 0 100 105;" xml:space="preserve">
<style type="text/css">
	.st0{fill:#071A52;}
	.st1{fill:none;stroke:#071A52;stroke-width:2.895;stroke-miterlimit:10;}
</style>
<g id="XMLID_1_">
	<g>
		<path class="st0" d="M18.3,19.5C23.2,11.7,31,7.4,40.6,5.3c2.1-0.5,4.2-0.7,6.4-1c2,0,4.1,0,6,0c2.1,0.3,4.2,0.5,6.4,1
			C68,7.1,75.3,11,80.3,17.6c2.3,3,3.7,6.4,4.1,10c0.1,0.6,0.3,0.9,1,1.2c3.7,1.3,6,4.1,6,7.6c0,3.7,0.1,7.4,0,11.1
			c-0.1,3.6-2,6.2-6,7.6c-0.7,0.3-1.4,0.3-2.2,0.4c-1,0.1-1.8,0-2.8,0c-3.5,0-4.6-0.7-6.2-3.6c-2.6,6.4-6.3,12-12.3,16.3
			c1.3,2.6,2.9,5,5.4,6.9c1.2,0.9,2.5,1.4,4,1.5c7.3,1.3,14.5,2.9,21,6c2.6,1.3,4.4,3,4.9,5.6c0.4,2.3,0.7,4.7,1,7
			c0.1,1.2,0.1,2.2,0.1,3.4c0,1.4-0.6,2-2.2,2c-2.2,0-4.4,0-6.7,0c-28.4,0-56.7,0-85.1,0c-1.1,0-1.9-0.2-2.5-1c0-1.9,0-3.9,0-5.9
			c0.2-1.4,0.4-2.9,0.7-4.3c0.5-3.4,2.2-5.9,5.9-7.2c0.9-0.4,1.8-0.8,2.7-1.2c5.5-2.1,11.3-3.6,17.2-4.4c2.6-0.4,4.5-1.4,6.2-3.1
			c1.6-1.6,2.8-3.4,3.7-5.4c-0.5-0.4-1-0.7-1.4-1.1c-1.1-0.9-2-2.1-3.4-2.5c-1.3-0.4-2.9,0-4.4,0c-4.9,0-8-2.1-9.2-6.2
			c-0.3-0.9-0.4-1.8-0.6-2.6c-1.4-0.2-2.9-0.1-4.1-0.5c-3.9-1.2-6.2-4.2-6.2-7.8c0-3.5,0-7,0-10.5c0-3.9,2.1-6.7,6.2-8.1
			c0.6-0.2,0.7-0.5,0.8-1C15.8,24.9,16.8,22.2,18.3,19.5z M71,12.8C60.3,5.8,48.6,4.9,36.5,8.9c-7.5,2.5-13,7-16,13.7
			c-0.8,1.8-1.3,3.7-1.4,5.7c0.8,0,1.5-0.1,2.2,0c0.7,0.1,1.4,0.3,2,0.5c3.5-11.3,11.7-17.9,25.1-18.5c14.9-0.6,24.3,5.9,28.4,18.3
			c1.4-0.2,2.8-0.3,4.2-0.5c0,0,0-0.1,0-0.2c0-0.2,0-0.3-0.1-0.5C80,21.5,76.6,16.5,71,12.8z M5.4,97.7c29.7,0,59.4,0,89.5,0
			c-0.2-2.5-0.5-4.8-0.7-7.1c-0.2-3-1.9-4.7-5-6C84,82.5,78.6,81,73,80.1c-2.8-0.5-5.6-0.9-7.9-2.7c-3.3-2.5-5.4-5.7-7-9.2
			c-0.4-0.8,0.1-1.4,0.8-1.8c1.6-1.2,3.3-2.4,4.6-3.8c4-3.9,6.4-8.6,8.2-13.5c2.2-5.7,2.7-11.7,1.8-17.7c-0.5-3.8-2-7.2-4.6-10.2
			c-7.9-9.3-23.3-9.8-32.4-4.6c-6.9,4-9.9,9.9-10.5,16.9c-0.6,7,0.8,13.8,4.2,20.3c1.4,2.4,3,4.7,4.5,7c0.2,0.3,0.6,0.6,0.9,0.7
			c2.4,0,4.9,0,7.3,0c0.6-2.2,1.6-3,4.1-3c0.9,0,1.7,0,2.6,0c2.2,0,3.8,1.3,3.8,3s-1.5,3-3.7,3c-3.3,0-6.7,0-9.9,0
			c-0.4,0-0.8,0-1.1,0c0.8,0.8,1.5,1.4,2.4,1.9c0.8,0.5,1.1,1.2,0.7,1.9c-1.4,3.1-3.3,5.9-6,8.2c-1.7,1.5-3.9,2.6-6.4,3
			c-2.9,0.5-5.9,1.1-8.8,1.7c-4.1,1-8.1,2.2-11.9,4.1c-1.5,0.8-2.5,1.9-2.8,3.5s-0.6,3.1-0.7,4.5C5.3,94.9,5.4,96.4,5.4,97.7z
			 M87.8,47.6c0.1-3.8,0.1-7.6,0-11.4c-0.1-2.7-2.7-5.2-5.7-4.8c-0.7,0.1-1.4,0-2.1,0c-1.7,0-2.4,0.6-2.4,2.2c0,2.8,0,5.6,0,8.4
			c0,2.9,0,5.7,0,8.6c0,0.9,0.3,1.7,1.3,1.8c1.7,0.1,3.7,0.3,5.4-0.2C86.6,51.6,87.8,49.8,87.8,47.6z M22.6,56.4
			c0.8,4.1,3,5.7,8.1,5c-1.6-3.1-3.4-6.2-4.9-9c-0.7,0.7-1.4,1.6-2.3,2.3C22.7,55.3,22.5,55.6,22.6,56.4z M22.4,42
			c0-2.8,0-5.6,0-8.4c0-1.6-0.7-2.2-2.6-2.2c-0.7,0-1.4,0.1-2,0c-2.7-0.4-5.6,1.8-5.7,4.7c-0.1,3.9-0.1,7.7,0,11.6
			c0,2.2,1.6,4.1,4,4.6c1.3,0.3,2.6,0.1,4,0.1c1.7,0,2.4-0.6,2.4-2.1C22.4,47.6,22.4,44.8,22.4,42L22.4,42z"/>
	</g>
	<g>
		<path class="st1" d="M53,4.3c2.1,0.3,4.2,0.5,6.4,1C68,7.1,75.3,11,80.3,17.6c2.3,3,3.7,6.4,4.1,10c0.1,0.6,0.3,0.9,1,1.2
			c3.7,1.3,6,4.1,6,7.6c0,3.7,0.1,7.4,0,11.1c-0.1,3.6-2,6.2-6,7.6c-0.7,0.3-1.4,0.3-2.2,0.4c-1,0.1-1.8,0-2.8,0
			c-3.5,0-4.6-0.7-6.2-3.6c-2.6,6.4-6.3,12-12.3,16.3c1.3,2.6,2.9,5,5.4,6.9c1.2,0.9,2.5,1.4,4,1.5c7.3,1.3,14.5,2.9,21,6
			c2.6,1.3,4.4,3,4.9,5.6c0.4,2.3,0.7,4.7,1,7c0.1,1.2,0.1,2.2,0.1,3.4c0,1.4-0.6,2-2.2,2c-2.2,0-4.4,0-6.7,0c-28.4,0-56.7,0-85.1,0
			c-1.1,0-1.9-0.2-2.5-1c0-1.9,0-3.9,0-5.9c0.2-1.4,0.4-2.9,0.7-4.3c0.5-3.4,2.2-5.9,5.9-7.2c0.9-0.4,1.8-0.8,2.7-1.2
			c5.5-2.1,11.3-3.6,17.2-4.4c2.6-0.4,4.5-1.4,6.2-3.1c1.6-1.6,2.8-3.4,3.7-5.4c-0.5-0.4-1-0.7-1.4-1.1c-1.1-0.9-2-2.1-3.4-2.5
			c-1.3-0.4-2.9,0-4.4,0c-4.9,0-8-2.1-9.2-6.2c-0.3-0.9-0.4-1.8-0.6-2.6c-1.4-0.2-2.9-0.1-4.1-0.5c-3.9-1.2-6.2-4.2-6.2-7.8
			c0-3.5,0-7,0-10.5c0-3.9,2.1-6.7,6.2-8.1c0.6-0.2,0.7-0.5,0.8-1c0.3-2.9,1.2-5.7,2.8-8.2c4.8-7.8,12.6-12.2,22.3-14.3
			c2.1-0.5,4.2-0.7,6.4-1C48.9,4.3,51,4.3,53,4.3z"/>
		<path class="st1" d="M94.9,97.7c-0.2-2.5-0.5-4.8-0.7-7.1c-0.2-3-1.9-4.7-5-6C84,82.5,78.6,81,73,80.1c-2.8-0.5-5.6-0.9-7.9-2.7
			c-3.3-2.5-5.4-5.7-7-9.2c-0.4-0.8,0.1-1.4,0.8-1.8c1.6-1.2,3.3-2.4,4.6-3.8c4-3.9,6.4-8.6,8.2-13.5c2.2-5.7,2.7-11.7,1.8-17.7
			c-0.5-3.8-2-7.2-4.6-10.2c-7.9-9.3-23.3-9.8-32.4-4.6c-6.9,4-9.9,9.9-10.5,16.9c-0.6,7,0.8,13.8,4.2,20.3c1.4,2.4,3,4.7,4.5,7
			c0.2,0.3,0.6,0.6,0.9,0.7c2.4,0,4.9,0,7.3,0c0.6-2.2,1.6-3,4.1-3c0.9,0,1.7,0,2.6,0c2.2,0,3.8,1.3,3.8,3s-1.5,3-3.7,3
			c-3.3,0-6.7,0-9.9,0c-0.4,0-0.8,0-1.1,0c0.8,0.8,1.5,1.4,2.4,1.9c0.8,0.5,1.1,1.2,0.7,1.9c-1.4,3.1-3.3,5.9-6,8.2
			c-1.7,1.5-3.9,2.6-6.4,3c-2.9,0.5-5.9,1.1-8.8,1.7c-4.1,1-8.1,2.2-11.9,4.1c-1.5,0.8-2.5,1.9-2.8,3.5s-0.6,3.1-0.7,4.5
			c-0.1,1.4,0,2.8,0,4.1C35.1,97.7,64.9,97.7,94.9,97.7z"/>
		<path class="st1" d="M81,28.2c0,0,0-0.1,0-0.2c0-0.2,0-0.3-0.1-0.5c-0.9-6.2-4.2-11.2-9.9-14.9C60.3,5.8,48.6,4.9,36.5,8.9
			c-7.5,2.5-13,7-16,13.7c-0.8,1.8-1.3,3.7-1.4,5.7c0.8,0,1.5-0.1,2.2,0c0.7,0.1,1.4,0.3,2,0.5c3.5-11.3,11.7-17.9,25.1-18.5
			c14.9-0.6,24.3,5.9,28.4,18.3C78.1,28.6,79.4,28.4,81,28.2z"/>
		<path class="st1" d="M22.4,42L22.4,42c0-2.8,0-5.6,0-8.4c0-1.6-0.7-2.2-2.6-2.2c-0.7,0-1.4,0.1-2,0c-2.7-0.4-5.6,1.8-5.7,4.7
			c-0.1,3.9-0.1,7.7,0,11.6c0,2.2,1.6,4.1,4,4.6c1.3,0.3,2.6,0.1,4,0.1c1.7,0,2.4-0.6,2.4-2.1C22.4,47.6,22.4,44.8,22.4,42z"/>
		<path class="st1" d="M77.5,42c0,2.9,0,5.7,0,8.6c0,0.9,0.3,1.7,1.3,1.8c1.7,0.1,3.7,0.3,5.4-0.2c2.4-0.6,3.6-2.4,3.7-4.5
			c0.1-3.8,0.1-7.6,0-11.4c-0.1-2.7-2.7-5.2-5.7-4.8c-0.7,0.1-1.4,0-2.1,0c-1.7,0-2.4,0.6-2.4,2.2C77.5,36.4,77.5,39.2,77.5,42z"/>
		<path class="st1" d="M25.8,52.5c-0.7,0.7-1.4,1.6-2.3,2.3c-0.8,0.5-1,1-0.8,1.6c0.8,4.1,3,5.7,8.1,5
			C29.1,58.3,27.3,55.3,25.8,52.5z"/>
	</g>
</g>
</svg>
