<?xml version="1.0" encoding="utf-8"?>
<!-- Generator: Adobe Illustrator 25.2.0, SVG Export Plug-In . SVG Version: 6.00 Build 0)  -->
<svg version="1.1" id="Capa_1" xmlns="http://www.w3.org/2000/svg" xmlns:xlink="http://www.w3.org/1999/xlink" x="0px" y="0px"
	 viewBox="0 0 100 100" style="enable-background:new 0 0 100 100;" xml:space="preserve">
<style type="text/css">
	.st0{fill:#FFFFFF;stroke:#071A52;stroke-width:7;stroke-miterlimit:10;}
</style>
<g>
	<g id="XMLID_1_">
		<g>
			<path class="st0" d="M95,77c1.1,3.2,0,7.7-2.3,10.1l-6.5,6.5c-1.2,1.1-4.6,1.9-4.7,1.9c-20.5,0.2-40.1-7.9-54.6-22.4
				S4.4,38.7,4.5,18.2c0-0.1,0.7-3.4,1.9-4.5l6.5-6.5C15.2,5,19.8,3.9,23,5l1.4,0.5c3.2,1,6.5,4.5,7.4,7.8l3.3,12
				c0.8,3.2-0.4,7.9-2.7,10.2L28,39.7c4.2,15.7,16.6,28.1,32.3,32.3l4.3-4.3c2.3-2.4,6.9-3.6,10.2-2.7l12,3.3
				c3.2,0.8,6.7,4.2,7.8,7.4L95,77z"/>
		</g>
	</g>
</g>
</svg>
