<?xml version="1.0" encoding="utf-8"?>
<!-- Generator: Adobe Illustrator 25.2.0, SVG Export Plug-In . SVG Version: 6.00 Build 0)  -->
<svg version="1.1" id="Capa_1" xmlns="http://www.w3.org/2000/svg" xmlns:xlink="http://www.w3.org/1999/xlink" x="0px" y="0px"
	 viewBox="0 0 100 100" style="enable-background:new 0 0 100 100;" xml:space="preserve">
<style type="text/css">
	.st0{fill:#071A52;}
</style>
<g>
	<g id="XMLID_1_">
		<g>
			<path class="st0" d="M50.9,0C78,0,100,21.8,100,48.7S78,97.4,50.9,97.4c-8.6,0-16.7-2.2-23.7-6.1L0,100l8.9-26.1
				c-4.5-7.3-7-15.9-7-25.2C1.8,21.8,23.8,0,50.9,0z M92.2,48.7c0-22.6-18.5-40.9-41.3-40.9S9.6,26.1,9.6,48.7c0,9,2.9,17.3,7.9,24
				l-5.2,15.2l15.9-5c6.5,4.3,14.3,6.8,22.7,6.8C73.7,89.7,92.2,71.3,92.2,48.7z"/>
			<path class="st0" d="M75.7,59.9c0.3,0.5,0.3,2.9-0.7,5.7c-1,2.8-5.9,5.5-8.1,5.7c-2.2,0.2-2.2,1.8-14.4-3
				c-12.2-4.8-20-17.2-20.6-18S27,43.8,27,38c0-5.9,3.1-8.8,4.2-10c1.1-1.2,2.4-1.5,3.2-1.5c0.8,0,1.6,0.1,2.3,0.1s1.7-0.4,2.7,2
				s3.4,8.3,3.7,8.9c0.3,0.6,0.5,1.3,0.1,2.1c-0.4,0.8-0.6,1.3-1.2,2c-0.6,0.7-1.3,1.6-1.8,2.1c-0.6,0.6-1.2,1.2-0.5,2.4
				c0.7,1.2,3.1,5.1,6.7,8.3c4.6,4.1,8.5,5.3,9.7,5.9c1.2,0.6,1.9,0.5,2.6-0.3s3-3.5,3.8-4.7s1.6-1,2.7-0.6c1.1,0.4,7,3.3,8.2,3.9
				C74.6,59.1,75.4,59.4,75.7,59.9z"/>
		</g>
		<g>
		</g>
	</g>
</g>
</svg>
