<?xml version="1.0" encoding="utf-8"?>
<!-- Generator: Adobe Illustrator 25.2.0, SVG Export Plug-In . SVG Version: 6.00 Build 0)  -->
<svg version="1.1" id="Layer_1" xmlns="http://www.w3.org/2000/svg" xmlns:xlink="http://www.w3.org/1999/xlink" x="0px" y="0px"
	 viewBox="0 0 100 100" style="enable-background:new 0 0 100 100;" xml:space="preserve">
<style type="text/css">
	.st0{fill:#647F94;stroke:#000000;stroke-width:0.9;stroke-miterlimit:10;}
	.st1{fill:#45596B;stroke:#000000;stroke-width:0.9;stroke-miterlimit:10;}
</style>
<g>
	<g>
		<path class="st0" d="M4.8,95h82.8c4,0,7.2-2.8,7.2-6.3V25.4h-90V95z M41.3,79.2c1.2,1.1,1.2,2.8,0,3.9c-0.6,0.5-1.4,0.8-2.2,0.8
			c-0.8,0-1.6-0.3-2.2-0.8l-6.4-5.6l-6.4,5.6c-0.6,0.5-1.4,0.8-2.2,0.8c-0.8,0-1.6-0.3-2.2-0.8c-1.2-1.1-1.2-2.8,0-3.9l6.4-5.6
			L19.7,68c-1.2-1.1-1.2-2.8,0-3.9c1.2-1.1,3.2-1.1,4.4,0l6.4,5.6l6.4-5.6c1.2-1.1,3.2-1.1,4.4,0c1.2,1.1,1.2,2.8,0,3.9l-6.4,5.6
			L41.3,79.2z M71,84.3h-2.2c-1.7,0-3.1-1.2-3.1-2.8c0-1.5,1.4-2.8,3.1-2.8H71c1.7,0,3.1,1.2,3.1,2.8C74.2,83,72.8,84.3,71,84.3z
			 M59.9,41.7H80c1.7,0,3.1,1.2,3.1,2.8c0,1.5-1.4,2.8-3.1,2.8H59.9c-1.7,0-3.1-1.2-3.1-2.8C56.7,43,58.1,41.7,59.9,41.7z
			 M74.2,65.6c0,1.5-1.4,2.8-3.1,2.8h-2.2c-1.7,0-3.1-1.2-3.1-2.8c0-1.5,1.4-2.8,3.1-2.8H71C72.8,62.9,74.2,64.1,74.2,65.6z
			 M59.9,70.8H80c1.7,0,3.1,1.2,3.1,2.8s-1.4,2.8-3.1,2.8H59.9c-1.7,0-3.1-1.2-3.1-2.8S58.1,70.8,59.9,70.8z M20.4,41.7h6.9v-6.1
			c0-1.5,1.4-2.8,3.1-2.8c1.7,0,3.1,1.2,3.1,2.8v6.1h6.9c1.7,0,3.1,1.2,3.1,2.8c0,1.5-1.4,2.8-3.1,2.8h-6.9v6.1
			c0,1.5-1.4,2.8-3.1,2.8c-1.7,0-3.1-1.2-3.1-2.8v-6.1h-6.9c-1.7,0-3.1-1.2-3.1-2.8C17.3,43,18.7,41.7,20.4,41.7z"/>
		<rect x="4.8" y="5" class="st1" width="90" height="14.9"/>
	</g>
</g>
</svg>
