<?xml version="1.0" encoding="utf-8"?>
<!-- Generator: Adobe Illustrator 25.2.0, SVG Export Plug-In . SVG Version: 6.00 Build 0)  -->
<svg version="1.1" id="Layer_1" xmlns="http://www.w3.org/2000/svg" xmlns:xlink="http://www.w3.org/1999/xlink" x="0px" y="0px"
	 viewBox="0 0 100 100" style="enable-background:new 0 0 100 100;" xml:space="preserve">
<style type="text/css">
	.st0{fill:#EBEBEB;}
	.st1{fill:#324D5B;}
	.st2{fill:#E2574C;}
</style>
<path class="st0" d="M50,0c27.6,0,50,22.4,50,50s-22.4,50-50,50S0,77.6,0,50S22.4,0,50,0z"/>
<path class="st1" d="M71.9,46.9H53.1V25c0-1.7-1.4-3.1-3.1-3.1s-3.1,1.4-3.1,3.1v25c0,1.7,1.4,3.1,3.1,3.1h21.9
	c1.7,0,3.1-1.4,3.1-3.1C75,48.3,73.6,46.9,71.9,46.9z"/>
<path class="st2" d="M50,0C22.4,0,0,22.4,0,50s22.4,50,50,50s50-22.4,50-50S77.6,0,50,0z M50,90.6C27.6,90.6,9.4,72.4,9.4,50
	C9.4,27.6,27.6,9.4,50,9.4S90.6,27.6,90.6,50C90.6,72.4,72.4,90.6,50,90.6z"/>
</svg>
