<?xml version="1.0" encoding="utf-8"?>
<!-- Generator: Adobe Illustrator 25.2.0, SVG Export Plug-In . SVG Version: 6.00 Build 0)  -->
<svg version="1.1" id="Layer_1" xmlns="http://www.w3.org/2000/svg" xmlns:xlink="http://www.w3.org/1999/xlink" x="0px" y="0px"
	 viewBox="0 0 100 105" style="enable-background:new 0 0 100 105;" xml:space="preserve">
<style type="text/css">
	.st0{fill:#071A52;}
</style>
<g>
	<g id="XMLID_1_">
		<g>
			<path class="st0" d="M41.7,91.7l8.3,5.1l8.2-5.1l-7-26.2h-2.5L41.7,91.7z M49.7,56.8C67.5,56.8,82,45.5,82,31.6
				S67.5,6.4,49.7,6.4S17.4,17.7,17.4,31.6C17.4,45.5,31.9,56.8,49.7,56.8z M99,68.6V91h-8.2V68.6C90.8,63,86,57.8,78,54.2
				c-5.2,4-11.8,6.8-19.2,8.1l8.6,31.9L50,105L32.7,94.3l8.4-31.8c-7.4-1.3-14.1-4.1-19.4-8.1C14,57.9,9.3,63.1,9.3,68.6V91H1V68.6
				c0-7.5,5.8-14.4,15.3-19.1c-4.5-5.1-7.2-11.3-7.2-17.9C9.2,14.2,27.4,0,49.7,0c22.4,0,40.5,14.2,40.5,31.6c0,6.6-2.6,12.7-7,17.7
				C93.1,54,99,61,99,68.6z"/>
		</g>
	</g>
</g>
</svg>
