<?xml version="1.0" encoding="utf-8"?>
<!-- Generator: Adobe Illustrator 25.2.0, SVG Export Plug-In . SVG Version: 6.00 Build 0)  -->
<svg version="1.1" id="Layer_1" xmlns="http://www.w3.org/2000/svg" xmlns:xlink="http://www.w3.org/1999/xlink" x="0px" y="0px"
	 viewBox="0 0 20 20" style="enable-background:new 0 0 20 20;" xml:space="preserve">
<style type="text/css">
	.st0{fill:#0652DD;}
</style>
<g id="XMLID_1_">
	<g>
		<path d="M10.5,20c-0.2,0-0.3,0-0.5,0s-0.3,0-0.5,0H10.5z"/>
		<path class="st0" d="M16.6,15.6h-2.4c-0.4,0.9-0.9,1.8-1.6,2.6C14.2,17.7,15.6,16.8,16.6,15.6z M14.2,4.5h2.4
			c-1-1.2-2.4-2.2-3.9-2.7C13.2,2.6,13.8,3.5,14.2,4.5z M18.6,9.3c-0.1-1.2-0.5-2.4-1-3.5h-2.8c0.3,1.1,0.5,2.2,0.6,3.5H18.6z
			 M17.5,14.2c0.6-1.1,0.9-2.2,1-3.4h-3.3c-0.1,1.2-0.3,2.4-0.6,3.4H17.5z M5.3,14.2c-0.3-1.1-0.5-2.2-0.6-3.4H1.4
			c0.1,1.2,0.5,2.4,1,3.4H5.3z M4.7,9.3C4.8,8.1,5,6.9,5.3,5.8H2.5c-0.6,1.1-0.9,2.2-1,3.5H4.7z M7.3,18.2c-0.6-0.8-1.1-1.7-1.5-2.6
			H3.4C4.4,16.7,5.8,17.7,7.3,18.2z M5.8,4.5c0.4-1,0.9-1.9,1.5-2.7C5.8,2.3,4.4,3.3,3.4,4.5H5.8z M9.3,4.5V1.7
			c-0.8,0.8-1.4,1.7-2,2.8H9.3z M9.3,9.3V5.8H6.8C6.4,6.9,6.2,8.1,6.1,9.3H9.3z M9.3,14.2v-3.4H6.1c0.1,1.2,0.3,2.4,0.7,3.4H9.3z
			 M9.3,18.3v-2.8h-2C7.9,16.6,8.5,17.5,9.3,18.3z M10,0c5.5,0,10,4.5,10,10c0,5.4-4.2,9.7-9.5,10h-1c-4.4-0.2-8.1-3.3-9.2-7.4V7.5
			C1.5,3.2,5.4,0,10,0z M13.9,10.7h-3.2v3.4h2.5C13.6,13.1,13.8,11.9,13.9,10.7z M12.6,4.5c-0.5-1-1.2-2-2-2.8v2.8H12.6z M13.2,5.8
			h-2.5v3.5h3.2C13.8,8.1,13.6,6.9,13.2,5.8z M12.6,15.6h-2v2.8C11.5,17.5,12.1,16.6,12.6,15.6z"/>
		<path class="st0" d="M0.3,7.5v5.1C0.1,11.7,0,10.9,0,10S0.1,8.3,0.3,7.5z"/>
	</g>
	<g>
	</g>
</g>
</svg>
