<?xml version="1.0" encoding="utf-8"?>
<!-- Generator: Adobe Illustrator 25.2.0, SVG Export Plug-In . SVG Version: 6.00 Build 0)  -->
<svg version="1.1" id="e4ebe004-ac85-4249-bdf7-a9685d9ba22f"
	 xmlns="http://www.w3.org/2000/svg" xmlns:xlink="http://www.w3.org/1999/xlink" x="0px" y="0px" viewBox="0 0 400 300"
	 style="enable-background:new 0 0 400 300;" xml:space="preserve">
<style type="text/css">
	.st0{fill:#F3F3F3;}
	.st1{fill:#3F3D56;}
	.st2{fill:#6C63FF;}
	.st3{fill:none;stroke:#3F3D56;stroke-width:0.8984;stroke-miterlimit:10;}
	.st4{opacity:0.1;enable-background:new    ;}
	.st5{fill:#2F2E41;}
	.st6{fill:#FFB9B9;}
	.st7{opacity:5.000000e-02;enable-background:new    ;}
	.st8{fill:#F2F2F2;}
	.st9{fill:#3F3D56;stroke:#6C63FF;stroke-width:0.4492;stroke-miterlimit:10;}
	.st10{opacity:0.8;}
	.st11{opacity:0.6;}
	.st12{fill:#EF3F36;}
	.st13{fill:#FCD900;}
	.st14{fill:#61BC5B;}
	.st15{fill:#5AB055;}
	.st16{fill:#FFFFFF;}
	.st17{fill:url(#SVGID_1_);}
	.st18{fill:#EACA05;}
	.st19{fill:#DF3A32;}
	.st20{fill:url(#SVGID_2_);}
	.st21{fill:url(#SVGID_3_);}
	.st22{fill:#E2E2E2;}
	.st23{fill:url(#SVGID_4_);fill-opacity:0.2;}
	.st24{fill:#CD151E;}
	.st25{fill:#FA5153;}
	.st26{fill:#ACACAC;}
	.st27{fill:#EEEEEE;}
	.st28{fill:#E53333;}
	.st29{fill:#F84437;}
	.st30{fill:none;}
	.st31{fill-rule:evenodd;clip-rule:evenodd;fill:#10BC4C;}
	.st32{fill-rule:evenodd;clip-rule:evenodd;fill:url(#Instagram_2_);}
	.st33{fill-rule:evenodd;clip-rule:evenodd;fill:#CE1312;}
</style>
<ellipse class="st0" cx="207.9" cy="144.9" rx="170.9" ry="144.9"/>
<path class="st1" d="M97.3,247.3c-11,14.3-8,32.5-8,32.5s20.9-5,31.9-19.3c11-14.3,8-32.5,8-32.5S108.3,233,97.3,247.3z"/>
<path class="st2" d="M89.2,279.7c0,0-0.3,0-0.8-0.1c-0.4-0.1-0.9-0.2-1.6-0.3c-5.9-1.2-21.6-5.2-31.9-15.7
	C42.1,250.4,42.6,232,42.6,232s19.7,2.7,32.6,14.5c0.6,0.5,1.1,1,1.6,1.6C88,259.5,89,274.9,89.1,278.8
	C89.2,279.4,89.2,279.7,89.2,279.7z"/>
<path class="st3" d="M81.3,247.3c11,14.3,8,32.5,8,32.5s-20.9-5-31.9-19.3c-11-14.3-8-32.5-8-32.5S70.3,233,81.3,247.3z"/>
<path class="st4" d="M89.2,278.8c-0.3,0.3-0.5,0.6-0.8,0.8c-0.5,0.5-0.7,0.7-0.7,0.7s-0.3-0.3-0.9-1c-3-3.5-12.5-16-11.8-30.5
	c0-0.8,0.1-1.5,0.2-2.2c0.6,0.5,1.1,1,1.6,1.6C88.1,259.6,89.1,275,89.2,278.8z"/>
<path class="st2" d="M105.5,249.8c-0.9,17.1-15.8,30.4-15.8,30.4S76.2,265.8,77,248.8s15.8-30.4,15.8-30.4S106.4,232.8,105.5,249.8z
	"/>
<line class="st3" x1="89.7" y1="279.7" x2="93" y2="219.1"/>
<ellipse class="st1" cx="200" cy="286.2" rx="200" ry="13.8"/>
<path class="st5" d="M231.8,120c-5,1.4-9.5,4.8-10.5,9.1c-0.5,2-0.2,4.1-0.6,6.2c-0.9,4.7-5.3,8.3-9.3,11.7s-8.2,7.3-8.5,12.1
	c-0.3,5.2,4.2,10.2,3.4,15.4c-0.9,6.1-8.4,10-10.3,15.9c-1.2,3.9,0.3,8.2,2.8,11.7c4.8,6.6,13,11.1,21.7,13.5s18,2.9,27.1,3
	c11.2,0.1,23.3-0.7,31.6-7c4.8-3.6,7.8-8.6,8.4-14c0.8-7.2-2.8-14.7-0.3-21.7c1.5-4.4,5.4-8.4,4.8-12.9c-0.6-4.4-5.1-7.6-8.3-11.2
	c-2.9-3.4-4.7-7.3-6.5-11.2l-6-13.3c-1.2-2.6-2.5-5.4-5.1-7.1c-4.9-3.2-12.8-2.6-18.5-1.9C242.5,118.9,236.9,118.6,231.8,120z"/>
<path class="st6" d="M233.7,158.9c0,0,2.6,7.3-17.2,15.7s2,17.4,2,17.4l23.1,4.5c0,0,23.8-2.8,26.4-6.2s7.3-14.6,5.9-16.3
	c-1-1.2-2.1-2.3-3.3-3.4c0,0-15.9-2.2-15.2-8.4C256.1,156.1,233.7,158.9,233.7,158.9z"/>
<path class="st4" d="M233.7,158.9c0,0,2.6,7.3-17.2,15.7s2,17.4,2,17.4l23.1,4.5c0,0,23.8-2.8,26.4-6.2s7.3-14.6,5.9-16.3
	c-1-1.2-2.1-2.3-3.3-3.4c0,0-15.9-2.2-15.2-8.4C256.1,156.1,233.7,158.9,233.7,158.9z"/>
<ellipse class="st6" cx="246.5" cy="152.5" rx="21.1" ry="17.9"/>
<path class="st2" d="M244.2,190.3c0,0-25.5-1.6-26-16.5c0,0-9.1-0.9-11.7,1.4c-2.6,2.2-11.2,3.9-11.2,9.5s14.5,22.4,14.5,22.4
	s7.9,22.4,4.6,26.3c-3.3,3.9-4,14-4,14s33-2.2,38.3,0s26.4,2.2,27.8,0c1.3-2.2-1.3-30.3-1.3-30.3s5.9-6.7,4.6-14.6l15.9-15.7
	c0,0-5.9-15.1-15.2-15.1c0,0-12.6-2.8-12.9-1.4S274,187.5,244.2,190.3z"/>
<path class="st6" d="M184.7,239.6c0,0,5.9,7.8,21.1,9.5c15.2,1.7,17.8-2.8,16.5-3.9c-1.3-1.1-17.2-6.2-17.2-6.2l-9.3-6.2
	L184.7,239.6z"/>
<path class="st6" d="M293.1,232.9l-17.2,8.4c0,0-22.5-1.1-13.9,4.5s24.5,3.4,24.5,3.4l15.2-6.2L293.1,232.9z"/>
<path class="st5" d="M207.2,247.5c0,0-15.9,33.1,3.3,38.1s72,3.9,83.9-2.8s15.2-15.7,13.2-18.5s-15.2-10.6-24.5-11.2
	C274,252.5,207.2,247.5,207.2,247.5z"/>
<path class="st7" d="M207.2,247.5c0,0-15.9,33.1,3.3,38.1s72,3.9,83.9-2.8s15.2-15.7,13.2-18.5s-15.2-10.6-24.5-11.2
	C274,252.5,207.2,247.5,207.2,247.5z"/>
<path class="st5" d="M282.1,249.5c0,0,56-17.2,55.3,3.6c-0.7,20.7-35.7,26.3-35.7,26.3l-10.6,1.1l-58.2,1.7c0,0,2-9-2.6-10.1
	c0,0,15.2-3.4,15.9-3.9c0.7-0.6,38.3-11.8,41-12.3c2.6-0.6,10.6-5,16.5-4.5c0,0,6.6-4.5,13.9-3.4l-20.5,1.1L282.1,249.5z"/>
<path class="st4" d="M282.1,249.5c0,0,56-17.2,55.3,3.6c-0.7,20.7-35.7,26.3-35.7,26.3l-10.6,1.1l-58.2,1.7c0,0,2-9-2.6-10.1
	c0,0,15.2-3.4,15.9-3.9c0.7-0.6,38.3-11.8,41-12.3c2.6-0.6,10.6-5,16.5-4.5c0,0,6.6-4.5,13.9-3.4l-20.5,1.1L282.1,249.5z"/>
<polygon class="st5" points="272.2,252.3 279.3,266 322.2,253.1 325.5,245.8 314.3,244.1 291.7,247.5 281.9,249.7 "/>
<polygon class="st4" points="272.2,252.3 279.3,266 322.2,253.1 325.5,245.8 314.3,244.1 291.7,247.5 281.9,249.7 "/>
<path class="st5" d="M180.8,268.8c0,0,12.6,13.5,27.1,16.8c14.5,3.4,22.5-1.1,22.5-1.1l-4.6-15.7l-2-10.1l-8.6-5L198,247l-20.5-5.6
	c0,0-8.6-1.1-8.6,0s7.9,17.9,7.9,17.9L180.8,268.8z"/>
<path class="st8" d="M196,276.1c0,0,2.6,16.3,5.9,17.4c3.3,1.1,13.2-1.1,15.9-2.2s11.6-6.3,11.6-6.3S198,274.9,196,276.1z"/>
<polygon class="st6" points="256.1,277.7 268.7,279.4 267.4,292.3 249.8,288.7 "/>
<path class="st8" d="M264,281.3c0,0-5.9,5.9,0.1,9.3l4,2.8c0,0,13.2,2.2,14.5,3.4c1.3,1.1,6.6-1.7,6.6-1.7s0.7-16.8,0-17.9
	s-8.6-2.2-9.3-1.1c-0.7,1.1-8.6,2.8-13.2,1.7L264,281.3z"/>
<path class="st5" d="M211.2,251.4c0,0-46.3-23-53.5-14.6c-7.3,8.4-15.2,20.2,5.9,29.1s87.2,27.5,87.2,27.5s9.9-12.9,9.9-16.3
	c0,0-35-13.5-41-14.6s-29.7-14-33-15.1s-7.9-4.5-7.9-4.5L211.2,251.4z"/>
<path class="st2" d="M198,181.9l-2.6,1.7c0,0-5.9,12.9-6.6,20.2c-0.7,7.3-8.6,29.7-7.9,32.5s1.3,5,5.3,7.8c0,0,5.3-10.1,14.5-8.4
	l11.2-34.7L198,181.9z"/>
<path class="st2" d="M290.5,181.9l5.3,5c0,0,3.3,6.7,3.3,8.4s6.6,26.3,7.3,27.5c0.7,1.1,3.3,15.1,0,18.5s-9.3,5.6-9.3,5.6
	s4-11.8-8.6-12.3l1.3-4.5l-11.9-33.6L290.5,181.9z"/>
<path class="st1" d="M199.3,220.5V250c0,3.9,3.7,7,8.2,7.1l72.8,0.9c4.5,0.1,8.3-3,8.5-6.8l1.3-29.5c0.2-3.9-3.4-7.2-8-7.4
	c-0.1,0-0.1,0-0.2,0l-74.1-0.9C203.2,213.3,199.4,216.5,199.3,220.5C199.3,220.4,199.3,220.4,199.3,220.5z"/>
<ellipse class="st5" cx="247.8" cy="141.5" rx="22.8" ry="10.4"/>
<ellipse class="st8" cx="243.9" cy="236" rx="5.3" ry="4.5"/>
<path class="st5" d="M387.8,235.1v51.2c0,0.9-0.6,1-1.5,1.4c-3.1,1.4-10.6,4-19.7-0.1c-0.9-0.4-1.5-0.6-1.5-1.4v-50.8
	C365.2,235.4,376.7,239.3,387.8,235.1z"/>
<ellipse class="st9" cx="376.5" cy="235" rx="11.3" ry="2"/>
<g class="st10">
	<ellipse cx="386.8" cy="256.3" rx="0.3" ry="0.2"/>
	<ellipse cx="385.5" cy="256.6" rx="0.3" ry="0.2"/>
	<ellipse cx="383.9" cy="257.1" rx="0.3" ry="0.2"/>
	<ellipse cx="381" cy="257.6" rx="0.3" ry="0.2"/>
	<ellipse cx="378" cy="257.9" rx="0.3" ry="0.2"/>
	<ellipse cx="374.9" cy="258" rx="0.3" ry="0.2"/>
	<ellipse cx="370.4" cy="257.5" rx="0.3" ry="0.2"/>
	<ellipse cx="371.9" cy="257.8" rx="0.3" ry="0.2"/>
	<ellipse cx="367.7" cy="257.1" rx="0.3" ry="0.2"/>
	<ellipse cx="369" cy="257.3" rx="0.3" ry="0.2"/>
	<ellipse cx="366.2" cy="256.6" rx="0.3" ry="0.2"/>
	<ellipse cx="382.4" cy="257.4" rx="0.3" ry="0.2"/>
	<ellipse cx="379.5" cy="257.8" rx="0.3" ry="0.2"/>
	<ellipse cx="376.3" cy="258" rx="0.3" ry="0.2"/>
	<ellipse cx="373.4" cy="258" rx="0.3" ry="0.2"/>
</g>
<g class="st10">
	<ellipse cx="386.8" cy="257.4" rx="0.3" ry="0.2"/>
	<ellipse cx="385.5" cy="257.7" rx="0.3" ry="0.2"/>
	<ellipse cx="383.9" cy="258.1" rx="0.3" ry="0.2"/>
	<ellipse cx="381" cy="258.6" rx="0.3" ry="0.2"/>
	<ellipse cx="378" cy="259" rx="0.3" ry="0.2"/>
	<ellipse cx="374.9" cy="259.1" rx="0.3" ry="0.2"/>
	<ellipse cx="370.4" cy="258.6" rx="0.3" ry="0.2"/>
	<ellipse cx="371.9" cy="258.9" rx="0.3" ry="0.2"/>
	<ellipse cx="367.7" cy="258.1" rx="0.3" ry="0.2"/>
	<ellipse cx="369" cy="258.3" rx="0.3" ry="0.2"/>
	<ellipse cx="366.2" cy="257.7" rx="0.3" ry="0.2"/>
	<ellipse cx="382.4" cy="258.4" rx="0.3" ry="0.2"/>
	<ellipse cx="379.5" cy="258.9" rx="0.3" ry="0.2"/>
	<ellipse cx="376.3" cy="259.1" rx="0.3" ry="0.2"/>
	<ellipse cx="373.4" cy="259.1" rx="0.3" ry="0.2"/>
</g>
<g class="st10">
	<ellipse cx="386.8" cy="258.5" rx="0.3" ry="0.2"/>
	<ellipse cx="385.5" cy="258.8" rx="0.3" ry="0.2"/>
	<ellipse cx="383.9" cy="259.2" rx="0.3" ry="0.2"/>
	<ellipse cx="381" cy="259.7" rx="0.3" ry="0.2"/>
	<ellipse cx="378" cy="260" rx="0.3" ry="0.2"/>
	<ellipse cx="374.9" cy="260.1" rx="0.3" ry="0.2"/>
	<ellipse cx="370.4" cy="259.6" rx="0.3" ry="0.2"/>
	<ellipse cx="371.9" cy="259.9" rx="0.3" ry="0.2"/>
	<ellipse cx="367.7" cy="259.2" rx="0.3" ry="0.2"/>
	<ellipse cx="369" cy="259.4" rx="0.3" ry="0.2"/>
	<ellipse cx="366.2" cy="258.8" rx="0.3" ry="0.2"/>
	<ellipse cx="382.4" cy="259.5" rx="0.3" ry="0.2"/>
	<ellipse cx="379.5" cy="259.9" rx="0.3" ry="0.2"/>
	<ellipse cx="376.3" cy="260.1" rx="0.3" ry="0.2"/>
	<ellipse cx="373.4" cy="260.1" rx="0.3" ry="0.2"/>
</g>
<g class="st10">
	<ellipse cx="386.8" cy="259.5" rx="0.3" ry="0.2"/>
	<ellipse cx="385.5" cy="259.8" rx="0.3" ry="0.2"/>
	<ellipse cx="383.9" cy="260.2" rx="0.3" ry="0.2"/>
	<ellipse cx="381" cy="260.8" rx="0.3" ry="0.2"/>
	<ellipse cx="378" cy="261.1" rx="0.3" ry="0.2"/>
	<ellipse cx="374.9" cy="261.2" rx="0.3" ry="0.2"/>
	<ellipse cx="370.4" cy="260.7" rx="0.3" ry="0.2"/>
	<ellipse cx="371.9" cy="261" rx="0.3" ry="0.2"/>
	<ellipse cx="367.7" cy="260.2" rx="0.3" ry="0.2"/>
	<ellipse cx="369" cy="260.5" rx="0.3" ry="0.2"/>
	<ellipse cx="366.2" cy="259.8" rx="0.3" ry="0.2"/>
	<ellipse cx="382.4" cy="260.6" rx="0.3" ry="0.2"/>
	<ellipse cx="379.5" cy="261" rx="0.3" ry="0.2"/>
	<ellipse cx="376.3" cy="261.2" rx="0.3" ry="0.2"/>
	<ellipse cx="373.4" cy="261.2" rx="0.3" ry="0.2"/>
</g>
<g class="st10">
	<ellipse cx="386.8" cy="260.6" rx="0.3" ry="0.2"/>
	<ellipse cx="385.5" cy="260.9" rx="0.3" ry="0.2"/>
	<ellipse cx="383.9" cy="261.3" rx="0.3" ry="0.2"/>
	<ellipse cx="381" cy="261.8" rx="0.3" ry="0.2"/>
	<ellipse cx="378" cy="262.1" rx="0.3" ry="0.2"/>
	<ellipse cx="374.9" cy="262.3" rx="0.3" ry="0.2"/>
	<ellipse cx="370.4" cy="261.7" rx="0.3" ry="0.2"/>
	<ellipse cx="371.9" cy="262" rx="0.3" ry="0.2"/>
	<ellipse cx="367.7" cy="261.3" rx="0.3" ry="0.2"/>
	<ellipse cx="369" cy="261.5" rx="0.3" ry="0.2"/>
	<ellipse cx="366.2" cy="260.9" rx="0.3" ry="0.2"/>
	<ellipse cx="382.4" cy="261.6" rx="0.3" ry="0.2"/>
	<ellipse cx="379.5" cy="262" rx="0.3" ry="0.2"/>
	<ellipse cx="376.3" cy="262.3" rx="0.3" ry="0.2"/>
	<ellipse cx="373.4" cy="262.3" rx="0.3" ry="0.2"/>
</g>
<g class="st10">
	<ellipse cx="386.8" cy="261.6" rx="0.3" ry="0.2"/>
	<ellipse cx="385.5" cy="261.9" rx="0.3" ry="0.2"/>
	<ellipse cx="383.9" cy="262.4" rx="0.3" ry="0.2"/>
	<ellipse cx="381" cy="262.9" rx="0.3" ry="0.2"/>
	<ellipse cx="378" cy="263.2" rx="0.3" ry="0.2"/>
	<ellipse cx="374.9" cy="263.3" rx="0.3" ry="0.2"/>
	<ellipse cx="370.4" cy="262.8" rx="0.3" ry="0.2"/>
	<ellipse cx="371.9" cy="263.1" rx="0.3" ry="0.2"/>
	<ellipse cx="367.7" cy="262.4" rx="0.3" ry="0.2"/>
	<ellipse cx="369" cy="262.6" rx="0.3" ry="0.2"/>
	<ellipse cx="366.2" cy="261.9" rx="0.3" ry="0.2"/>
	<ellipse cx="382.4" cy="262.7" rx="0.3" ry="0.2"/>
	<ellipse cx="379.5" cy="263.1" rx="0.3" ry="0.2"/>
	<ellipse cx="376.3" cy="263.3" rx="0.3" ry="0.2"/>
	<ellipse cx="373.4" cy="263.3" rx="0.3" ry="0.2"/>
</g>
<g class="st10">
	<ellipse cx="386.8" cy="262.7" rx="0.3" ry="0.2"/>
	<ellipse cx="385.5" cy="263" rx="0.3" ry="0.2"/>
	<ellipse cx="383.9" cy="263.4" rx="0.3" ry="0.2"/>
	<ellipse cx="381" cy="263.9" rx="0.3" ry="0.2"/>
	<ellipse cx="378" cy="264.3" rx="0.3" ry="0.2"/>
	<ellipse cx="374.9" cy="264.4" rx="0.3" ry="0.2"/>
	<ellipse cx="370.4" cy="263.9" rx="0.3" ry="0.2"/>
	<ellipse cx="371.9" cy="264.2" rx="0.3" ry="0.2"/>
	<ellipse cx="367.7" cy="263.4" rx="0.3" ry="0.2"/>
	<ellipse cx="369" cy="263.6" rx="0.3" ry="0.2"/>
	<ellipse cx="366.2" cy="263" rx="0.3" ry="0.2"/>
	<ellipse cx="382.4" cy="263.7" rx="0.3" ry="0.2"/>
	<ellipse cx="379.5" cy="264.2" rx="0.3" ry="0.2"/>
	<ellipse cx="376.3" cy="264.4" rx="0.3" ry="0.2"/>
	<ellipse cx="373.4" cy="264.4" rx="0.3" ry="0.2"/>
</g>
<g class="st10">
	<ellipse cx="386.8" cy="263.7" rx="0.3" ry="0.2"/>
	<ellipse cx="385.5" cy="264.1" rx="0.3" ry="0.2"/>
	<ellipse cx="383.9" cy="264.5" rx="0.3" ry="0.2"/>
	<ellipse cx="381" cy="265" rx="0.3" ry="0.2"/>
	<ellipse cx="378" cy="265.3" rx="0.3" ry="0.2"/>
	<ellipse cx="374.9" cy="265.4" rx="0.3" ry="0.2"/>
	<ellipse cx="370.4" cy="264.9" rx="0.3" ry="0.2"/>
	<ellipse cx="371.9" cy="265.2" rx="0.3" ry="0.2"/>
	<ellipse cx="367.7" cy="264.5" rx="0.3" ry="0.2"/>
	<ellipse cx="369" cy="264.7" rx="0.3" ry="0.2"/>
	<ellipse cx="366.2" cy="264.1" rx="0.3" ry="0.2"/>
	<ellipse cx="382.4" cy="264.8" rx="0.3" ry="0.2"/>
	<ellipse cx="379.5" cy="265.2" rx="0.3" ry="0.2"/>
	<ellipse cx="376.3" cy="265.4" rx="0.3" ry="0.2"/>
	<ellipse cx="373.4" cy="265.4" rx="0.3" ry="0.2"/>
</g>
<g class="st10">
	<ellipse cx="386.8" cy="264.8" rx="0.3" ry="0.2"/>
	<ellipse cx="385.5" cy="265.1" rx="0.3" ry="0.2"/>
	<ellipse cx="383.9" cy="265.5" rx="0.3" ry="0.2"/>
	<ellipse cx="381" cy="266.1" rx="0.3" ry="0.2"/>
	<ellipse cx="378" cy="266.4" rx="0.3" ry="0.2"/>
	<ellipse cx="374.9" cy="266.5" rx="0.3" ry="0.2"/>
	<ellipse cx="370.4" cy="266" rx="0.3" ry="0.2"/>
	<ellipse cx="371.9" cy="266.3" rx="0.3" ry="0.2"/>
	<ellipse cx="367.7" cy="265.5" rx="0.3" ry="0.2"/>
	<ellipse cx="369" cy="265.8" rx="0.3" ry="0.2"/>
	<ellipse cx="366.2" cy="265.1" rx="0.3" ry="0.2"/>
	<ellipse cx="382.4" cy="265.8" rx="0.3" ry="0.2"/>
	<ellipse cx="379.5" cy="266.3" rx="0.3" ry="0.2"/>
	<ellipse cx="376.3" cy="266.5" rx="0.3" ry="0.2"/>
	<ellipse cx="373.4" cy="266.5" rx="0.3" ry="0.2"/>
</g>
<g class="st10">
	<ellipse cx="386.8" cy="265.9" rx="0.3" ry="0.2"/>
	<ellipse cx="385.5" cy="266.2" rx="0.3" ry="0.2"/>
	<ellipse cx="383.9" cy="266.6" rx="0.3" ry="0.2"/>
	<ellipse cx="381" cy="267.1" rx="0.3" ry="0.2"/>
	<ellipse cx="378" cy="267.4" rx="0.3" ry="0.2"/>
	<ellipse cx="374.9" cy="267.6" rx="0.3" ry="0.2"/>
	<ellipse cx="370.4" cy="267" rx="0.3" ry="0.2"/>
	<ellipse cx="371.9" cy="267.3" rx="0.3" ry="0.2"/>
	<ellipse cx="367.7" cy="266.6" rx="0.3" ry="0.2"/>
	<ellipse cx="369" cy="266.8" rx="0.3" ry="0.2"/>
	<ellipse cx="366.2" cy="266.2" rx="0.3" ry="0.2"/>
	<ellipse cx="382.4" cy="266.9" rx="0.3" ry="0.2"/>
	<ellipse cx="379.5" cy="267.3" rx="0.3" ry="0.2"/>
	<ellipse cx="376.3" cy="267.6" rx="0.3" ry="0.2"/>
	<ellipse cx="373.4" cy="267.6" rx="0.3" ry="0.2"/>
</g>
<g class="st10">
	<ellipse cx="386.8" cy="266.9" rx="0.3" ry="0.2"/>
	<ellipse cx="385.5" cy="267.2" rx="0.3" ry="0.2"/>
	<ellipse cx="383.9" cy="267.7" rx="0.3" ry="0.2"/>
	<ellipse cx="381" cy="268.2" rx="0.3" ry="0.2"/>
	<ellipse cx="378" cy="268.5" rx="0.3" ry="0.2"/>
	<ellipse cx="374.9" cy="268.6" rx="0.3" ry="0.2"/>
	<ellipse cx="370.4" cy="268.1" rx="0.3" ry="0.2"/>
	<ellipse cx="371.9" cy="268.4" rx="0.3" ry="0.2"/>
	<ellipse cx="367.7" cy="267.7" rx="0.3" ry="0.2"/>
	<ellipse cx="369" cy="267.9" rx="0.3" ry="0.2"/>
	<ellipse cx="366.2" cy="267.2" rx="0.3" ry="0.2"/>
	<ellipse cx="382.4" cy="268" rx="0.3" ry="0.2"/>
	<ellipse cx="379.5" cy="268.4" rx="0.3" ry="0.2"/>
	<ellipse cx="376.3" cy="268.6" rx="0.3" ry="0.2"/>
	<ellipse cx="373.4" cy="268.6" rx="0.3" ry="0.2"/>
</g>
<g class="st10">
	<ellipse cx="386.8" cy="268" rx="0.3" ry="0.2"/>
	<ellipse cx="385.5" cy="268.3" rx="0.3" ry="0.2"/>
	<ellipse cx="383.9" cy="268.7" rx="0.3" ry="0.2"/>
	<ellipse cx="381" cy="269.2" rx="0.3" ry="0.2"/>
	<ellipse cx="378" cy="269.6" rx="0.3" ry="0.2"/>
	<ellipse cx="374.9" cy="269.7" rx="0.3" ry="0.2"/>
	<ellipse cx="370.4" cy="269.2" rx="0.3" ry="0.2"/>
	<ellipse cx="371.9" cy="269.5" rx="0.3" ry="0.2"/>
	<ellipse cx="367.7" cy="268.7" rx="0.3" ry="0.2"/>
	<ellipse cx="369" cy="268.9" rx="0.3" ry="0.2"/>
	<ellipse cx="366.2" cy="268.3" rx="0.3" ry="0.2"/>
	<ellipse cx="382.4" cy="269" rx="0.3" ry="0.2"/>
	<ellipse cx="379.5" cy="269.5" rx="0.3" ry="0.2"/>
	<ellipse cx="376.3" cy="269.7" rx="0.3" ry="0.2"/>
	<ellipse cx="373.4" cy="269.7" rx="0.3" ry="0.2"/>
</g>
<g class="st10">
	<ellipse cx="386.8" cy="269" rx="0.3" ry="0.2"/>
	<ellipse cx="385.5" cy="269.4" rx="0.3" ry="0.2"/>
	<ellipse cx="383.9" cy="269.8" rx="0.3" ry="0.2"/>
	<ellipse cx="381" cy="270.3" rx="0.3" ry="0.2"/>
	<ellipse cx="378" cy="270.6" rx="0.3" ry="0.2"/>
	<ellipse cx="374.9" cy="270.7" rx="0.3" ry="0.2"/>
	<ellipse cx="370.4" cy="270.2" rx="0.3" ry="0.2"/>
	<ellipse cx="371.9" cy="270.5" rx="0.3" ry="0.2"/>
	<ellipse cx="367.7" cy="269.8" rx="0.3" ry="0.2"/>
	<ellipse cx="369" cy="270" rx="0.3" ry="0.2"/>
	<ellipse cx="366.2" cy="269.4" rx="0.3" ry="0.2"/>
	<ellipse cx="382.4" cy="270.1" rx="0.3" ry="0.2"/>
	<ellipse cx="379.5" cy="270.5" rx="0.3" ry="0.2"/>
	<ellipse cx="376.3" cy="270.7" rx="0.3" ry="0.2"/>
	<ellipse cx="373.4" cy="270.7" rx="0.3" ry="0.2"/>
</g>
<g class="st10">
	<ellipse cx="386.8" cy="270.1" rx="0.3" ry="0.2"/>
	<ellipse cx="385.5" cy="270.4" rx="0.3" ry="0.2"/>
	<ellipse cx="383.9" cy="270.8" rx="0.3" ry="0.2"/>
	<ellipse cx="381" cy="271.4" rx="0.3" ry="0.2"/>
	<ellipse cx="378" cy="271.7" rx="0.3" ry="0.2"/>
	<ellipse cx="374.9" cy="271.8" rx="0.3" ry="0.2"/>
	<ellipse cx="370.4" cy="271.3" rx="0.3" ry="0.2"/>
	<ellipse cx="371.9" cy="271.6" rx="0.3" ry="0.2"/>
	<ellipse cx="367.7" cy="270.8" rx="0.3" ry="0.2"/>
	<ellipse cx="369" cy="271.1" rx="0.3" ry="0.2"/>
	<ellipse cx="366.2" cy="270.4" rx="0.3" ry="0.2"/>
	<ellipse cx="382.4" cy="271.1" rx="0.3" ry="0.2"/>
	<ellipse cx="379.5" cy="271.6" rx="0.3" ry="0.2"/>
	<ellipse cx="376.3" cy="271.8" rx="0.3" ry="0.2"/>
	<ellipse cx="373.4" cy="271.8" rx="0.3" ry="0.2"/>
</g>
<g class="st10">
	<ellipse cx="386.8" cy="271.2" rx="0.3" ry="0.2"/>
	<ellipse cx="385.5" cy="271.5" rx="0.3" ry="0.2"/>
	<ellipse cx="383.9" cy="271.9" rx="0.3" ry="0.2"/>
	<ellipse cx="381" cy="272.4" rx="0.3" ry="0.2"/>
	<ellipse cx="378" cy="272.7" rx="0.3" ry="0.2"/>
	<ellipse cx="374.9" cy="272.9" rx="0.3" ry="0.2"/>
	<ellipse cx="370.4" cy="272.3" rx="0.3" ry="0.2"/>
	<ellipse cx="371.9" cy="272.6" rx="0.3" ry="0.2"/>
	<ellipse cx="367.7" cy="271.9" rx="0.3" ry="0.2"/>
	<ellipse cx="369" cy="272.1" rx="0.3" ry="0.2"/>
	<ellipse cx="366.2" cy="271.5" rx="0.3" ry="0.2"/>
	<ellipse cx="382.4" cy="272.2" rx="0.3" ry="0.2"/>
	<ellipse cx="379.5" cy="272.6" rx="0.3" ry="0.2"/>
	<ellipse cx="376.3" cy="272.9" rx="0.3" ry="0.2"/>
	<ellipse cx="373.4" cy="272.9" rx="0.3" ry="0.2"/>
</g>
<g class="st10">
	<ellipse cx="386.8" cy="272.2" rx="0.3" ry="0.2"/>
	<ellipse cx="385.5" cy="272.5" rx="0.3" ry="0.2"/>
	<ellipse cx="383.9" cy="273" rx="0.3" ry="0.2"/>
	<ellipse cx="381" cy="273.5" rx="0.3" ry="0.2"/>
	<ellipse cx="378" cy="273.8" rx="0.3" ry="0.2"/>
	<ellipse cx="374.9" cy="273.9" rx="0.3" ry="0.2"/>
	<ellipse cx="370.4" cy="273.4" rx="0.3" ry="0.2"/>
	<ellipse cx="371.9" cy="273.7" rx="0.3" ry="0.2"/>
	<ellipse cx="367.7" cy="273" rx="0.3" ry="0.2"/>
	<ellipse cx="369" cy="273.2" rx="0.3" ry="0.2"/>
	<ellipse cx="366.2" cy="272.5" rx="0.3" ry="0.2"/>
	<ellipse cx="382.4" cy="273.3" rx="0.3" ry="0.2"/>
	<ellipse cx="379.5" cy="273.7" rx="0.3" ry="0.2"/>
	<ellipse cx="376.3" cy="273.9" rx="0.3" ry="0.2"/>
	<ellipse cx="373.4" cy="273.9" rx="0.3" ry="0.2"/>
</g>
<g class="st10">
	<ellipse cx="386.8" cy="273.3" rx="0.3" ry="0.2"/>
	<ellipse cx="385.5" cy="273.6" rx="0.3" ry="0.2"/>
	<ellipse cx="383.9" cy="274" rx="0.3" ry="0.2"/>
	<ellipse cx="381" cy="274.5" rx="0.3" ry="0.2"/>
	<ellipse cx="378" cy="274.8" rx="0.3" ry="0.2"/>
	<ellipse cx="374.9" cy="275" rx="0.3" ry="0.2"/>
	<ellipse cx="370.4" cy="274.4" rx="0.3" ry="0.2"/>
	<ellipse cx="371.9" cy="274.8" rx="0.3" ry="0.2"/>
	<ellipse cx="367.7" cy="274" rx="0.3" ry="0.2"/>
	<ellipse cx="369" cy="274.2" rx="0.3" ry="0.2"/>
	<ellipse cx="366.2" cy="273.6" rx="0.3" ry="0.2"/>
	<ellipse cx="382.4" cy="274.3" rx="0.3" ry="0.2"/>
	<ellipse cx="379.5" cy="274.8" rx="0.3" ry="0.2"/>
	<ellipse cx="376.3" cy="275" rx="0.3" ry="0.2"/>
	<ellipse cx="373.4" cy="275" rx="0.3" ry="0.2"/>
</g>
<g class="st10">
	<ellipse cx="386.8" cy="274.3" rx="0.3" ry="0.2"/>
	<ellipse cx="385.5" cy="274.6" rx="0.3" ry="0.2"/>
	<ellipse cx="383.9" cy="275.1" rx="0.3" ry="0.2"/>
	<ellipse cx="381" cy="275.6" rx="0.3" ry="0.2"/>
	<ellipse cx="378" cy="275.9" rx="0.3" ry="0.2"/>
	<ellipse cx="374.9" cy="276" rx="0.3" ry="0.2"/>
	<ellipse cx="370.4" cy="275.5" rx="0.3" ry="0.2"/>
	<ellipse cx="371.9" cy="275.8" rx="0.3" ry="0.2"/>
	<ellipse cx="367.7" cy="275.1" rx="0.3" ry="0.2"/>
	<ellipse cx="369" cy="275.3" rx="0.3" ry="0.2"/>
	<ellipse cx="366.2" cy="274.6" rx="0.3" ry="0.2"/>
	<ellipse cx="382.4" cy="275.4" rx="0.3" ry="0.2"/>
	<ellipse cx="379.5" cy="275.8" rx="0.3" ry="0.2"/>
	<ellipse cx="376.3" cy="276" rx="0.3" ry="0.2"/>
	<ellipse cx="373.4" cy="276" rx="0.3" ry="0.2"/>
</g>
<g class="st10">
	<ellipse cx="386.8" cy="275.4" rx="0.3" ry="0.2"/>
	<ellipse cx="385.5" cy="275.7" rx="0.3" ry="0.2"/>
	<ellipse cx="383.9" cy="276.1" rx="0.3" ry="0.2"/>
	<ellipse cx="381" cy="276.7" rx="0.3" ry="0.2"/>
	<ellipse cx="378" cy="277" rx="0.3" ry="0.2"/>
	<ellipse cx="374.9" cy="277.1" rx="0.3" ry="0.2"/>
	<ellipse cx="370.4" cy="276.6" rx="0.3" ry="0.2"/>
	<ellipse cx="371.9" cy="276.9" rx="0.3" ry="0.2"/>
	<ellipse cx="367.7" cy="276.1" rx="0.3" ry="0.2"/>
	<ellipse cx="369" cy="276.4" rx="0.3" ry="0.2"/>
	<ellipse cx="366.2" cy="275.7" rx="0.3" ry="0.2"/>
	<ellipse cx="382.4" cy="276.4" rx="0.3" ry="0.2"/>
	<ellipse cx="379.5" cy="276.9" rx="0.3" ry="0.2"/>
	<ellipse cx="376.3" cy="277.1" rx="0.3" ry="0.2"/>
	<ellipse cx="373.4" cy="277.1" rx="0.3" ry="0.2"/>
</g>
<g class="st10">
	<ellipse cx="386.8" cy="276.5" rx="0.3" ry="0.2"/>
	<ellipse cx="385.5" cy="276.8" rx="0.3" ry="0.2"/>
	<ellipse cx="383.9" cy="277.2" rx="0.3" ry="0.2"/>
	<ellipse cx="381" cy="277.7" rx="0.3" ry="0.2"/>
	<ellipse cx="378" cy="278" rx="0.3" ry="0.2"/>
	<ellipse cx="374.9" cy="278.1" rx="0.3" ry="0.2"/>
	<ellipse cx="370.4" cy="277.6" rx="0.3" ry="0.2"/>
	<ellipse cx="371.9" cy="277.9" rx="0.3" ry="0.2"/>
	<ellipse cx="367.7" cy="277.2" rx="0.3" ry="0.2"/>
	<ellipse cx="369" cy="277.4" rx="0.3" ry="0.2"/>
	<ellipse cx="366.2" cy="276.8" rx="0.3" ry="0.2"/>
	<ellipse cx="382.4" cy="277.5" rx="0.3" ry="0.2"/>
	<ellipse cx="379.5" cy="277.9" rx="0.3" ry="0.2"/>
	<ellipse cx="376.3" cy="278.1" rx="0.3" ry="0.2"/>
	<ellipse cx="373.4" cy="278.1" rx="0.3" ry="0.2"/>
</g>
<g class="st10">
	<ellipse cx="386.8" cy="277.5" rx="0.3" ry="0.2"/>
	<ellipse cx="385.5" cy="277.8" rx="0.3" ry="0.2"/>
	<ellipse cx="383.9" cy="278.3" rx="0.3" ry="0.2"/>
	<ellipse cx="381" cy="278.8" rx="0.3" ry="0.2"/>
	<ellipse cx="378" cy="279.1" rx="0.3" ry="0.2"/>
	<ellipse cx="374.9" cy="279.2" rx="0.3" ry="0.2"/>
	<ellipse cx="370.4" cy="278.7" rx="0.3" ry="0.2"/>
	<ellipse cx="371.9" cy="279" rx="0.3" ry="0.2"/>
	<ellipse cx="367.7" cy="278.3" rx="0.3" ry="0.2"/>
	<ellipse cx="369" cy="278.5" rx="0.3" ry="0.2"/>
	<ellipse cx="366.2" cy="277.8" rx="0.3" ry="0.2"/>
	<ellipse cx="382.4" cy="278.6" rx="0.3" ry="0.2"/>
	<ellipse cx="379.5" cy="279" rx="0.3" ry="0.2"/>
	<ellipse cx="376.3" cy="279.2" rx="0.3" ry="0.2"/>
	<ellipse cx="373.4" cy="279.2" rx="0.3" ry="0.2"/>
</g>
<g class="st10">
	<ellipse cx="386.8" cy="278.6" rx="0.3" ry="0.2"/>
	<ellipse cx="385.5" cy="278.9" rx="0.3" ry="0.2"/>
	<ellipse cx="383.9" cy="279.3" rx="0.3" ry="0.2"/>
	<ellipse cx="381" cy="279.8" rx="0.3" ry="0.2"/>
	<ellipse cx="378" cy="280.1" rx="0.3" ry="0.2"/>
	<ellipse cx="374.9" cy="280.3" rx="0.3" ry="0.2"/>
	<ellipse cx="370.4" cy="279.7" rx="0.3" ry="0.2"/>
	<ellipse cx="371.9" cy="280.1" rx="0.3" ry="0.2"/>
	<ellipse cx="367.7" cy="279.3" rx="0.3" ry="0.2"/>
	<ellipse cx="369" cy="279.5" rx="0.3" ry="0.2"/>
	<ellipse cx="366.2" cy="278.9" rx="0.3" ry="0.2"/>
	<ellipse cx="382.4" cy="279.6" rx="0.3" ry="0.2"/>
	<ellipse cx="379.5" cy="280.1" rx="0.3" ry="0.2"/>
	<ellipse cx="376.3" cy="280.3" rx="0.3" ry="0.2"/>
	<ellipse cx="373.4" cy="280.3" rx="0.3" ry="0.2"/>
</g>
<g class="st10">
	<ellipse cx="386.8" cy="279.6" rx="0.3" ry="0.2"/>
	<ellipse cx="385.5" cy="279.9" rx="0.3" ry="0.2"/>
	<ellipse cx="383.9" cy="280.4" rx="0.3" ry="0.2"/>
	<ellipse cx="381" cy="280.9" rx="0.3" ry="0.2"/>
	<ellipse cx="378" cy="281.2" rx="0.3" ry="0.2"/>
	<ellipse cx="374.9" cy="281.3" rx="0.3" ry="0.2"/>
	<ellipse cx="370.4" cy="280.8" rx="0.3" ry="0.2"/>
	<ellipse cx="371.9" cy="281.1" rx="0.3" ry="0.2"/>
	<ellipse cx="367.7" cy="280.4" rx="0.3" ry="0.2"/>
	<ellipse cx="369" cy="280.6" rx="0.3" ry="0.2"/>
	<ellipse cx="366.2" cy="279.9" rx="0.3" ry="0.2"/>
	<ellipse cx="382.4" cy="280.7" rx="0.3" ry="0.2"/>
	<ellipse cx="379.5" cy="281.1" rx="0.3" ry="0.2"/>
	<ellipse cx="376.3" cy="281.3" rx="0.3" ry="0.2"/>
	<ellipse cx="373.4" cy="281.3" rx="0.3" ry="0.2"/>
</g>
<g class="st10">
	<ellipse cx="386.8" cy="280.7" rx="0.3" ry="0.2"/>
	<ellipse cx="385.5" cy="281" rx="0.3" ry="0.2"/>
	<ellipse cx="383.9" cy="281.4" rx="0.3" ry="0.2"/>
	<ellipse cx="381" cy="282" rx="0.3" ry="0.2"/>
	<ellipse cx="378" cy="282.3" rx="0.3" ry="0.2"/>
	<ellipse cx="374.9" cy="282.4" rx="0.3" ry="0.2"/>
	<ellipse cx="370.4" cy="281.9" rx="0.3" ry="0.2"/>
	<ellipse cx="371.9" cy="282.2" rx="0.3" ry="0.2"/>
	<ellipse cx="367.7" cy="281.4" rx="0.3" ry="0.2"/>
	<ellipse cx="369" cy="281.7" rx="0.3" ry="0.2"/>
	<ellipse cx="366.2" cy="281" rx="0.3" ry="0.2"/>
	<ellipse cx="382.4" cy="281.7" rx="0.3" ry="0.2"/>
	<ellipse cx="379.5" cy="282.2" rx="0.3" ry="0.2"/>
	<ellipse cx="376.3" cy="282.4" rx="0.3" ry="0.2"/>
	<ellipse cx="373.4" cy="282.4" rx="0.3" ry="0.2"/>
</g>
<g class="st11">
	<path class="st12" d="M358,120.3c0,0,14.2,2.4,18.6,18.3l-22.8-5c0,0-4.3-1-9.1,3.3c-1.5,1.9-3.1,3.9-2.8,8.7
		c-1.2-3.5-6.1-19-6.1-19S343.7,117.7,358,120.3L358,120.3z"/>
	<path class="st13" d="M370.9,160.9c0,0-9.3,11.1-25.1,7c2.7-3,15.8-17.2,15.8-17.2s3-3.1,1.7-9.6c-0.9-2.4-1.8-4.7-6.1-6.8
		c3.6,0.8,19.4,4.3,19.4,4.3S380.4,149.7,370.9,160.9z"/>
	<path class="st14" d="M329.3,151.8c0,0-5-13.6,6.6-25.2c1.2,3.8,7.1,22.2,7.1,22.2s1.2,4.3,7.4,6.2c2.5,0.3,4.9,0.8,8.9-1.8
		c-2.4,2.7-13.5,14.6-13.5,14.6S334.3,165.5,329.3,151.8L329.3,151.8z"/>
	<path class="st15" d="M345.7,167.9l6.2-12.7c2.6,0.2,5.2-0.6,7.2-2.1C356.7,156,345.7,167.9,345.7,167.9z"/>
	<path class="st16" d="M342,142.1c1.3-5.9,7.1-9.6,13-8.3c5.9,1.3,9.6,7.1,8.3,13c-1.3,5.9-7.1,9.6-13,8.3l0,0
		C344.3,153.8,340.7,147.9,342,142.1z"/>
	
		<linearGradient id="SVGID_1_" gradientUnits="userSpaceOnUse" x1="-1515.7968" y1="900.3611" x2="-1515.7968" y2="900.3398" gradientTransform="matrix(913.7801 132.872 132.872 -913.7801 1265826.125 1024273.625)">
		<stop  offset="0" style="stop-color:#86BBE5"/>
		<stop  offset="1" style="stop-color:#1072BA"/>
	</linearGradient>
	<path class="st17" d="M343.6,143.2c0.7-5,5.3-8.3,10.3-7.7c5,0.7,8.3,5.3,7.7,10.3c-0.7,5-5.3,8.3-10.3,7.7
		C346.3,152.7,342.9,148,343.6,143.2z"/>
	<path class="st18" d="M376.6,138.6l-14,1c-1.1-2.3-3.1-4.2-5.4-5.3C360.9,135.1,376.6,138.6,376.6,138.6L376.6,138.6z"/>
	<path class="st19" d="M341.8,145c-1.1-3.6-5.8-18.5-5.8-18.5l7.6,11.8c-1,1.4-1.6,3.1-1.7,4.9L341.8,145z"/>
</g>
<g class="st11">
	
		<linearGradient id="SVGID_2_" gradientUnits="userSpaceOnUse" x1="-1516.2743" y1="900.2322" x2="-1516.2743" y2="900.2542" gradientTransform="matrix(2346.4175 599.8557 599.8557 -2346.4175 3018020.75 3021928.75)">
		<stop  offset="0.25" style="stop-color:#DBDBDA"/>
		<stop  offset="1" style="stop-color:#FFFFFF"/>
	</linearGradient>
	<circle class="st20" cx="224.5" cy="34.6" r="25.9"/>
	
		<radialGradient id="SVGID_3_" cx="-1516.2532" cy="900.2625" r="1.458731e-02" gradientTransform="matrix(2170.4277 554.8643 554.8643 -2170.4277 2791626 2795301.25)" gradientUnits="userSpaceOnUse">
		<stop  offset="0" style="stop-color:#2ABCE1"/>
		<stop  offset="0.11" style="stop-color:#2ABBE1"/>
		<stop  offset="1" style="stop-color:#3375F8"/>
	</radialGradient>
	<circle class="st21" cx="224.5" cy="34.6" r="23.9"/>
	<path class="st0" d="M229,17.1c-0.2,0-0.3-0.2-0.3-0.3l1-4.1c0-0.2,0.2-0.3,0.4-0.2c0.2,0,0.3,0.2,0.2,0.4l-1,4.1
		C229.4,17,229.2,17.1,229,17.1L229,17.1z"/>
	<path class="st16" d="M229,17.1c-0.2,0-0.3-0.2-0.2-0.4l1-4.1c0-0.2,0.2-0.3,0.4-0.2c0.2,0,0.3,0.2,0.2,0.4l-1,4.1
		C229.4,17,229.2,17.1,229,17.1z M230.2,12.4c-0.2,0-0.3,0-0.3,0.2l-1,4.1c0,0.2,0.1,0.3,0.2,0.3l0,0c0.2,0,0.3,0,0.3-0.2l1-4.1
		C230.4,12.6,230.4,12.5,230.2,12.4z"/>
	<path class="st0" d="M231.5,15.4c-0.2,0-0.2-0.2-0.2-0.4l0.6-1.7c0-0.2,0.2-0.2,0.4-0.2c0.2,0,0.2,0.2,0.2,0.4l-0.6,1.7
		C231.9,15.3,231.7,15.4,231.5,15.4C231.6,15.4,231.6,15.4,231.5,15.4z"/>
	<path class="st16" d="M231.5,15.4c-0.2,0-0.3-0.2-0.2-0.4l0.6-1.7c0-0.2,0.2-0.3,0.4-0.2c0.2,0,0.3,0.2,0.2,0.4l-0.6,1.7
		C231.9,15.4,231.8,15.4,231.5,15.4C231.6,15.4,231.6,15.4,231.5,15.4z M232.4,13.1c-0.2,0-0.3,0-0.3,0.2l-0.6,1.7
		c0,0.2,0,0.3,0.2,0.3c0.2,0,0.3,0,0.3-0.2l0.6-1.7C232.6,13.2,232.5,13.1,232.4,13.1z"/>
	<path class="st0" d="M232.4,18.3c-0.2,0-0.2-0.2-0.2-0.4l1.8-3.8c0-0.2,0.2-0.2,0.4-0.2c0,0,0,0,0.1,0c0.2,0,0.2,0.2,0.2,0.4
		l-1.8,3.8C232.7,18.3,232.5,18.3,232.4,18.3L232.4,18.3z"/>
	<path class="st16" d="M232.4,18.3c-0.2,0-0.2-0.2-0.2-0.4l1.8-3.8c0-0.2,0.2-0.2,0.4-0.2c0.2,0,0.2,0.2,0.2,0.4l-1.8,3.8
		C232.7,18.3,232.6,18.4,232.4,18.3z M234.5,14c-0.2,0-0.3,0-0.4,0.1l-1.8,3.8c0,0.2,0,0.3,0.2,0.4c0.2,0,0.3,0,0.4-0.1l1.8-3.8
		C234.7,14.2,234.6,14,234.5,14L234.5,14z"/>
	<path class="st0" d="M235.2,17.1c-0.2,0-0.2-0.2-0.2-0.4l0,0l0,0L236,15c0-0.2,0.2-0.2,0.4-0.1l0,0c0.2,0,0.2,0.2,0.2,0.4l-0.9,1.7
		C235.5,17.2,235.4,17.2,235.2,17.1L235.2,17.1z"/>
	<path class="st16" d="M235.2,17.2c-0.2,0-0.2-0.2-0.2-0.4l0,0l0.9-1.7c0.1-0.1,0.2-0.2,0.4-0.2c0.2,0,0.2,0.2,0.2,0.4l0,0l-0.9,1.7
		C235.5,17.2,235.3,17.2,235.2,17.2C235.1,17.2,235.1,17.2,235.2,17.2L235.2,17.2z M236.5,15c-0.2,0-0.3-0.1-0.4,0.1l-0.9,1.7
		c0,0.2-0.1,0.2,0.1,0.4l0,0c0.2,0,0.3,0.1,0.4-0.1l0.9-1.7C236.6,15.2,236.5,15.1,236.5,15L236.5,15z"/>
	<path class="st0" d="M235.4,20.1c-0.1-0.1-0.2-0.3-0.1-0.4l0,0l2.5-3.4c0.1-0.1,0.3-0.2,0.4-0.1l0,0c0.1,0.1,0.2,0.3,0.1,0.4
		l-2.5,3.4C235.7,20.2,235.6,20.2,235.4,20.1L235.4,20.1z"/>
	<path class="st16" d="M235.4,20.2c-0.1-0.1-0.2-0.3-0.1-0.4l2.5-3.4c0.1-0.1,0.3-0.2,0.4-0.1c0.1,0.1,0.2,0.3,0.1,0.4l-2.5,3.4
		C235.8,20.3,235.6,20.2,235.4,20.2C235.5,20.2,235.4,20.2,235.4,20.2z M238.3,16.3c-0.1-0.1-0.3-0.1-0.4,0.1l-2.5,3.4
		c-0.1,0.1-0.1,0.2,0.1,0.4l0,0c0.1,0.1,0.3,0.1,0.4-0.1l0,0l2.5-3.4C238.5,16.5,238.4,16.4,238.3,16.3z"/>
	<path class="st0" d="M238.4,19.5c-0.1-0.1-0.1-0.3-0.1-0.4l1.2-1.4c0.1-0.1,0.3-0.1,0.4,0c0.1,0.1,0.1,0.3,0.1,0.4l-1.2,1.4
		C238.7,19.6,238.5,19.7,238.4,19.5L238.4,19.5z"/>
	<path class="st16" d="M238.4,19.5c-0.1-0.1-0.2-0.3-0.1-0.4l0,0l1.2-1.4c0.1-0.1,0.3-0.2,0.4-0.1c0.1,0.1,0.2,0.3,0.1,0.4
		c0,0,0,0,0,0.1l-1.2,1.4C238.7,19.6,238.5,19.7,238.4,19.5L238.4,19.5z M240,17.7c-0.1-0.1-0.3-0.1-0.3,0l0,0l-1.2,1.4
		c-0.1,0.1-0.1,0.2,0,0.3c0.1,0.1,0.3,0.1,0.3,0l0,0l1.2-1.4C240.1,18,240.1,17.8,240,17.7L240,17.7z"/>
	<path class="st0" d="M238.1,22.6c-0.1-0.1-0.1-0.3,0-0.4l0,0l3.1-2.8c0.1-0.1,0.3-0.1,0.4,0l0,0c0.1,0.1,0.1,0.3,0,0.4l0,0
		l-3.1,2.8C238.4,22.7,238.2,22.7,238.1,22.6L238.1,22.6z"/>
	<path class="st16" d="M238.1,22.6c-0.1-0.1-0.1-0.3,0-0.4l3.1-2.8c0.1-0.1,0.4-0.1,0.4,0l0,0c0.1,0.1,0.1,0.3,0,0.4l-3.1,2.8
		C238.4,22.7,238.1,22.7,238.1,22.6z M241.7,19.3c-0.1-0.1-0.2-0.1-0.4,0l-3.1,2.8c-0.1,0.1-0.1,0.2,0,0.3l0,0
		c0.1,0.1,0.2,0.1,0.4,0l3.1-2.8C241.7,19.6,241.7,19.5,241.7,19.3L241.7,19.3z"/>
	<path class="st0" d="M241.1,22.6c-0.1-0.1-0.1-0.3,0-0.4l1.5-1.2c0.1-0.1,0.3-0.1,0.4,0.1c0.1,0.1,0.1,0.3,0,0.4l-1.5,1.1
		C241.4,22.7,241.2,22.7,241.1,22.6L241.1,22.6z"/>
	<path class="st16" d="M241.1,22.6c-0.1-0.1-0.1-0.4,0-0.4l1.5-1.1c0.1-0.1,0.3-0.1,0.4,0l0,0c0.1,0.1,0.1,0.4,0,0.4l0,0l-1.5,1.2
		C241.4,22.7,241.2,22.7,241.1,22.6L241.1,22.6z M243,21.1c-0.1-0.1-0.2-0.1-0.3-0.1l0,0l-1.5,1.1c-0.1,0.1-0.1,0.2,0,0.3
		c0.1,0.1,0.2,0.1,0.3,0.1l0,0l1.5-1.1C243.1,21.4,243.2,21.2,243,21.1L243,21.1z"/>
	<path class="st0" d="M240.2,25.4c-0.1-0.1,0-0.3,0.1-0.4l0,0l3.6-2.1c0.1-0.1,0.3,0,0.4,0.1c0.1,0.1,0,0.3-0.1,0.4l-3.6,2.1
		C240.4,25.6,240.2,25.5,240.2,25.4L240.2,25.4z"/>
	<path class="st16" d="M240.1,25.4c-0.1-0.1,0-0.3,0.1-0.4l3.6-2.1c0.1-0.1,0.4-0.1,0.4,0.1c0.1,0.1,0.1,0.4-0.1,0.4l0,0l-3.7,2.2
		C240.4,25.7,240.2,25.6,240.1,25.4L240.1,25.4z M244.3,23c-0.1-0.1-0.2-0.1-0.4-0.1l-3.6,2.1c-0.1,0.1-0.1,0.2-0.1,0.4
		c0.1,0.1,0.2,0.1,0.3,0.1l3.7-2.2C244.3,23.3,244.3,23.1,244.3,23L244.3,23z"/>
	<path class="st0" d="M243.1,26c-0.1-0.1,0-0.3,0.1-0.4l0,0l1.7-0.8c0.2,0,0.3,0,0.4,0.2c0.1,0.1,0,0.3-0.1,0.3l-1.7,0.8
		C243.3,26.3,243.2,26.2,243.1,26L243.1,26z"/>
	<path class="st16" d="M243.1,26c0-0.2,0-0.3,0.1-0.4l1.7-0.9c0.2,0,0.3,0,0.4,0.1l0,0c0.1,0.1,0,0.3-0.1,0.4l-1.7,0.9
		C243.3,26.3,243.2,26.2,243.1,26L243.1,26L243.1,26z M245.3,24.9c-0.1-0.1-0.2-0.2-0.4-0.1l-1.7,0.8c-0.1,0.1-0.1,0.2-0.1,0.4
		c0.1,0.1,0.2,0.1,0.4,0.1l1.7-0.9C245.3,25.2,245.4,25,245.3,24.9L245.3,24.9L245.3,24.9z"/>
	<path class="st0" d="M241.6,28.7c-0.1-0.1,0-0.3,0.2-0.4l0,0l4-1.4c0.2,0,0.3,0,0.4,0.2c0.1,0.1,0,0.3-0.2,0.4l0,0l-4,1.4
		C241.8,28.9,241.7,28.8,241.6,28.7z"/>
	<path class="st16" d="M241.6,28.7c0-0.2,0-0.3,0.2-0.4l4-1.4c0.2,0,0.3,0,0.4,0.2l0,0c0,0.2,0,0.3-0.2,0.4l-4,1.4
		C241.9,28.9,241.6,28.8,241.6,28.7L241.6,28.7L241.6,28.7z M246.2,27.1c-0.1-0.1-0.2-0.2-0.3-0.2l-4,1.4c-0.2,0-0.2,0.2-0.2,0.4
		c0,0.2,0.2,0.2,0.4,0.2l4-1.4C246.2,27.4,246.2,27.2,246.2,27.1L246.2,27.1z"/>
	<path class="st0" d="M244.4,29.8c0-0.2,0.1-0.3,0.2-0.4l1.8-0.5c0.2,0,0.3,0.1,0.4,0.2c0,0.2-0.1,0.3-0.2,0.4l0,0l-1.8,0.5
		C244.6,30,244.5,30,244.4,29.8L244.4,29.8z"/>
	<path class="st16" d="M244.4,29.8c0-0.2,0.1-0.3,0.2-0.4l1.8-0.5c0.2,0,0.3,0.1,0.4,0.2c0,0.2-0.1,0.3-0.2,0.4l-1.8,0.5
		C244.6,30,244.5,30,244.4,29.8L244.4,29.8z M246.8,29.2c-0.1-0.1-0.2-0.2-0.3-0.2l0,0l-1.8,0.5c-0.1,0.1-0.2,0.2-0.2,0.3
		c0,0.2,0.2,0.2,0.3,0.2l0,0l1.8-0.5C246.8,29.5,246.8,29.3,246.8,29.2L246.8,29.2z"/>
	<path class="st0" d="M242.5,32.1c0-0.2,0.1-0.3,0.2-0.3l0,0l4.2-0.6c0.2,0,0.3,0.1,0.4,0.3c0,0.2-0.1,0.3-0.2,0.3l0,0l-4.2,0.6
		C242.6,32.4,242.5,32.3,242.5,32.1L242.5,32.1z"/>
	<path class="st16" d="M242.5,32.1c0-0.2,0.1-0.3,0.3-0.4l4.2-0.6c0.2,0,0.3,0.1,0.4,0.3l0,0c0,0.2-0.1,0.3-0.3,0.4l-4.2,0.6
		C242.6,32.4,242.5,32.3,242.5,32.1L242.5,32.1z M247.2,31.4c0-0.2-0.1-0.2-0.3-0.2l-4.2,0.6c-0.2,0-0.2,0.2-0.2,0.3
		c0,0.2,0.1,0.2,0.3,0.2l4.2-0.6C247.1,31.7,247.2,31.5,247.2,31.4L247.2,31.4L247.2,31.4z"/>
	<path class="st0" d="M245,33.7c0-0.2,0.1-0.3,0.2-0.3l0,0l1.8-0.1c0.2,0,0.3,0.1,0.3,0.2l0,0c0,0.2-0.1,0.3-0.3,0.4l0,0l-1.8,0.1
		C245.1,34.1,245,33.9,245,33.7L245,33.7z"/>
	<path class="st16" d="M245,33.7c0-0.2,0.1-0.3,0.3-0.4l0,0l1.8-0.1c0.2,0,0.3,0.1,0.4,0.3c0,0.2-0.1,0.3-0.3,0.4l0,0l-1.8,0.1
		C245.1,34.1,245,33.9,245,33.7z M247.4,33.6c0-0.2-0.1-0.3-0.3-0.2l-1.8,0.1c-0.2,0-0.3,0.1-0.2,0.3l0,0c0,0.2,0.1,0.3,0.3,0.2
		l1.8-0.1C247.3,33.9,247.4,33.8,247.4,33.6z"/>
	<path class="st0" d="M242.6,35.6c0-0.2,0.2-0.3,0.2-0.3l0,0l4.3,0.2c0.2,0,0.3,0.2,0.3,0.3l0,0c0,0.2-0.2,0.3-0.2,0.3l0,0l-4.2-0.2
		C242.8,35.9,242.6,35.8,242.6,35.6L242.6,35.6z"/>
	<path class="st16" d="M242.6,35.6c0-0.2,0.2-0.3,0.3-0.3l4.2,0.2c0.2,0,0.3,0.2,0.3,0.3l0,0c0,0.2-0.2,0.3-0.3,0.3l-4.2-0.2
		C242.7,35.9,242.5,35.8,242.6,35.6L242.6,35.6z M247.4,35.9c0-0.2-0.1-0.3-0.3-0.3l-4.3-0.2c-0.2,0-0.3,0.1-0.2,0.3l0,0
		c0,0.2,0.1,0.3,0.3,0.3l4.2,0.2C247.2,36.1,247.3,36.1,247.4,35.9z"/>
	<path class="st0" d="M244.7,37.7c0-0.2,0.2-0.3,0.3-0.3l0,0l1.8,0.2c0.2,0,0.3,0.2,0.3,0.3c0,0.2-0.2,0.3-0.3,0.3l0,0l-1.8-0.2
		C244.8,38.1,244.8,37.9,244.7,37.7L244.7,37.7z"/>
	<path class="st16" d="M244.7,37.7c0-0.2,0.2-0.3,0.3-0.3l0,0l1.8,0.2c0.2,0,0.3,0.2,0.3,0.3c0,0.2-0.2,0.3-0.3,0.3l-1.8-0.2
		C244.8,38.1,244.7,37.9,244.7,37.7L244.7,37.7z M247.1,38.1c0-0.2-0.1-0.3-0.3-0.3l-1.8-0.2c-0.2,0-0.3,0.1-0.3,0.3
		c0,0.2,0.1,0.3,0.3,0.3l1.8,0.2C247,38.3,247.1,38.3,247.1,38.1z"/>
	<path class="st0" d="M242,39.1c0-0.2,0.2-0.3,0.3-0.3l0,0l4.1,1c0.2,0,0.3,0.2,0.2,0.4c0,0.2-0.2,0.3-0.4,0.2l-4.1-1
		C242.1,39.4,242,39.3,242,39.1L242,39.1z"/>
	<path class="st16" d="M242,39.1c0-0.2,0.2-0.3,0.4-0.2l4.1,1c0.2,0,0.3,0.2,0.2,0.4c0,0.2-0.2,0.3-0.4,0.2l-4.1-1
		C242,39.5,242,39.3,242,39.1z M246.7,40.3c0-0.2,0-0.3-0.2-0.3l-4.1-1c-0.2,0-0.3,0.1-0.3,0.2l0,0c0,0.2,0,0.3,0.2,0.3l4.1,1
		C246.5,40.5,246.6,40.5,246.7,40.3z"/>
	<path class="st0" d="M243.7,41.6c0-0.2,0.2-0.2,0.4-0.2l1.7,0.6c0.2,0,0.2,0.2,0.2,0.4l0,0c0,0.2-0.2,0.2-0.4,0.2l-1.7-0.6
		C243.7,42,243.7,41.8,243.7,41.6z"/>
	<path class="st16" d="M243.7,41.6c0-0.2,0.2-0.3,0.4-0.2l1.7,0.6c0.2,0,0.3,0.2,0.2,0.4c0,0.2-0.2,0.3-0.4,0.2l-1.7-0.6
		C243.7,42,243.7,41.8,243.7,41.6z M246,42.4c0-0.2,0-0.3-0.2-0.3l0,0l-1.7-0.6c-0.2,0-0.3,0-0.3,0.2c0,0.2,0,0.3,0.2,0.3l0,0
		l1.7,0.6C245.9,42.6,246,42.6,246,42.4L246,42.4z"/>
	<path class="st0" d="M240.8,42.5c0-0.2,0.2-0.2,0.4-0.2l3.8,1.8c0.2,0,0.2,0.2,0.2,0.4l0,0c0,0.2-0.2,0.2-0.4,0.2l-3.8-1.8
		C240.9,42.7,240.8,42.6,240.8,42.5z"/>
	<path class="st16" d="M240.8,42.5c0-0.2,0.2-0.2,0.4-0.2l3.8,1.8c0.2,0,0.3,0.2,0.1,0.5s-0.2,0.3-0.5,0.1l0,0l-3.8-1.8
		C240.8,42.8,240.7,42.6,240.8,42.5L240.8,42.5z M245.2,44.5c0-0.2,0-0.3-0.1-0.4l-3.8-1.8c-0.2,0-0.3,0-0.4,0.2
		c0,0.2,0,0.3,0.1,0.4l3.8,1.8C244.9,44.7,245,44.6,245.2,44.5z"/>
	<path class="st0" d="M242,45.3c0-0.2,0.2-0.2,0.4-0.2l0,0l0,0l1.7,0.9c0.1,0.1,0.2,0.2,0.1,0.4l0,0c0,0.2-0.2,0.2-0.4,0.2l0,0l0,0
		l-1.7-0.9C241.9,45.6,241.9,45.4,242,45.3L242,45.3L242,45.3z"/>
	<path class="st16" d="M241.9,45.2c0-0.2,0.2-0.2,0.4-0.2L244,46c0.1,0.1,0.2,0.3,0.1,0.5c0,0.2-0.2,0.2-0.4,0.2l-1.7-0.9
		C241.9,45.6,241.9,45.4,241.9,45.2z M244.1,46.5c0-0.2,0.1-0.3-0.1-0.4l-1.7-0.9c-0.2,0-0.2-0.1-0.4,0.1l0,0c0,0.2-0.1,0.3,0.1,0.4
		l1.7,0.9C243.8,46.6,244,46.5,244.1,46.5z"/>
	<path class="st0" d="M239,45.4c0.1-0.1,0.3-0.2,0.4-0.1l3.4,2.5c0.1,0.1,0.2,0.3,0.1,0.4s-0.3,0.2-0.4,0.1l-3.4-2.5
		C239,45.8,238.9,45.6,239,45.4L239,45.4z"/>
	<path class="st16" d="M239,45.4c0.1-0.1,0.3-0.2,0.4-0.1l0,0l3.4,2.5c0.1,0.1,0.2,0.3,0.1,0.4s-0.3,0.2-0.4,0.1l-3.4-2.5
		C238.9,45.8,238.8,45.6,239,45.4z M242.8,48.3c0.1-0.1,0.1-0.3-0.1-0.4l0,0l-3.3-2.6c-0.1-0.1-0.2-0.1-0.4,0.1l0,0
		c-0.1,0.1-0.1,0.3,0.1,0.4l0,0l3.4,2.5C242.6,48.5,242.8,48.5,242.8,48.3L242.8,48.3z"/>
	<path class="st0" d="M239.6,48.4c0.1-0.1,0.3-0.1,0.4-0.1l1.4,1.2c0.1,0.1,0.1,0.3,0,0.4l0,0c-0.1,0.1-0.3,0.1-0.4,0.1l-1.4-1.2
		C239.5,48.8,239.4,48.6,239.6,48.4z"/>
	<path class="st16" d="M239.6,48.4c0.1-0.1,0.3-0.2,0.4-0.1l0,0l1.4,1.2c0.1,0.1,0.1,0.3,0,0.4c-0.1,0.1-0.3,0.1-0.4,0.1l-1.4-1.2
		C239.5,48.8,239.4,48.6,239.6,48.4L239.6,48.4z M241.4,50c0.1-0.1,0.1-0.2,0-0.3l0,0l-1.4-1.2c-0.1-0.1-0.2-0.1-0.3,0
		c-0.1,0.1-0.1,0.2,0,0.3l0,0l1.4,1.2C241.1,50.1,241.3,50.2,241.4,50L241.4,50z"/>
	<path class="st0" d="M236.6,48.1c0.1-0.1,0.3-0.1,0.4,0l0,0l2.8,3.1c0.1,0.1,0.1,0.3,0,0.4l0,0c-0.1,0.1-0.3,0.1-0.4,0l0,0
		l-2.8-3.1C236.5,48.3,236.5,48.2,236.6,48.1L236.6,48.1z"/>
	<path class="st16" d="M236.7,48c0.1-0.1,0.3-0.1,0.4,0l2.8,3.1c0.1,0.1,0.1,0.4,0,0.4c-0.1,0.1-0.3,0.1-0.4,0l-2.8-3.1
		C236.5,48.4,236.4,48.2,236.7,48C236.6,48,236.6,48,236.7,48z M239.8,51.6c0.1-0.1,0.1-0.2,0-0.4L237,48c-0.1-0.1-0.2-0.1-0.3,0
		l0,0c-0.1,0.1-0.1,0.2,0,0.4l2.8,3.1C239.5,51.7,239.7,51.7,239.8,51.6L239.8,51.6L239.8,51.6z"/>
	<path class="st0" d="M236.6,51.1c0.1-0.1,0.3-0.1,0.4,0l1.1,1.5c0.1,0.1,0.1,0.3,0,0.4c-0.1,0.1-0.3,0.1-0.4,0l-1.2-1.5
		C236.5,51.4,236.5,51.2,236.6,51.1z"/>
	<path class="st16" d="M236.6,51c0.1-0.1,0.4-0.1,0.4,0l1.1,1.5c0.1,0.1,0.2,0.3,0.1,0.4s-0.3,0.2-0.4,0.1l-0.1-0.1l-1.2-1.5
		C236.5,51.4,236.5,51.2,236.6,51z M238.1,53c0.1-0.1,0.1-0.2,0.1-0.3l0,0l-1.1-1.5c-0.1-0.1-0.2-0.1-0.4,0
		c-0.1,0.1-0.1,0.2-0.1,0.3l0,0l1.1,1.5C237.9,53.1,238,53.1,238.1,53z"/>
	<path class="st0" d="M233.8,50.1c0.1-0.1,0.3,0,0.3,0.1l0,0l2.2,3.6c0.1,0.1,0,0.3-0.1,0.4c-0.1,0.1-0.3,0-0.4-0.1l0,0l-2.2-3.7
		C233.5,50.4,233.6,50.3,233.8,50.1z"/>
	<path class="st16" d="M233.8,50.1c0.1-0.1,0.3,0,0.4,0.1l2.2,3.6c0.1,0.1,0,0.3-0.1,0.4c-0.1,0.1-0.3,0-0.4-0.1l-2.2-3.6
		C233.5,50.4,233.6,50.3,233.8,50.1C233.7,50.1,233.8,50.1,233.8,50.1z M236.2,54.2c0.1-0.1,0.1-0.2,0.1-0.4l-2.2-3.6
		c-0.1-0.1-0.2-0.1-0.4-0.1c-0.1,0.1-0.1,0.2-0.1,0.4l2.2,3.6C235.9,54.2,236.1,54.4,236.2,54.2L236.2,54.2z"/>
	<path class="st0" d="M233.2,53.1c0.1-0.1,0.3,0,0.4,0.1l0,0l0.9,1.7c0,0.2,0,0.3-0.2,0.4c-0.1,0.1-0.3,0-0.3-0.1l-0.9-1.7
		C233,53.4,233,53.1,233.2,53.1L233.2,53.1z"/>
	<path class="st16" d="M233.2,53.1c0.2,0,0.3,0,0.4,0.1l0.9,1.7c0.1,0.1,0,0.3-0.1,0.4l0,0c-0.1,0.1-0.4,0.1-0.4-0.1l0,0l-0.9-1.7
		C233,53.4,233,53.2,233.2,53.1L233.2,53.1z M234.3,55.3c0.1-0.1,0.1-0.2,0.1-0.3l-0.9-1.7c-0.1-0.1-0.2-0.1-0.4-0.1
		c-0.1,0.1-0.2,0.2-0.1,0.4l0.9,1.7C234,55.3,234.1,55.3,234.3,55.3L234.3,55.3z"/>
	<path class="st0" d="M230.5,51.7c0.1-0.1,0.3,0,0.4,0.2c0,0,0,0,0,0.1l1.4,4c0,0.2,0,0.3-0.2,0.4c-0.1,0.1-0.3,0-0.4-0.2l0,0
		l-1.4-4C230.3,51.9,230.4,51.7,230.5,51.7L230.5,51.7z"/>
	<path class="st16" d="M230.5,51.7c0.2,0,0.3,0,0.4,0.2l1.4,4c0,0.2,0,0.3-0.2,0.4l0,0c-0.2,0-0.3,0-0.4-0.2l-1.4-4
		C230.3,51.9,230.4,51.7,230.5,51.7L230.5,51.7z M232.2,56.1c0.1-0.1,0.2-0.2,0.2-0.3l0,0l-1.4-4c-0.1-0.1-0.2-0.2-0.4-0.2
		c-0.1,0.1-0.2,0.2-0.2,0.3l0,0l1.4,4C231.9,56.1,232,56.2,232.2,56.1L232.2,56.1z"/>
	<path class="st0" d="M229.4,54.5c0.2,0,0.3,0.1,0.4,0.2l0,0l0.5,1.8c0,0.2-0.1,0.3-0.2,0.4c-0.2,0-0.3-0.1-0.4-0.2l-0.5-1.8
		C229.2,54.7,229.2,54.5,229.4,54.5z"/>
	<path class="st16" d="M229.4,54.4c0.2,0,0.3,0,0.4,0.2l0.5,1.8c0,0.2-0.1,0.3-0.2,0.4l0,0c-0.2,0-0.3-0.1-0.4-0.2l-0.5-1.8
		C229.2,54.7,229.2,54.4,229.4,54.4L229.4,54.4z M230.1,56.8c0.2,0,0.2-0.2,0.2-0.3l-0.5-1.8c-0.1-0.1-0.2-0.2-0.3-0.2
		c-0.2,0-0.2,0.2-0.2,0.3l0.5,1.8C229.8,56.7,229.9,56.8,230.1,56.8C230,56.8,230.1,56.8,230.1,56.8z"/>
	<path class="st0" d="M227.1,52.5c0.2,0,0.3,0.1,0.4,0.3l0,0l0.6,4.2c0,0.2-0.1,0.3-0.3,0.4c-0.2,0-0.3-0.1-0.4-0.3l-0.6-4.2
		C226.8,52.7,226.9,52.5,227.1,52.5L227.1,52.5z"/>
	<path class="st16" d="M227.2,52.4c0.2,0,0.3,0.1,0.4,0.3l0.6,4.2c0,0.2-0.1,0.3-0.3,0.4l0,0c-0.2,0-0.3-0.1-0.4-0.3l-0.6-4.2
		C226.8,52.6,227,52.5,227.2,52.4L227.2,52.4z M227.8,57.2c0.2,0,0.2-0.1,0.2-0.3l0,0l-0.6-4.2c0-0.2-0.2-0.2-0.3-0.2
		c-0.2,0-0.2,0.1-0.2,0.3l0,0l0.6,4.2C227.5,57.1,227.7,57.2,227.8,57.2L227.8,57.2L227.8,57.2z"/>
	<path class="st0" d="M225.5,55c0.2,0,0.3,0.1,0.4,0.3l0,0l0.1,1.8c0,0.2-0.1,0.3-0.2,0.3l0,0c-0.2,0-0.3-0.1-0.3-0.2l-0.1-1.8
		C225.1,55.2,225.3,55.1,225.5,55L225.5,55L225.5,55z"/>
	<path class="st16" d="M225.5,55c0.2,0,0.3,0.1,0.4,0.3l0,0l0.1,1.8c0,0.2-0.1,0.3-0.3,0.4c-0.2,0-0.3-0.1-0.4-0.3l-0.1-1.8
		C225.1,55.2,225.3,55.1,225.5,55L225.5,55z M225.6,57.5c0.2,0,0.3-0.1,0.2-0.3l-0.1-1.8c0-0.2-0.1-0.3-0.3-0.2l0,0
		c-0.2,0-0.3,0.1-0.2,0.3l0.1,1.8C225.4,57.3,225.4,57.4,225.6,57.5L225.6,57.5L225.6,57.5L225.6,57.5z"/>
	<path class="st0" d="M223.6,52.7c0.2,0,0.3,0.2,0.3,0.2l0,0l-0.2,4.3c0,0.2-0.2,0.3-0.3,0.3l0,0c-0.2,0-0.3-0.2-0.3-0.2l0,0
		l0.2-4.3C223.4,52.8,223.5,52.6,223.6,52.7z"/>
	<path class="st16" d="M223.6,52.7c0.2,0,0.3,0.2,0.3,0.3l-0.2,4.3c0,0.2-0.2,0.3-0.3,0.3l0,0c-0.2,0-0.3-0.2-0.3-0.3l0.2-4.3
		C223.3,52.7,223.4,52.6,223.6,52.7C223.6,52.6,223.6,52.7,223.6,52.7L223.6,52.7z M223.4,57.4c0.2,0,0.3-0.1,0.3-0.3l0.2-4.3
		c0-0.2-0.1-0.3-0.3-0.2l0,0c-0.2,0-0.3,0.1-0.3,0.3l-0.2,4.3C223.1,57.3,223.2,57.4,223.4,57.4L223.4,57.4z"/>
	<path class="st0" d="M221.5,54.8c0.2,0,0.3,0.2,0.3,0.3l-0.2,1.8c0,0.2-0.2,0.3-0.3,0.3l0,0c-0.2,0-0.3-0.2-0.3-0.3l0.2-1.8
		C221.2,54.9,221.3,54.8,221.5,54.8z"/>
	<path class="st16" d="M221.5,54.8c0.2,0,0.3,0.2,0.3,0.3l0,0l-0.2,1.8c0,0.2-0.2,0.3-0.3,0.3c-0.2,0-0.3-0.2-0.3-0.3l0,0l0.2-1.8
		C221.2,54.9,221.3,54.7,221.5,54.8z M221.2,57.2c0.2,0,0.3-0.1,0.3-0.3l0.2-1.8c0-0.2-0.1-0.3-0.3-0.3c-0.2,0-0.3,0.1-0.3,0.3
		l-0.2,1.8C221,57.1,221,57.2,221.2,57.2L221.2,57.2z"/>
	<path class="st0" d="M220,52.1c0.2,0,0.3,0.2,0.3,0.3l-1,4.1c0,0.2-0.2,0.3-0.4,0.2s-0.3-0.2-0.2-0.4l0,0l1-4.1
		C219.7,52.2,219.8,52,220,52.1z"/>
	<path class="st16" d="M220,52.1c0.2,0,0.3,0.2,0.2,0.4l-1,4.1c0,0.2-0.2,0.3-0.4,0.2c-0.2,0-0.3-0.2-0.2-0.4l1-4.1
		C219.7,52.2,219.8,52,220,52.1z M218.8,56.7c0.2,0,0.3,0,0.3-0.2l1-4.1c0-0.2-0.1-0.3-0.2-0.3c-0.2,0-0.3,0-0.3,0.2l-1,4.1
		C218.6,56.5,218.7,56.7,218.8,56.7z"/>
	<path class="st0" d="M217.5,53.8c0.2,0,0.2,0.2,0.2,0.4l-0.6,1.7c0,0.2-0.2,0.2-0.4,0.2c-0.2,0-0.2-0.2-0.2-0.4l0.6-1.7
		C217.2,53.9,217.3,53.7,217.5,53.8z"/>
	<path class="st16" d="M217.5,53.8c0.2,0,0.3,0.2,0.2,0.4l-0.6,1.7c0,0.2-0.2,0.3-0.4,0.2c-0.2,0-0.3-0.2-0.2-0.4l0.6-1.7
		C217.1,53.8,217.3,53.7,217.5,53.8L217.5,53.8z M216.7,56.1c0.2,0,0.3,0,0.3-0.2l0.6-1.7c0-0.2,0-0.3-0.2-0.3c-0.2,0-0.3,0-0.3,0.2
		l-0.6,1.7C216.5,55.9,216.6,56,216.7,56.1z"/>
	<path class="st0" d="M216.7,50.9c0.2,0,0.2,0.2,0.2,0.4l-1.8,3.8c0,0.2-0.2,0.2-0.4,0.2l0,0c-0.2,0-0.2-0.2-0.2-0.4l1.8-3.8
		C216.4,50.9,216.5,50.8,216.7,50.9z"/>
	<path class="st16" d="M216.7,50.9c0.2,0,0.2,0.2,0.2,0.4l-1.8,3.8c-0.1,0.1-0.3,0.2-0.5,0.1c-0.1-0.1-0.2-0.2-0.2-0.4l1.8-3.8
		C216.3,50.9,216.5,50.8,216.7,50.9L216.7,50.9z M214.6,55.2c0.2,0,0.3,0,0.4-0.1l1.8-3.8c0-0.2,0-0.3-0.2-0.4c-0.2,0-0.3,0-0.4,0.2
		l0,0l-1.8,3.8C214.4,55,214.5,55.1,214.6,55.2z"/>
	<path class="st0" d="M213.9,52.1c0.2,0,0.2,0.2,0.2,0.4l-0.9,1.7c0,0.2-0.2,0.2-0.4,0.1l0,0c-0.2,0-0.2-0.2-0.2-0.4l0,0l0.9-1.7
		C213.5,52,213.7,51.9,213.9,52.1L213.9,52.1L213.9,52.1z"/>
	<path class="st16" d="M213.9,52.1c0.2,0,0.2,0.3,0.2,0.4l0,0l-0.9,1.7c-0.1,0.1-0.2,0.2-0.4,0.2c-0.1-0.1-0.2-0.3-0.1-0.5l0,0
		l0.9-1.7C213.5,52,213.7,51.9,213.9,52.1L213.9,52.1z M212.6,54.2c0.1,0.1,0.3,0.1,0.4-0.1l0.9-1.7c0-0.2,0-0.3-0.1-0.4l0,0
		c-0.2,0-0.3-0.1-0.4,0.1l-0.9,1.7C212.5,54,212.6,54.1,212.6,54.2z"/>
	<path class="st0" d="M213.6,49c0.1,0.1,0.2,0.3,0.1,0.4l0,0l-2.5,3.3c-0.1,0.1-0.3,0.2-0.4,0.1l0,0c-0.1-0.1-0.2-0.3-0.1-0.4
		l2.5-3.3C213.3,49,213.5,48.9,213.6,49L213.6,49z"/>
	<path class="st16" d="M213.6,49c0.1,0.1,0.2,0.3,0.1,0.4l0,0l-2.5,3.3c-0.1,0.1-0.3,0.2-0.4,0.1l0,0c-0.1-0.1-0.2-0.3-0.1-0.4l0,0
		l2.5-3.4C213.3,48.9,213.5,48.9,213.6,49L213.6,49z M210.8,52.8c0.1,0.1,0.3,0.1,0.4-0.1l2.5-3.4c0.1-0.1,0.1-0.2-0.1-0.4l0,0
		c-0.1-0.1-0.3-0.1-0.4,0.1l-2.5,3.4C210.6,52.6,210.6,52.8,210.8,52.8L210.8,52.8z"/>
	<path class="st0" d="M210.7,49.6c0.1,0.1,0.1,0.3,0.1,0.4l-1.2,1.4c-0.1,0.1-0.3,0.1-0.4,0l0,0c-0.1-0.1-0.1-0.3-0.1-0.4l1.2-1.4
		C210.4,49.5,210.5,49.5,210.7,49.6L210.7,49.6z"/>
	<path class="st16" d="M210.7,49.6c0.1,0.1,0.2,0.3,0.1,0.4l0,0l-1.2,1.4c-0.1,0.1-0.3,0.2-0.4,0.1l0,0c-0.1-0.1-0.2-0.3-0.1-0.4
		l0,0l1.2-1.4C210.3,49.5,210.5,49.5,210.7,49.6L210.7,49.6z M209,51.4c0.1,0.1,0.3,0.1,0.3,0l0,0l1.2-1.4c0.1-0.1,0.1-0.2,0-0.3
		c-0.1-0.1-0.2-0.1-0.3,0l0,0l-1.2,1.4C208.9,51.1,209,51.3,209,51.4z"/>
	<path class="st0" d="M211,46.6c0.1,0.1,0.1,0.3,0,0.4l0,0l-3.1,2.8c-0.1,0.1-0.3,0.1-0.4,0l0,0c-0.1-0.1-0.1-0.3,0-0.4l0,0l3.1-2.8
		C210.7,46.5,210.9,46.5,211,46.6L211,46.6z"/>
	<path class="st16" d="M211,46.6c0.1,0.1,0.1,0.3,0,0.4l-3.1,2.8c-0.1,0.1-0.4,0.1-0.4,0l0,0c-0.1-0.1-0.1-0.3,0-0.4l3.1-2.8
		C210.7,46.4,210.9,46.5,211,46.6z M207.4,49.8c0.1,0.1,0.2,0.1,0.3,0l3.1-2.8c0.1-0.1,0.1-0.2,0-0.3l0,0c-0.1-0.1-0.2-0.1-0.3,0
		l-3.1,2.8C207.3,49.5,207.4,49.7,207.4,49.8L207.4,49.8z"/>
	<path class="st0" d="M208,46.6c0.1,0.1,0.1,0.3,0,0.4l-1.5,1.2c-0.1,0.1-0.4,0.1-0.4-0.1c-0.1-0.1-0.1-0.3,0-0.4l1.5-1.2
		C207.7,46.4,207.9,46.5,208,46.6z"/>
	<path class="st16" d="M208,46.6c0.1,0.1,0.1,0.4,0,0.4l-1.5,1.1c-0.1,0.1-0.3,0.1-0.4,0l0,0c-0.1-0.1-0.1-0.4,0-0.4l1.5-1.1
		C207.7,46.4,207.9,46.5,208,46.6L208,46.6z M206.1,48.1c0.1,0.1,0.2,0.1,0.3,0.1l0,0l1.5-1.1c0.1-0.1,0.1-0.2,0-0.4
		c-0.1-0.1-0.2-0.1-0.3-0.1l-1.5,1.2C206,47.8,206,48,206.1,48.1L206.1,48.1z"/>
	<path class="st0" d="M208.9,43.7c0.1,0.1,0,0.3-0.1,0.3l0,0l-3.6,2.1c-0.1,0.1-0.3,0-0.4-0.1l0,0c-0.1-0.1,0-0.3,0.1-0.4l0,0
		l3.6-2.2C208.6,43.5,208.9,43.6,208.9,43.7L208.9,43.7z"/>
	<path class="st16" d="M208.9,43.7c0.1,0.1,0,0.3-0.1,0.4l-3.6,2.1c-0.1,0.1-0.3,0-0.4-0.1c-0.1-0.1,0-0.3,0.1-0.4l3.6-2.1
		C208.6,43.5,208.9,43.5,208.9,43.7z M204.8,46.1c0.1,0.1,0.2,0.1,0.3,0.1l3.6-2.1c0.1-0.1,0.1-0.2,0-0.3c-0.1-0.1-0.1-0.1-0.3-0.1
		l-3.6,2.1C204.7,45.8,204.7,46,204.8,46.1z"/>
	<path class="st0" d="M206,43.1c0.1,0.1,0,0.3-0.1,0.4l-1.7,0.8c-0.2,0-0.3,0-0.4-0.1c-0.1-0.1,0-0.3,0.1-0.4l0,0l1.7-0.8
		C205.7,42.9,205.9,43,206,43.1L206,43.1z"/>
	<path class="st16" d="M206,43.1c0,0.2,0,0.3-0.1,0.4l0,0l-1.7,0.8c-0.1,0.1-0.3,0-0.4-0.1l0,0c0-0.2,0-0.3,0.1-0.4l1.7-0.8
		C205.7,42.9,205.9,42.9,206,43.1L206,43.1z M203.8,44.2c0.1,0.1,0.2,0.2,0.4,0.1l1.7-0.8c0.1-0.1,0.1-0.2,0.1-0.4
		c-0.1-0.1-0.2-0.1-0.4-0.1l-1.7,0.9C203.8,43.9,203.7,44,203.8,44.2L203.8,44.2z"/>
	<path class="st0" d="M207.5,40.5c0.1,0.1,0,0.3-0.2,0.4l0,0l-4,1.4c-0.2,0-0.3,0-0.4-0.2c-0.1-0.1,0-0.3,0.2-0.4l0,0l4-1.4
		C207.2,40.2,207.3,40.4,207.5,40.5L207.5,40.5z"/>
	<path class="st16" d="M207.5,40.5c0,0.2,0,0.3-0.2,0.4l-4,1.4c-0.2,0-0.3,0-0.4-0.2l0,0c0-0.2,0-0.3,0.2-0.4l4-1.4
		C207.2,40.2,207.4,40.3,207.5,40.5L207.5,40.5L207.5,40.5z M202.9,42.1c0.1,0.1,0.2,0.2,0.3,0.2l0,0l4-1.4c0.1-0.1,0.2-0.2,0.2-0.3
		l0,0c-0.1-0.1-0.2-0.2-0.3-0.2l-4,1.4C202.9,41.8,202.9,42,202.9,42.1L202.9,42.1z"/>
	<path class="st0" d="M204.7,39.3c0,0.2-0.1,0.3-0.2,0.4l0,0l-1.8,0.5c-0.2,0-0.3-0.1-0.4-0.2c0-0.2,0-0.3,0.2-0.4l1.8-0.5
		C204.4,39.1,204.5,39.2,204.7,39.3L204.7,39.3z"/>
	<path class="st16" d="M204.7,39.3c0,0.2-0.1,0.3-0.2,0.4l-1.8,0.5c-0.2,0-0.3-0.1-0.4-0.2c0-0.2,0.1-0.3,0.2-0.4l1.8-0.5
		C204.5,39.1,204.6,39.2,204.7,39.3z M202.3,40c0.1,0.1,0.2,0.2,0.3,0.2l0,0l1.8-0.5c0.1-0.1,0.2-0.2,0.2-0.3c0-0.2-0.2-0.2-0.3-0.2
		l0,0l-1.8,0.5C202.3,39.7,202.2,39.8,202.3,40z"/>
	<path class="st0" d="M206.6,37.1c0,0.2-0.1,0.3-0.2,0.3l0,0l-4.2,0.6c-0.2,0-0.3-0.1-0.3-0.2c0-0.2,0.1-0.3,0.2-0.3l0,0l4.2-0.6
		C206.4,36.9,206.6,36.9,206.6,37.1z"/>
	<path class="st16" d="M206.6,37.1c0,0.2-0.1,0.3-0.3,0.4l-4.2,0.6c-0.2,0-0.3-0.1-0.4-0.3l0,0c0-0.2,0.1-0.3,0.3-0.4l4.2-0.6
		C206.5,36.8,206.6,36.9,206.6,37.1z M201.9,37.8c0,0.2,0.1,0.2,0.3,0.2l4.2-0.6c0.2,0,0.2-0.2,0.2-0.3l0,0c0-0.2-0.1-0.2-0.3-0.2
		l-4.2,0.6C202,37.4,201.8,37.6,201.9,37.8L201.9,37.8L201.9,37.8z"/>
	<path class="st0" d="M204.1,35.4c0,0.2-0.1,0.3-0.3,0.4l0,0l-1.8,0.1c-0.2,0-0.3-0.1-0.3-0.2l0,0c0-0.2,0.1-0.3,0.2-0.3l1.8-0.1
		C203.9,35.1,204.1,35.2,204.1,35.4L204.1,35.4z"/>
	<path class="st16" d="M204.1,35.4c0,0.2-0.1,0.3-0.3,0.4l0,0l-1.8,0.1c-0.2,0-0.3-0.1-0.4-0.3c0-0.2,0.1-0.3,0.3-0.4l0,0l1.8-0.1
		C203.9,35.1,204.1,35.2,204.1,35.4L204.1,35.4z M201.7,35.5c0,0.2,0.1,0.3,0.3,0.2l1.8-0.1c0.2,0,0.3-0.1,0.2-0.3
		c0-0.2-0.1-0.3-0.3-0.2l0,0l-1.8,0.1C201.7,35.3,201.6,35.4,201.7,35.5L201.7,35.5z"/>
	<path class="st0" d="M206.4,33.6c0,0.2-0.2,0.3-0.2,0.3l0,0l-4.2-0.2c-0.2,0-0.3-0.2-0.3-0.3l0,0c0-0.2,0.2-0.3,0.2-0.3l0,0
		l4.3,0.2C206.3,33.2,206.4,33.4,206.4,33.6L206.4,33.6z"/>
	<path class="st16" d="M206.5,33.6c0,0.2-0.2,0.3-0.3,0.3l-4.3-0.2c-0.2,0-0.3-0.2-0.3-0.3l0,0c0-0.2,0.2-0.3,0.3-0.3l4.3,0.2
		C206.4,33.2,206.5,33.3,206.5,33.6C206.5,33.5,206.5,33.5,206.5,33.6z M201.7,33.2c0,0.2,0.1,0.3,0.3,0.3l4.2,0.2
		c0.2,0,0.3-0.1,0.2-0.3l0,0c0-0.2-0.1-0.3-0.3-0.3l-4.3-0.2C201.8,33,201.7,33.1,201.7,33.2z"/>
	<path class="st0" d="M204.3,31.4c0,0.2-0.2,0.3-0.3,0.3l0,0l-1.8-0.2c-0.2,0-0.3-0.2-0.3-0.3c0-0.2,0.2-0.3,0.3-0.3l0,0l1.8,0.2
		C204.3,31,204.3,31.2,204.3,31.4z"/>
	<path class="st16" d="M204.4,31.4c0,0.2-0.2,0.3-0.3,0.3l-1.8-0.2c-0.2,0-0.3-0.2-0.3-0.3c0-0.2,0.2-0.3,0.3-0.3l1.8,0.2
		C204.3,31,204.4,31.2,204.4,31.4L204.4,31.4z M202,31c0,0.2,0.1,0.3,0.3,0.3l1.8,0.2c0.2,0,0.3-0.1,0.3-0.3c0-0.2-0.1-0.3-0.3-0.3
		l-1.8-0.2C202,30.8,201.9,30.9,202,31z"/>
	<path class="st0" d="M207.1,30c0,0.2-0.2,0.3-0.3,0.3l-4.1-1c-0.2,0-0.3-0.2-0.2-0.4c0-0.2,0.2-0.3,0.4-0.2l4.1,1
		C207,29.7,207.1,29.9,207.1,30L207.1,30z"/>
	<path class="st16" d="M207.1,30c0,0.2-0.2,0.3-0.4,0.2l-4.1-1c-0.2,0-0.3-0.2-0.2-0.4c0-0.2,0.2-0.3,0.4-0.2l4.1,1
		C207,29.7,207.1,29.9,207.1,30z M202.4,28.8c0,0.2,0,0.3,0.2,0.3l4.1,1c0.2,0,0.3-0.1,0.3-0.2l0,0c0-0.2,0-0.3-0.2-0.3l-4.1-1
		C202.6,28.6,202.5,28.7,202.4,28.8z"/>
	<path class="st22" d="M205.4,27.5c0,0.2-0.2,0.2-0.4,0.2l-1.7-0.6c-0.2,0-0.2-0.2-0.2-0.4c0-0.2,0.2-0.2,0.4-0.2l1.7,0.6
		C205.3,27.1,205.4,27.3,205.4,27.5z"/>
	<path class="st16" d="M205.4,27.5c0,0.2-0.2,0.3-0.4,0.2l-1.7-0.6c-0.2,0-0.3-0.2-0.2-0.4c0-0.2,0.2-0.3,0.4-0.2l1.7,0.6
		C205.4,27.2,205.4,27.3,205.4,27.5z M203.1,26.7c0,0.2,0,0.3,0.2,0.3l0,0l1.7,0.6c0.2,0,0.3,0,0.3-0.2c0-0.2,0-0.3-0.2-0.3l0,0
		l-1.7-0.6C203.2,26.5,203.1,26.6,203.1,26.7z"/>
	<path class="st0" d="M208.3,26.7c0,0.2-0.2,0.2-0.4,0.2L204,25c-0.2,0-0.2-0.2-0.2-0.4l0,0c0-0.2,0.2-0.2,0.4-0.2l3.8,1.8
		C208.2,26.4,208.3,26.5,208.3,26.7L208.3,26.7z"/>
	<path class="st16" d="M208.3,26.7c0,0.2-0.2,0.2-0.4,0.2L204,25c-0.1-0.1-0.2-0.3-0.1-0.5c0-0.2,0.2-0.2,0.4-0.2l3.8,1.8
		C208.3,26.3,208.3,26.5,208.3,26.7L208.3,26.7z M203.9,24.6c0,0.2,0,0.3,0.1,0.4l3.8,1.8c0.2,0,0.3,0,0.4-0.2c0-0.2,0-0.3-0.1-0.4
		l-3.8-1.8C204.2,24.4,204,24.5,203.9,24.6L203.9,24.6z"/>
	<path class="st0" d="M207.1,23.9c0,0.2-0.2,0.2-0.4,0.2l0,0l-1.7-0.9c-0.2,0-0.2-0.2-0.1-0.4l0,0c0-0.2,0.2-0.2,0.4-0.2l0,0l0,0
		l1.7,0.9C207.2,23.6,207.2,23.7,207.1,23.9L207.1,23.9L207.1,23.9z"/>
	<path class="st16" d="M207.1,23.9c0,0.2-0.2,0.2-0.4,0.2l-1.7-0.9c-0.2,0-0.2-0.2-0.2-0.4c0.1-0.1,0.3-0.2,0.5-0.1l0,0l1.7,0.9
		C207.2,23.6,207.2,23.7,207.1,23.9L207.1,23.9z M205,22.7c0,0.2-0.1,0.3,0.1,0.4l1.7,0.9c0.2,0,0.2,0.1,0.4-0.1l0,0
		c0-0.2,0.1-0.3-0.1-0.4l-1.7-0.9C205.2,22.5,205.1,22.6,205,22.7L205,22.7z"/>
	<path class="st0" d="M210.1,23.7c-0.1,0.1-0.3,0.2-0.4,0.1l-3.4-2.5c-0.1-0.1-0.2-0.3-0.1-0.4c0.1-0.1,0.3-0.2,0.4-0.1l3.4,2.5
		C210.1,23.4,210.2,23.6,210.1,23.7L210.1,23.7L210.1,23.7z"/>
	<path class="st16" d="M210.1,23.7c-0.1,0.1-0.3,0.2-0.4,0.1l-3.4-2.5c-0.1-0.1-0.2-0.3-0.1-0.4c0.1-0.1,0.3-0.1,0.4-0.1l3.4,2.5
		C210.1,23.4,210.2,23.6,210.1,23.7z M206.3,20.8c-0.1,0.1-0.1,0.3,0.1,0.4l0,0l3.4,2.5c0.1,0.1,0.2,0.1,0.4-0.1l0,0
		c0.1-0.1,0.1-0.3-0.1-0.4l-3.4-2.5C206.5,20.7,206.3,20.8,206.3,20.8L206.3,20.8z"/>
	<path class="st0" d="M209.5,20.7c-0.1,0.1-0.3,0.1-0.4,0.1l-1.4-1.2c-0.1-0.1-0.1-0.3-0.1-0.4l0,0c0.1-0.1,0.3-0.1,0.4-0.1l1.4,1.2
		C209.6,20.4,209.5,20.6,209.5,20.7L209.5,20.7z"/>
	<path class="st16" d="M209.5,20.8c-0.1,0.1-0.3,0.2-0.4,0.1l0,0l-1.4-1.2c-0.1-0.1-0.2-0.3-0.1-0.4c0.1-0.1,0.3-0.2,0.4-0.1
		c0,0,0,0,0.1,0l1.4,1.2C209.6,20.4,209.6,20.6,209.5,20.8C209.5,20.7,209.5,20.7,209.5,20.8z M207.7,19.1c-0.1,0.1-0.1,0.2,0,0.3
		l0,0l1.4,1.2c0.1,0.1,0.2,0.1,0.3,0c0.1-0.1,0.1-0.2,0-0.3l0,0l-1.4-1.2C207.9,19,207.7,19,207.7,19.1L207.7,19.1L207.7,19.1z"/>
	<path class="st0" d="M212.4,21.1c-0.1,0.1-0.3,0.1-0.4,0l0,0l-2.8-3.1c-0.1-0.1-0.1-0.3,0-0.4l0,0c0.1-0.1,0.3-0.1,0.3,0l0,0
		l2.8,3.1C212.6,20.8,212.6,21,212.4,21.1L212.4,21.1z"/>
	<path class="st16" d="M212.4,21.1c-0.1,0.1-0.3,0.1-0.4,0l-2.8-3.1c-0.1-0.1-0.1-0.4,0-0.4c0.1-0.1,0.3-0.1,0.4,0l2.8,3.1
		C212.6,20.8,212.6,21,212.4,21.1L212.4,21.1L212.4,21.1z M209.3,17.5c-0.1,0.1-0.2,0.3,0,0.4l2.8,3.1c0.1,0.1,0.2,0.1,0.3,0
		c0.1-0.1,0.1-0.2,0-0.3l-2.8-3.1C209.6,17.4,209.4,17.5,209.3,17.5L209.3,17.5z"/>
	<path class="st0" d="M212.4,18.1c-0.1,0.1-0.3,0.1-0.4,0l-1.1-1.5c-0.1-0.1-0.1-0.3,0.1-0.4c0.1-0.1,0.3-0.1,0.4,0l1.1,1.5
		C212.6,17.8,212.6,17.9,212.4,18.1z"/>
	<path class="st16" d="M212.4,18.1c-0.1,0.1-0.4,0.1-0.4,0l0,0l-1.1-1.5c-0.1-0.1-0.1-0.4,0-0.4c0.1-0.1,0.4-0.1,0.4,0l1.1,1.5
		C212.6,17.8,212.6,18,212.4,18.1L212.4,18.1z M210.9,16.2c-0.1,0.1-0.1,0.2-0.1,0.3l0,0L212,18c0.1,0.1,0.2,0.1,0.4,0
		c0.1-0.1,0.1-0.2,0.1-0.3l0,0l-1.1-1.5C211.2,16.1,211.1,16,210.9,16.2L210.9,16.2z"/>
	<path class="st0" d="M215.3,19c-0.1,0.1-0.3,0-0.3-0.1l0,0l-2.2-3.6c-0.1-0.1,0-0.3,0.1-0.4c0.1-0.1,0.3,0,0.4,0.1l0,0l2.2,3.6
		C215.5,18.7,215.4,18.9,215.3,19L215.3,19z"/>
	<path class="st16" d="M215.3,19c-0.1,0.1-0.3,0-0.4-0.1l-2.2-3.7c-0.1-0.1,0-0.3,0.1-0.4l0,0c0.1-0.1,0.3,0,0.4,0.1l2.2,3.7
		C215.5,18.7,215.5,18.9,215.3,19L215.3,19z M212.8,14.9c-0.1,0.1-0.1,0.2-0.1,0.4l2.2,3.6c0.1,0.1,0.2,0.2,0.3,0.2
		c0.1-0.1,0.2-0.2,0.2-0.3l-0.1-0.1l-2.2-3.7C213.2,14.9,213,14.9,212.8,14.9L212.8,14.9z"/>
	<path class="st0" d="M215.9,16c-0.1,0.1-0.3,0-0.4-0.1l-0.9-1.7c-0.1-0.1,0-0.3,0.1-0.4l0,0c0.1-0.1,0.3,0,0.4,0.1l0.9,1.7
		C216.1,15.8,216,16,215.9,16L215.9,16z"/>
	<path class="st16" d="M215.9,16c-0.2,0-0.3,0-0.4-0.1l-0.9-1.7c-0.1-0.1,0-0.3,0.1-0.4l0,0c0.1-0.1,0.3,0,0.4,0.1l0,0l0.9,1.7
		C216.1,15.8,216.1,16,215.9,16z M214.8,13.9c-0.1,0.1-0.2,0.2-0.1,0.4l0.9,1.7c0.1,0.1,0.2,0.1,0.4,0.1c0.1-0.1,0.1-0.2,0.1-0.3
		l-0.9-1.7C215.1,13.8,214.9,13.8,214.8,13.9L214.8,13.9L214.8,13.9z"/>
	<path class="st0" d="M218.5,17.5c-0.1,0.1-0.3,0-0.4-0.2l0,0l-1.4-4c0-0.2,0-0.3,0.2-0.4c0.1-0.1,0.3,0,0.4,0.2l0,0l1.4,4
		C218.7,17.3,218.7,17.4,218.5,17.5L218.5,17.5z"/>
	<path class="st16" d="M218.5,17.5c-0.2,0-0.3,0-0.4-0.2l-1.4-4c0-0.2,0-0.3,0.2-0.4l0,0c0.2,0,0.3,0,0.4,0.2l1.4,4
		C218.8,17.3,218.7,17.5,218.5,17.5L218.5,17.5z M216.9,13c-0.1,0.1-0.2,0.2-0.2,0.3l1.4,4c0.1,0.1,0.2,0.2,0.4,0.2
		c0.1-0.1,0.2-0.2,0.2-0.3l-1.4-3.9C217.2,13,217,13,216.9,13L216.9,13z"/>
	<path class="st0" d="M219.7,14.7c-0.2,0-0.3-0.1-0.4-0.2l-0.5-1.8c0-0.2,0.1-0.3,0.2-0.4c0.2,0,0.3,0.1,0.4,0.2l0.5,1.8
		C219.9,14.5,219.8,14.6,219.7,14.7L219.7,14.7z"/>
	<path class="st16" d="M219.7,14.8c-0.2,0-0.3-0.1-0.4-0.2l-0.5-1.8c0-0.2,0.1-0.3,0.2-0.4l0,0c0.2,0,0.3,0.1,0.4,0.2l0.5,1.8
		C219.9,14.5,219.9,14.7,219.7,14.8L219.7,14.8z M219,12.3c-0.2,0-0.2,0.2-0.2,0.3l0,0l0.5,1.8c0.1,0.1,0.2,0.2,0.3,0.2
		c0.2,0,0.2-0.2,0.2-0.3l-0.5-1.8C219.3,12.4,219.2,12.3,219,12.3L219,12.3L219,12.3z"/>
	<path class="st0" d="M222,16.6c-0.2,0-0.3-0.1-0.3-0.2l-0.6-4.2c0-0.2,0.1-0.3,0.2-0.3c0.2,0,0.3,0.1,0.3,0.2l0.6,4.2
		C222.2,16.5,222.1,16.7,222,16.6L222,16.6z"/>
	<path class="st16" d="M221.9,16.7c-0.2,0-0.3-0.1-0.4-0.3l-0.6-4.2c0-0.2,0.1-0.3,0.3-0.4s0.3,0.1,0.4,0.3l0.6,4.2
		C222.2,16.5,222.1,16.7,221.9,16.7L221.9,16.7z M221.3,12c-0.2,0-0.2,0.1-0.2,0.3l0,0l0.6,4.2c0,0.2,0.2,0.2,0.3,0.2
		c0.2,0,0.2-0.1,0.2-0.3l0,0l-0.6-4.2C221.5,12,221.4,11.9,221.3,12L221.3,12z"/>
	<path class="st0" d="M223.6,14.1c-0.2,0-0.3-0.1-0.3-0.2l0,0l-0.1-1.8c0-0.2,0.1-0.3,0.2-0.3l0,0c0.2,0,0.3,0.1,0.3,0.2l0.1,1.8
		C223.9,13.9,223.8,14.1,223.6,14.1L223.6,14.1L223.6,14.1z"/>
	<path class="st16" d="M223.6,14.1c-0.2,0-0.3-0.1-0.4-0.3l0,0l-0.1-1.8c0-0.2,0.1-0.3,0.3-0.4l0,0c0.2,0,0.3,0.1,0.4,0.3l0,0
		l0.1,1.8C223.9,14,223.8,14.1,223.6,14.1z M223.5,11.8c-0.2,0-0.3,0.1-0.2,0.3l0.1,1.8c0,0.2,0.1,0.3,0.3,0.2
		c0.2,0,0.3-0.1,0.2-0.3l-0.1-1.8C223.7,11.8,223.7,11.7,223.5,11.8L223.5,11.8L223.5,11.8z"/>
	<path class="st0" d="M225.5,16.5c-0.2,0-0.2-0.1-0.3-0.2c0,0,0,0,0-0.1l0.2-4.2c0-0.2,0.2-0.3,0.3-0.3l0,0c0.2,0,0.3,0.1,0.3,0.2
		l0,0l-0.2,4.2C225.7,16.4,225.6,16.5,225.5,16.5z"/>
	<path class="st16" d="M225.5,16.5c-0.2,0-0.3-0.2-0.3-0.3l0.2-4.2c0-0.2,0.2-0.3,0.3-0.3l0,0c0.2,0,0.3,0.2,0.3,0.3l-0.2,4.2
		C225.7,16.4,225.6,16.5,225.5,16.5L225.5,16.5z M225.7,11.7c-0.2,0-0.3,0.1-0.3,0.3l-0.2,4.3c0,0.2,0.1,0.3,0.3,0.2l0,0
		c0.2,0,0.3-0.1,0.3-0.3l0.2-4.2C225.9,11.9,225.8,11.7,225.7,11.7L225.7,11.7z"/>
	<path class="st0" d="M227.6,14.4c-0.2,0-0.3-0.2-0.3-0.3l0.2-1.8c0-0.2,0.2-0.3,0.3-0.3c0.2,0,0.3,0.2,0.3,0.3l-0.2,1.8
		C227.9,14.3,227.7,14.3,227.6,14.4z"/>
	<path class="st16" d="M227.6,14.4c-0.2,0-0.3-0.2-0.3-0.3l0.2-1.8c0-0.2,0.2-0.3,0.3-0.3c0.2,0,0.3,0.2,0.3,0.3l-0.2,1.8
		C227.9,14.3,227.8,14.4,227.6,14.4z M227.9,11.9c-0.2,0-0.3,0.1-0.3,0.3l-0.2,1.8c0,0.2,0.1,0.3,0.3,0.3c0.2,0,0.3-0.1,0.3-0.3
		l0.2-1.8C228.1,12.1,228.1,12,227.9,11.9z"/>
	
		<linearGradient id="SVGID_4_" gradientUnits="userSpaceOnUse" x1="-1516.2583" y1="900.262" x2="-1516.2618" y2="900.2512" gradientTransform="matrix(2170.4277 554.8643 554.8643 -2170.4277 2791632.75 2795302)">
		<stop  offset="0" style="stop-color:#000000;stop-opacity:0"/>
		<stop  offset="1" style="stop-color:#000000"/>
	</linearGradient>
	<circle class="st23" cx="224.7" cy="34.6" r="23.9"/>
	<polygon class="st7" points="244.5,24 222.7,31.2 222.7,31.2 222.7,31.3 222.6,31.2 206.1,47.5 226.8,38.1 226.8,38.1 226.8,38 	
		"/>
	<path class="st24" d="M244.4,22.8l-21.8,8.4l4.1,6.8L244.4,22.8"/>
	<path class="st25" d="M222.7,31.2l2.1,3.5l19.8-11.8L222.7,31.2L222.7,31.2z"/>
	<path class="st26" d="M222.7,31.2l4.1,6.8l-21.8,8.4L222.7,31.2L222.7,31.2z"/>
	<path class="st27" d="M204.9,46.4l19.8-11.9l-2.1-3.5L204.9,46.4z"/>
</g>
<g id="_x36_4-netflix" class="st11">
	<g>
		<g>
			<g>
				
					<rect x="294.3" y="49.3" transform="matrix(0.9704 -0.2416 0.2416 0.9704 -9.6552 74.622)" class="st28" width="10.2" height="54.8"/>
				
					<rect x="274.5" y="54.2" transform="matrix(0.9704 -0.2416 0.2416 0.9704 -11.4396 69.9668)" class="st28" width="10.2" height="54.8"/>
				<path class="st29" d="M311,102l-9.9,2.5L268,56.3l9.9-2.5L311,102z"/>
			</g>
		</g>
	</g>
</g>
<g id="Layer_1_1_">
</g>
<g id="_x34__stroke" class="st11">
	<g id="Spotify_1_">
		
			<rect x="156.2" y="73.1" transform="matrix(0.8253 -0.5647 0.5647 0.8253 -23.6303 119.2109)" class="st30" width="49.3" height="49.3"/>
		<path id="Spotify" class="st31" d="M166.9,77.5c-11.2,7.7-14.1,23.1-6.4,34.3s23.1,14.1,34.3,6.4s14.1-23.1,6.4-34.3
			S178.2,69.7,166.9,77.5 M196.4,100.4c0,0.9-0.6,1.6-1.5,1.6c-6.8,0.3-13.2,3.8-19.2,10.3c-0.6,0.7-1.5,0.6-2.2,0.1
			c-0.7-0.6-0.6-1.5-0.1-2.2c6.5-7,13.7-10.9,21.3-11.3C195.6,98.9,196.3,99.6,196.4,100.4 M195,93.2c0,1.1-0.7,2-1.8,2
			c-7.8,0.4-16.8,5.1-21.8,11.5c-0.7,0.8-1.9,1-2.6,0.3c-0.8-0.7-1-1.9-0.3-2.6c5.9-7.3,15.8-12.5,24.8-12.9
			C194,91.3,195,92.1,195,93.2 M191.3,87.3c-9.2,0.6-20.3,7.6-25.2,13.8c-0.8,1-2.2,1.1-3.2,0.4c-1-0.8-1.1-2.2-0.4-3.2
			c5.8-7.1,17.9-14.8,28.5-15.5c1.3-0.1,2.4,0.9,2.5,2.2C193.6,86.1,192.6,87.2,191.3,87.3"/>
	</g>
</g>
<g id="_x37__stroke" class="st11">
	<g id="Instagram_1_">
		
			<rect x="93.3" y="35.2" transform="matrix(0.3383 -0.941 0.941 0.3383 22.3653 146.8402)" class="st30" width="44.5" height="44.5"/>
		
			<radialGradient id="Instagram_2_" cx="63.8825" cy="82.0565" r="56.9192" gradientTransform="matrix(0.941 0.3383 -0.3383 0.941 76.127 -67.7036)" gradientUnits="userSpaceOnUse">
			<stop  offset="0" style="stop-color:#FFB140"/>
			<stop  offset="0.2559" style="stop-color:#FF5445"/>
			<stop  offset="0.599" style="stop-color:#FC2B82"/>
			<stop  offset="1" style="stop-color:#8E40B7"/>
		</radialGradient>
		<path id="Instagram" class="st32" d="M133.3,51.3c-0.5,1.4-2,2.1-3.4,1.6c-1.4-0.5-2.1-2-1.6-3.4c0.5-1.4,2-2.1,3.4-1.6
			C133.1,48.3,133.8,49.9,133.3,51.3z M113.1,64.5c-3.9-1.4-5.9-5.6-4.5-9.5s5.6-5.9,9.5-4.5c3.9,1.4,5.9,5.6,4.5,9.5
			S116.9,65.9,113.1,64.5z M119.5,46.8c-5.9-2.1-12.5,0.9-14.6,6.9c-2.1,5.9,0.9,12.5,6.9,14.6c5.9,2.1,12.5-0.9,14.6-6.9
			C128.5,55.4,125.4,48.9,119.5,46.8z M121.8,40.3c5.6,2,6.3,2.3,8.4,3.2c2,0.8,3,1.6,3.6,2.1c0.8,0.7,1.4,1.4,1.8,2.4
			c0.5,1,0.7,1.9,0.7,3c0,0.8,0,2.1-0.7,4.2c-0.7,2.2-0.9,2.9-2.9,8.5s-2.3,6.3-3.2,8.4c-0.8,2-1.6,3-2.1,3.6
			c-0.7,0.8-1.4,1.4-2.4,1.8c-1,0.5-1.9,0.7-3,0.7c-0.8,0-2.1,0-4.2-0.7c-2.2-0.7-2.9-0.9-8.5-2.9c-5.6-2-6.3-2.3-8.4-3.2
			c-2-0.8-3-1.6-3.6-2.1C96.5,68.7,96,68,95.5,67c-0.5-1-0.7-1.9-0.7-3c0-0.8,0-2.1,0.7-4.2c0.7-2.2,0.9-2.9,2.9-8.5
			c2-5.6,2.3-6.3,3.2-8.4c0.8-2,1.6-3,2.1-3.6c0.7-0.8,1.4-1.4,2.4-1.8c1-0.5,1.9-0.7,3-0.7c0.8,0,2.1,0,4.2,0.7
			C115.5,38.1,116.2,38.3,121.8,40.3z M123.1,36.6c-5.7-2-6.4-2.3-8.7-3c-2.3-0.7-3.9-0.9-5.4-0.9c-1.6,0-3,0.3-4.6,1.1
			c-1.6,0.7-2.7,1.7-3.8,2.8c-1,1.1-1.9,2.5-2.8,4.7c-0.9,2.2-1.2,2.9-3.2,8.6s-2.3,6.4-3,8.7c-0.7,2.3-0.9,3.9-0.9,5.4
			c0,1.6,0.3,3,1.1,4.6c0.7,1.6,1.7,2.7,2.8,3.8c1.1,1,2.5,1.9,4.7,2.8c2.2,0.9,2.9,1.2,8.6,3.2c5.7,2,6.4,2.3,8.7,3
			c2.3,0.7,3.9,0.9,5.4,0.9c1.6,0,3-0.3,4.6-1.1s2.7-1.7,3.8-2.8c1-1.1,1.9-2.5,2.8-4.7c0.9-2.2,1.2-2.9,3.2-8.6s2.3-6.4,3-8.7
			c0.7-2.3,0.9-3.9,0.9-5.4c0-1.6-0.3-3-1.1-4.6c-0.7-1.6-1.7-2.7-2.8-3.8c-1.1-1-2.5-1.9-4.7-2.8C129.5,38.9,128.8,38.6,123.1,36.6
			z"/>
	</g>
</g>
<g id="_x34__stroke_1_" class="st11">
	<g id="Youtube_1_">
		
			<rect x="59.2" y="113.7" transform="matrix(0.2509 -0.968 0.968 0.2509 -71.3378 186.1464)" class="st30" width="50.9" height="50.9"/>
		<path id="Youtube" class="st33" d="M111.3,135.5c0,0,0.4-3.5-0.7-5.4c-1.4-2.5-3.5-3-4.4-3.4c-6.8-2.3-17.1-5-17.1-5l0,0
			c0,0-10.3-2.7-17.4-4c-1-0.1-3.1-0.7-5.5,0.8c-1.9,1.1-3.2,4.4-3.2,4.4s-1.5,3.9-2.6,7.9l-1,3.8c-1,4-1.6,8.2-1.6,8.2
			s-0.4,3.5,0.7,5.4c1.4,2.5,3.8,3,4.9,3.5c3.8,1.4,16.6,4.8,16.6,4.8s10.3,2.7,17.4,3.9c1,0.1,3.1,0.7,5.5-0.8
			c1.9-1.1,3.2-4.4,3.2-4.4s1.5-3.9,2.6-7.9l1-3.8C110.7,139.6,111.3,135.5,111.3,135.5z M77.8,144.3l3.6-13.9l11.5,10.4L77.8,144.3
			z"/>
	</g>
</g>
</svg>
