<?xml version="1.0" encoding="utf-8"?>
<!-- Generator: Adobe Illustrator 25.2.0, SVG Export Plug-In . SVG Version: 6.00 Build 0)  -->
<svg version="1.1" id="Capa_1" xmlns="http://www.w3.org/2000/svg" xmlns:xlink="http://www.w3.org/1999/xlink" x="0px" y="0px"
	 viewBox="0 0 32 32" style="enable-background:new 0 0 32 32;" xml:space="preserve">
<style type="text/css">
	.st0{fill:none;stroke:#FFFFFF;stroke-width:1.3517;stroke-miterlimit:10;}
</style>
<g>
	<path class="st0" d="M28.9,8.7c-1.4-2.4-3.2-4.3-5.4-5.7S18.7,0.9,16,0.9c-2.7,0-5.2,0.7-7.5,2.1S4.4,6.3,3,8.7s-2,5-2,7.7
		c0,3.4,1,6.4,2.9,9S8.2,30,11.2,31c0.4,0.1,0.6,0,0.8-0.1c0.2-0.2,0.3-0.4,0.3-0.6c0,0,0-0.4,0-1.1c0-0.7,0-1.3,0-1.8l-0.5,0.1
		c-0.3,0.1-0.7,0.1-1.1,0.1c-0.4,0-0.9-0.1-1.4-0.1C8.8,27.5,8.4,27.3,8,27c-0.4-0.3-0.7-0.7-0.9-1.2L7,25.2c-0.1-0.3-0.3-0.7-0.6-1
		c-0.3-0.4-0.6-0.6-0.9-0.8l-0.1-0.1c-0.1-0.1-0.2-0.1-0.3-0.2c-0.1-0.2-0.1-0.3-0.2-0.4c0-0.1,0-0.2,0.1-0.2
		c0.1-0.1,0.3-0.1,0.6-0.1L6,22.5c0.3,0.1,0.6,0.2,1,0.5c0.4,0.3,0.7,0.6,1,1.1c0.3,0.6,0.7,1,1.1,1.3c0.4,0.3,0.9,0.4,1.3,0.4
		c0.4,0,0.8,0,1.1-0.1c0.3-0.1,0.6-0.2,0.9-0.3c0.1-0.9,0.4-1.6,1-2.1c-0.7-0.1-1.4-0.2-2-0.4c-0.6-0.2-1.2-0.4-1.8-0.8
		C9,21.7,8.4,21.3,8,20.7c-0.4-0.5-0.8-1.2-1-2.1c-0.3-0.9-0.4-1.9-0.4-3c0-1.6,0.5-3,1.6-4.2c-0.8-1.3-0.7-2.6-0.1-4.2
		c0.4-0.1,0.9,0,1.7,0.3c0.7,0.3,1.3,0.6,1.6,0.8c0.3,0.2,0.6,0.4,0.8,0.5c1.2-0.4,2.5-0.5,3.8-0.5s2.6,0.2,3.8,0.5l0.7-0.5
		c0.5-0.3,1.1-0.6,1.8-0.9s1.2-0.3,1.6-0.2c0.6,1.5,0.6,2.9,0.2,4.1c1,1.1,1.6,2.5,1.6,4.2c0,1.1-0.1,2.2-0.4,3
		c-0.3,0.9-0.6,1.6-1,2.1c-0.4,0.5-1,1-1.6,1.3c-0.6,0.4-1.3,0.6-1.8,0.8c-0.6,0.2-1.3,0.3-2,0.4c0.7,0.6,1,1.6,1,2.9v4.3
		c0,0.2,0.1,0.4,0.2,0.6c0.2,0.2,0.4,0.2,0.8,0.1c3-1,5.4-2.9,7.3-5.6s2.9-5.8,2.9-9C30.9,13.5,30.2,11,28.9,8.7z"/>
</g>
</svg>
