<?xml version="1.0" encoding="utf-8"?>
<!-- Generator: Adobe Illustrator 25.2.0, SVG Export Plug-In . SVG Version: 6.00 Build 0)  -->
<svg version="1.1" id="Layer_1" xmlns="http://www.w3.org/2000/svg" xmlns:xlink="http://www.w3.org/1999/xlink" x="0px" y="0px"
	 viewBox="0 0 100 100" style="enable-background:new 0 0 100 100;" xml:space="preserve">
<style type="text/css">
	.st0{fill:#FFD54F;}
	.st1{opacity:0.1;fill:#010101;enable-background:new    ;}
	.st2{fill:url(#SVGID_1_);}
</style>
<g>
	<path d="M91.7,62.4v-1.3c0-22.3-9.8-42.1-25.1-50.9l0.1-1.7c0-0.8-0.1-1.5-0.5-2.1c-0.4-0.6-1-0.9-1.5-0.9h-7.4
		C55.7,2.3,53.1,0,50,0s-5.7,2.3-7.2,5.6h-7.4c-0.6,0-1.1,0.3-1.5,0.9c-0.4,0.6-0.6,1.3-0.5,2.1l0.1,1.7C18.1,19,8.3,38.8,8.3,61.1
		v1.3C2.8,65.1,0,68.3,0,72.2C0,82.7,23.4,100,50,100s50-17.3,50-27.8C100,68.3,97.2,65.1,91.7,62.4z"/>
	<path class="st0" d="M12.5,61.1c0-19.5,8.3-36.6,21.3-44.9l1.6,25.7c0.1,1.5,1,2.5,2.1,2.5c0.1,0,0.1,0,0.2,0c1.1-0.1,2-1.5,1.9-3
		l-1.9-30.3h4v47.2c0,1.5,0.9,2.8,2.1,2.8s2.1-1.2,2.1-2.8V11.1c0-3.1,1.9-5.6,4.2-5.6s4.2,2.5,4.2,5.6v47.2c0,1.5,0.9,2.8,2.1,2.8
		s2.1-1.2,2.1-2.8V11.1h4l-1.9,30.3c-0.1,1.5,0.8,2.9,1.9,3c0.1,0,0.1,0,0.2,0c1.1,0,2-1.1,2.1-2.5l1.6-25.7
		c13,8.3,21.3,25.4,21.3,44.9v6.7c-3.3,2.4-15.4,9.9-37.5,9.9c-22,0-34.2-7.5-37.5-9.9V61.1z"/>
	<path class="st1" d="M72.1,21c4.5,8.2,7.1,18.2,7.1,29c0,4.3-1.9,8.2-4.9,9.7c-6,3.1-16.7,7-32.6,7c-13.2,0-22.8-2.7-29.2-5.4v6.6
		c3.3,2.4,15.5,9.9,37.5,9.9c22.1,0,34.2-7.5,37.5-9.9v-6.7C87.5,44.8,81.6,30.2,72.1,21z"/>
	<path class="st0" d="M50,94.4c-26.3,0-45.8-17-45.8-22.2c0-0.5,0.9-2,4.2-3.8v1.1c0,0.9,0.3,1.8,0.9,2.3
		C9.8,72.2,22.6,83.3,50,83.3s40.2-11.1,40.7-11.6c0.6-0.5,0.9-1.4,0.9-2.3v-1.1c3.3,1.8,4.2,3.4,4.2,3.8
		C95.8,77.4,76.3,94.4,50,94.4z"/>
	
		<linearGradient id="SVGID_1_" gradientUnits="userSpaceOnUse" x1="30.1344" y1="50.7886" x2="74.5955" y2="6.3275" gradientTransform="matrix(1 0 0 -1 0 102)">
		<stop  offset="0" style="stop-color:#010101;stop-opacity:0.1"/>
		<stop  offset="1" style="stop-color:#010101;stop-opacity:0"/>
	</linearGradient>
	<path class="st2" d="M95.8,72.2c0-0.5-0.9-2-4.2-3.8v1.1c0,0.9-0.3,1.8-0.9,2.3C90.2,72.2,77.4,83.3,50,83.3
		c-26.2,0-39-10.1-40.6-11.4L21,87.4c7.8,4,17.7,7.1,29,7.1C76.3,94.4,95.8,77.4,95.8,72.2z"/>
</g>
</svg>
