<?xml version="1.0" encoding="utf-8"?>
<!-- Generator: Adobe Illustrator 25.2.0, SVG Export Plug-In . SVG Version: 6.00 Build 0)  -->
<svg version="1.1" id="Layer_1" xmlns="http://www.w3.org/2000/svg" xmlns:xlink="http://www.w3.org/1999/xlink" x="0px" y="0px"
	 viewBox="0 0 100 100" style="enable-background:new 0 0 100 100;" xml:space="preserve">
<style type="text/css">
	.st0{fill:#FFFFFF;}
</style>
<g id="Server">
	<path d="M89.3,0H10.7C4.8,0,0,4.8,0,10.7V25c0,2,1.6,3.6,3.6,3.6h92.9c2,0,3.6-1.6,3.6-3.6V10.7C100,4.8,95.2,0,89.3,0z"/>
	<path d="M3.6,35.7h92.9c2,0,3.6,1.6,3.6,3.6v21.4c0,2-1.6,3.6-3.6,3.6H3.6c-2,0-3.6-1.6-3.6-3.6V39.3C0,37.3,1.6,35.7,3.6,35.7z"/>
	<path d="M96.4,71.4H3.6C1.6,71.4,0,73,0,75v14.3C0,95.2,4.8,100,10.7,100h78.6c5.9,0,10.7-4.8,10.7-10.7V75
		C100,73,98.4,71.4,96.4,71.4z"/>
	<path class="st0" d="M67.9,53.6h-50c-2,0-3.6-1.6-3.6-3.6c0-2,1.6-3.6,3.6-3.6h50c2,0,3.6,1.6,3.6,3.6C71.4,52,69.8,53.6,67.9,53.6
		z"/>
	<path class="st0" d="M67.9,17.9h-50c-2,0-3.6-1.6-3.6-3.6s1.6-3.6,3.6-3.6h50c2,0,3.6,1.6,3.6,3.6S69.8,17.9,67.9,17.9z"/>
	<path class="st0" d="M67.9,89.3h-50c-2,0-3.6-1.6-3.6-3.6s1.6-3.6,3.6-3.6h50c2,0,3.6,1.6,3.6,3.6S69.8,89.3,67.9,89.3z"/>
	<circle class="st0" cx="82.1" cy="14.3" r="3.6"/>
	<circle class="st0" cx="82.1" cy="50" r="3.6"/>
	<circle class="st0" cx="82.1" cy="85.7" r="3.6"/>
</g>
</svg>
