<?xml version="1.0" encoding="utf-8"?>
<!-- Generator: Adobe Illustrator 25.2.0, SVG Export Plug-In . SVG Version: 6.00 Build 0)  -->
<svg version="1.1" id="Layer_1" xmlns="http://www.w3.org/2000/svg" xmlns:xlink="http://www.w3.org/1999/xlink" x="0px" y="0px"
	 viewBox="0 0 100 100" style="enable-background:new 0 0 100 100;" xml:space="preserve">
<style type="text/css">
	.st0{fill:#2A293B;}
</style>
<g id="Server">
	<g id="XMLID_1_">
		<g>
			<path class="st0" d="M95.1,40.4v19.2c0,1.8-1.4,3.2-3.2,3.2H8.3c-1.8,0-3.2-1.4-3.2-3.2V40.4c0-1.8,1.4-3.2,3.2-3.2h83.5
				C93.6,37.1,95.1,38.6,95.1,40.4z M82.1,50c0-1.8-1.4-3.2-3.2-3.2c-1.8,0-3.2,1.4-3.2,3.2s1.5,3.2,3.2,3.2
				C80.7,53.2,82.1,51.8,82.1,50z M69.3,50c0-1.8-1.4-3.2-3.2-3.2h-45c-1.8,0-3.2,1.4-3.2,3.2s1.4,3.2,3.2,3.2h45
				C67.8,53.2,69.2,51.8,69.3,50z"/>
			<path class="st0" d="M95.1,14.7v12.9c0,1.8-1.4,3.2-3.2,3.2H8.3c-1.8,0-3.2-1.4-3.2-3.2V14.7C5.1,9.4,9.4,5,14.7,5h70.7
				C90.6,5,95,9.4,95.1,14.7z M82.1,17.9c0-1.8-1.4-3.2-3.2-3.2c-1.8,0-3.2,1.4-3.2,3.2c0,1.8,1.5,3.2,3.2,3.2
				C80.7,21.1,82.1,19.7,82.1,17.9z M69.3,17.9c0-1.8-1.4-3.2-3.2-3.2h-45c-1.8,0-3.2,1.4-3.2,3.2c0,1.8,1.4,3.2,3.2,3.2h45
				C67.8,21.1,69.3,19.7,69.3,17.9z"/>
			<path class="st0" d="M95,72.5v12.8c0,5.3-4.3,9.6-9.6,9.6H14.7c-5.3,0-9.6-4.3-9.6-9.6V72.5c0-1.8,1.4-3.2,3.2-3.2h83.4
				C93.5,69.2,95,70.7,95,72.5z M82.1,82.1c0-1.8-1.4-3.2-3.2-3.2c-1.8,0-3.2,1.4-3.2,3.2s1.5,3.2,3.2,3.2
				C80.7,85.3,82.1,83.9,82.1,82.1z M69.3,82.1c0-1.8-1.4-3.2-3.2-3.2h-45c-1.8,0-3.2,1.4-3.2,3.2c0,1.8,1.4,3.2,3.2,3.2h45
				C67.8,85.3,69.3,83.9,69.3,82.1z"/>
		</g>
		<g>
		</g>
	</g>
</g>
</svg>
