<?xml version="1.0" encoding="utf-8"?>
<!-- Generator: Adobe Illustrator 25.2.0, SVG Export Plug-In . SVG Version: 6.00 Build 0)  -->
<svg version="1.1" id="Logo" xmlns="http://www.w3.org/2000/svg" xmlns:xlink="http://www.w3.org/1999/xlink" x="0px" y="0px"
	 viewBox="0 0 166.5 75.9" style="enable-background:new 0 0 166.5 75.9;" xml:space="preserve">
<style type="text/css">
	.st0{fill:none;stroke:#FFFFFF;stroke-width:2;stroke-miterlimit:10;}
	.st1{fill:none;}
	.st2{fill:#FFFFFF;}
</style>
<path id="Logo_1_" class="st0" d="M163,65.2v-38c0-0.9-0.1-1.8-0.3-2.6c-0.3-1.5-0.8-3.3-1.7-5.3c-5-10.9-16-14.6-19.5-15.6
	c-1.2-0.4-7.3-1.9-14.9-0.4c-4,0.8-6.8,2.1-8,2.7c-3.1,1.6-6.6,3.3-9.4,7.4s-3.5,8.5-3.7,10.4l0,0c-0.1,0.5-0.8,0.7-1,0.3
	c-0.6-1-1.2-2-2.1-3.2c-1.5-2-5.6-7.2-12.2-10.3S74,6,64.7,10.6c-8.6,4.3-12.6,11.6-14.1,14.8c-0.2,0.4-0.6,0.4-0.8,0.2
	c-0.3-0.3-0.7-0.6-1-1c-10.5-8.7-26.2-3.1-27.1-2.7c-2.9,1.1-9,3.4-13.6,9.9C4.2,37,3.3,42.1,3.2,43c-1.1,7.4,1.4,13.1,2.2,14.7
	c4.7,10.2,15,13.7,18.8,14.6c0.8,0.2,1.7,0.3,2.5,0.3h2.1h126.9C159.8,72.7,163,69.3,163,65.2z"/>
<g>
	<g>
		<rect x="25.3" y="27.6" class="st1" width="115.4" height="34.9"/>
		<path class="st2" d="M41.9,59.3c-2.8,0-5.3-0.7-7.5-1.9s-3.9-3.1-5.2-5.4c-1.3-2.3-1.8-4.9-1.8-7.9c0-2.1,0.4-4.1,1.1-6
			c0.8-1.8,1.7-3.5,3.1-4.8c1.3-1.3,2.9-2.4,4.6-3.2c1.7-0.8,3.7-1.2,5.8-1.2c1.3,0,2.8,0.2,4.1,0.7s2.6,1.1,3.8,1.8
			c1.2,0.8,2.1,1.6,2.8,2.6l-2.3,2.4c-1.1-1.3-2.3-2.3-3.8-3.1s-3-1.2-4.5-1.2c-2.1,0-4,0.5-5.7,1.5c-1.6,1.1-3,2.4-3.9,4.1
			c-1,1.7-1.4,3.8-1.4,6.1s0.5,4.4,1.4,6.2c1,1.8,2.3,3.2,4,4.1c1.7,1,3.8,1.4,6,1.4c1.5,0,3.1-0.3,4.5-1s2.6-1.4,3.5-2.5l1.7,2.8
			c-0.7,0.8-1.5,1.4-2.7,2.1c-1.1,0.6-2.3,1.1-3.6,1.4C44.5,59.1,43.1,59.3,41.9,59.3z"/>
		<path class="st2" d="M57.1,59V27.6h3.2V59H57.1z"/>
		<path class="st2" d="M75.9,59.3c-2.2,0-4.1-0.5-5.8-1.5c-1.7-1-3.1-2.4-4-4.1s-1.4-3.8-1.4-6s0.5-4.1,1.4-5.9s2.3-3.1,4-4
			c1.7-1,3.7-1.4,5.8-1.4c2.2,0,4.1,0.5,5.8,1.4c1.7,1,3.1,2.3,4,4c1,1.7,1.4,3.7,1.4,5.9s-0.5,4.2-1.4,6c-1,1.7-2.3,3.1-4,4.1
			C80,58.9,78.1,59.3,75.9,59.3z M75.9,56.3c1.5,0,2.9-0.4,4.1-1.1c1.2-0.8,2.1-1.7,2.8-3c0.7-1.3,1.1-2.8,1.1-4.4
			c0-1.6-0.4-3.1-1.1-4.3c-0.7-1.3-1.6-2.2-2.8-3c-1.2-0.8-2.6-1.1-4.1-1.1s-3,0.4-4.1,1.1c-1.3,0.8-2.1,1.7-2.8,3
			c-0.7,1.3-1.1,2.7-1.1,4.3s0.4,3.1,1.1,4.4c0.7,1.3,1.6,2.3,2.8,3C73,56,74.4,56.3,75.9,56.3z"/>
		<path class="st2" d="M99.7,59.3c-2.5,0-4.5-0.8-5.9-2.3c-1.3-1.5-2-3.8-2-6.7V36.8h3.3v12.9c0,4.5,1.8,6.7,5.6,6.7
			c1.3,0,2.3-0.3,3.3-0.9c1-0.6,1.7-1.3,2.3-2.2c0.6-1,0.9-2,0.9-3.2V36.8h3.2V59h-3.2l-0.1-3.8c-0.7,1.3-1.7,2.2-3.1,3
			C102.6,59,101.1,59.3,99.7,59.3z"/>
		<path class="st2" d="M125.5,59.3c-2,0-3.8-0.5-5.5-1.4c-1.6-1-2.9-2.3-3.8-4c-1-1.7-1.3-3.8-1.3-6s0.5-4.1,1.4-5.9
			s2.2-3.1,3.8-4.1c1.5-1,3.4-1.5,5.3-1.5c1.7,0,3.3,0.4,4.7,1.2c1.4,0.8,2.5,1.7,3.4,2.9V27.6h3.2V59h-3.2l-0.1-3.8
			c-0.7,1.2-1.7,2.1-3.2,3C128.7,59,127.2,59.3,125.5,59.3z M126,56.4c1.4,0,2.8-0.4,3.9-1.1c1.2-0.8,2-1.7,2.7-3s1-2.8,1-4.4
			c0-1.6-0.3-3.2-1-4.4c-0.7-1.3-1.5-2.3-2.7-3c-1.2-0.8-2.5-1.1-3.9-1.1c-1.5,0-2.8,0.4-3.9,1.1c-1.2,0.8-2,1.7-2.7,3s-1,2.8-1,4.4
			c0,1.6,0.3,3.1,1,4.4c0.7,1.3,1.5,2.3,2.7,3.1C123.1,56,124.4,56.4,126,56.4z"/>
	</g>
	<g id="Master">
		<path class="st2" d="M119,69.9V63h1.3l2.2,3.5l2.2-3.5h1.3v6.9h-1.4v-2.4c0-0.4,0-0.8,0-1.2c0-0.4,0-0.7,0.1-1l-1.8,2.8h-0.7
			l-1.8-2.7c0,0.3,0.1,0.6,0.1,1s0,0.7,0,1.2V70L119,69.9L119,69.9z"/>
		<path class="st2" d="M129.9,70c-0.5,0-0.9-0.1-1.3-0.4s-0.7-0.6-0.9-1c-0.2-0.4-0.3-0.9-0.3-1.3c0-0.6,0.1-1,0.3-1.4
			c0.2-0.4,0.5-0.8,0.9-1s0.8-0.4,1.3-0.4c0.4,0,0.8,0.1,1.1,0.2c0.3,0.2,0.5,0.4,0.7,0.6v-0.7h1.4v5.2h-1.4v-0.7
			c-0.2,0.2-0.5,0.4-0.8,0.6C130.6,69.9,130.3,70,129.9,70z M130.3,68.9c0.4,0,0.8-0.1,1.1-0.4s0.4-0.7,0.4-1.2s-0.1-0.9-0.4-1.2
			c-0.3-0.3-0.6-0.4-1.1-0.4c-0.4,0-0.8,0.1-1,0.4c-0.3,0.3-0.4,0.7-0.4,1.2s0.1,0.9,0.4,1.2C129.5,68.7,129.9,68.9,130.3,68.9z"/>
		<path class="st2" d="M136.4,70c-0.5,0-1-0.1-1.3-0.2s-0.7-0.4-1-0.7l0.9-0.7c0.2,0.2,0.5,0.4,0.7,0.5c0.3,0.1,0.5,0.1,0.8,0.1
			c0.2,0,0.4,0,0.5-0.1s0.2-0.2,0.2-0.4c0-0.2-0.1-0.3-0.2-0.4c-0.1-0.1-0.4-0.2-0.9-0.3c-0.7-0.2-1.2-0.4-1.4-0.7
			c-0.3-0.3-0.4-0.6-0.4-1c0-0.3,0.1-0.6,0.3-0.8c0.2-0.2,0.5-0.4,0.8-0.6c0.3-0.1,0.7-0.2,1.1-0.2c0.4,0,0.9,0.1,1.3,0.2
			c0.4,0.1,0.7,0.4,1,0.6l-0.8,0.8c-0.2-0.2-0.4-0.3-0.7-0.4s-0.5-0.2-0.7-0.2c-0.5,0-0.8,0.2-0.8,0.5c0,0.2,0.1,0.3,0.2,0.4
			s0.5,0.2,1,0.3c0.7,0.2,1.2,0.4,1.3,0.7c0.2,0.2,0.4,0.6,0.4,1c0,0.3-0.1,0.6-0.3,0.9s-0.5,0.5-0.8,0.6
			C137.2,69.9,136.8,70,136.4,70z"/>
		<path class="st2" d="M140.2,69.9v-4h-1.1v-1.3h1.1v-1.3h1.4v1.3h1.2v1.3h-1.2v4H140.2z"/>
		<path class="st2" d="M146.2,70c-0.6,0-1.1-0.1-1.5-0.4c-0.5-0.2-0.8-0.6-1.1-1s-0.4-0.9-0.4-1.3c0-0.6,0.1-1.1,0.4-1.4
			c0.2-0.4,0.6-0.8,1-1s0.9-0.4,1.4-0.4s1,0.1,1.3,0.4c0.4,0.2,0.7,0.6,0.9,1s0.3,0.9,0.3,1.3v0.4h-3.9c0.1,0.4,0.3,0.7,0.6,0.9
			c0.3,0.2,0.7,0.3,1.2,0.3c0.3,0,0.5,0,0.7-0.1s0.4-0.2,0.7-0.4l0.7,0.9c-0.3,0.3-0.7,0.5-1.1,0.6C146.9,69.9,146.5,70,146.2,70z
			 M146.1,65.8c-0.8,0-1.3,0.3-1.4,1h2.6l0,0c0-0.3-0.1-0.5-0.4-0.7C146.6,65.9,146.3,65.8,146.1,65.8z"/>
		<path class="st2" d="M149.7,69.9v-5.2h1.3v0.9c0.2-0.3,0.4-0.5,0.7-0.7s0.6-0.3,1-0.3c0.1,0,0.2,0,0.4,0c0.1,0,0.2,0,0.3,0.1
			l-0.4,1.4c-0.1,0-0.2-0.1-0.3-0.1s-0.2,0-0.4,0c-0.4,0-0.6,0.1-0.9,0.3c-0.2,0.2-0.4,0.5-0.4,0.9v2.7
			C151.1,69.9,149.7,69.9,149.7,69.9z"/>
	</g>
</g>
</svg>
