<?xml version="1.0" encoding="utf-8"?>
<!-- Generator: Adobe Illustrator 25.2.0, SVG Export Plug-In . SVG Version: 6.00 Build 0)  -->
<svg version="1.1" id="Layer_1" xmlns="http://www.w3.org/2000/svg" xmlns:xlink="http://www.w3.org/1999/xlink" x="0px" y="0px"
	 viewBox="0 0 120 120" style="enable-background:new 0 0 120 120;" xml:space="preserve">
<style type="text/css">
	.st0{fill:#FABB53;}
	.st1{fill:#F7972E;}
	.st2{fill:#FAB353;}
	.st3{fill:#FACE53;}
	.st4{fill:#4C5665;}
	.st5{fill:#616C7F;}
	.st6{fill:#3F4856;}
</style>
<g id="Winner-2">
	<path class="st0" d="M37.2,63.6C12.1,63.6,1.9,38.2,0,24.2c-0.4-2.7,1.6-5.3,4.3-5.6c0.2,0,0.4,0,0.7,0h25c2.8,0,5,2.2,5,5
		s-2.2,5-5,5H11.2c2.5,9.3,9.8,26.6,28.4,25c2.8-0.2,5.2,1.9,5.4,4.6c0.2,2.7-1.8,5.1-4.5,5.3C39.3,63.6,38.2,63.6,37.2,63.6z"/>
	<path class="st1" d="M22.5,3.5h75c2.8,0,5,2.2,5,5l0,0c0,2.8-2.2,5-5,5h-75c-2.8,0-5-2.2-5-5l0,0C17.5,5.7,19.7,3.5,22.5,3.5z"/>
	<path class="st2" d="M22.5,3.5h75c2.8,0,5,2.2,5,5l0,0c0,2.8-2.2,5-5,5h-75c-2.8,0-5-2.2-5-5l0,0C17.5,5.7,19.7,3.5,22.5,3.5z"/>
	<path class="st3" d="M82.8,63.6c-1.1,0-2.1,0-3.2-0.1c-2.8-0.2-4.8-2.6-4.6-5.4c0.2-2.8,2.6-4.8,5.4-4.6h0.1
		c18.8,1.6,25.9-15.7,28.4-25H90c-2.8,0-5-2.2-5-5s2.2-5,5-5h25c2.8,0,5,2.2,5,5c0,0.2,0,0.4,0,0.7C118.1,38.2,107.9,63.6,82.8,63.6
		z"/>
	<path class="st0" d="M82.8,63.6c-1.1,0-2.1,0-3.2-0.1c-2.8-0.2-4.8-2.6-4.6-5.4c0.2-2.8,2.6-4.8,5.4-4.6h0.1
		c18.8,1.6,25.9-15.7,28.4-25H90c-2.8,0-5-2.2-5-5s2.2-5,5-5h25c2.8,0,5,2.2,5,5c0,0.2,0,0.4,0,0.7C118.1,38.2,107.9,63.6,82.8,63.6
		z"/>
	<polygon class="st0" points="70,86 50,86 52.5,73.5 67.5,73.5 	"/>
	<path class="st4" d="M85,111H35V88.5c0-1.4,1.2-2.5,2.6-2.5h44.7c1.4,0,2.6,1.1,2.6,2.5L85,111L85,111z"/>
	<rect x="45" y="93.5" class="st5" width="30" height="12.5"/>
	<path class="st3" d="M25,13.5h70l0,0V41c0,19.3-15.7,35-35,35l0,0c-19.3,0-35-15.7-35-35V13.5L25,13.5z"/>
	<path class="st6" d="M27.5,111h65c1.4,0,2.5,1.1,2.5,2.5v2.5c0,1.4-1.1,2.5-2.5,2.5h-65c-1.4,0-2.5-1.1-2.5-2.5v-2.5
		C25,112.1,26.1,111,27.5,111z"/>
</g>
</svg>
