<?xml version="1.0" encoding="utf-8"?>
<!-- Generator: Adobe Illustrator 25.2.0, SVG Export Plug-In . SVG Version: 6.00 Build 0)  -->
<svg version="1.1" id="Layer_1" xmlns="http://www.w3.org/2000/svg" xmlns:xlink="http://www.w3.org/1999/xlink" x="0px" y="0px"
	 viewBox="0 0 195 220.4" style="enable-background:new 0 0 195 220.4;" xml:space="preserve">
<style type="text/css">
	.st0{fill-rule:evenodd;clip-rule:evenodd;fill:#439934;}
	.st1{fill-rule:evenodd;clip-rule:evenodd;fill:#45A538;}
	.st2{fill-rule:evenodd;clip-rule:evenodd;fill:#46A037;}
	.st3{fill-rule:evenodd;clip-rule:evenodd;fill:#409433;}
	.st4{fill-rule:evenodd;clip-rule:evenodd;fill:#4FAA41;}
	.st5{fill-rule:evenodd;clip-rule:evenodd;fill:#4AA73C;}
	.st6{fill-rule:evenodd;clip-rule:evenodd;fill:#57AE47;}
	.st7{fill-rule:evenodd;clip-rule:evenodd;fill:#60B24F;}
	.st8{fill-rule:evenodd;clip-rule:evenodd;fill:#A9AA88;}
	.st9{fill-rule:evenodd;clip-rule:evenodd;fill:#B6B598;}
	.st10{fill-rule:evenodd;clip-rule:evenodd;fill:#C2C1A7;}
	.st11{fill-rule:evenodd;clip-rule:evenodd;fill:#CECDB7;}
	.st12{fill-rule:evenodd;clip-rule:evenodd;fill:#DBDAC7;}
	.st13{fill-rule:evenodd;clip-rule:evenodd;fill:#EBE9DC;}
</style>
<path class="st0" d="M141.4,71.1c2.9,8.5,5,17.1,5.7,26c0.9,11.1,0.5,22.1-1.9,33c-0.1,0.3-0.2,0.6-0.3,0.9c-0.7,0-1.5-0.1-2.2,0
	c-6.1,1-12.1,1.9-18.2,2.9c-6.3,1-12.6,2-18.8,3.1c-2.2,0.4-5-0.1-5.9,3c0,0.1-0.3,0.1-0.4,0.1l0.3-18.3
	c-0.1-14.7-0.2-29.5-0.3-44.2l2.9-0.5c4.8-0.8,9.6-1.6,14.3-2.3c5.7-0.9,11.4-1.8,17.1-2.7C136.3,71.8,138.8,71.5,141.4,71.1z"/>
<path class="st1" d="M93.4,193.6c-3.1-2.6-6.3-5.2-9.2-8c-15.9-15-27.5-32.6-33.3-53.9c-1.6-5.8-2.6-11.8-3-17.8
	c-0.2-4.2-0.6-8.5-0.3-12.7C48.4,90,50,79,53.3,68.2l0.2-0.3c0.3,0.4,0.8,0.8,0.9,1.3c3.2,9.4,6.4,18.9,9.6,28.3
	c10,29.7,19.9,59.4,29.9,89.1c0.2,0.6,0.7,1.1,1.1,1.6C94.9,188.2,93.4,193.6,93.4,193.6z"/>
<path class="st2" d="M141.4,71.1c-2.5,0.4-5,0.7-7.6,1.1c-5.7,0.9-11.4,1.8-17.1,2.7c-4.8,0.8-9.6,1.6-14.3,2.3l-2.9,0.5l0-1.9
	c-0.1-1.6-0.3-3.1-0.3-4.7c-0.1-10-0.2-20-0.3-29.9c-0.1-6.2-0.2-12.5-0.3-18.7c-0.1-3.9-0.2-7.8-0.3-11.6c-0.1-2.1-0.4-4.2-0.6-6.2
	c-0.1-1.2,0-2.4,0.1-3.6c1.5,2.9,2.9,5.8,4.5,8.7c2.4,4.5,6.3,7.9,9.7,11.5C125.5,35.5,135.3,52.2,141.4,71.1z"/>
<path class="st3" d="M99.4,140.2c0.1,0,0.4-0.1,0.4-0.1c0.9-3.1,3.6-2.6,5.9-3c6.3-1.1,12.5-2.1,18.8-3.1c6.1-1,12.1-2,18.2-2.9
	c0.7-0.1,1.5,0,2.2,0c-1.1,4-2,8.2-3.5,12.1c-1.6,4.5-3.6,8.8-5.7,13.1c-3.1,6.4-7,12.3-11.6,17.8c-3.5,4.2-7.4,8.1-11.3,11.9
	c-2.2,2.1-4.7,3.9-7.1,5.8l-0.6-0.4l-2.2-1.9l-2.3-5c-1.6-5.9-2.4-11.8-2.5-17.9l0-1l0.3-4.4c0.1-1.5,0.2-3,0.3-4.5
	C99,151.1,99.2,145.7,99.4,140.2L99.4,140.2z"/>
<path class="st4" d="M99.4,140.2c-0.2,5.4-0.4,10.9-0.7,16.3c-0.1,1.5-0.2,3-0.3,4.5l-1.4,0.5c-3.1-9.1-6.2-18.1-9.2-27.2
	c-5-15-10-29.9-15-44.9c-4-12.1-8.1-24.1-12.2-36.2c-0.2-0.6-0.7-1-1.1-1.5l8.9-16.4c0.3,0.5,0.7,1,0.9,1.6
	c4.1,12.2,8.3,24.4,12.3,36.6c5.3,15.9,10.6,31.8,15.9,47.7c0.2,0.6,0.6,1.2,0.9,1.9l1.2-1.4C99.6,128,99.5,134.1,99.4,140.2z"/>
<path class="st5" d="M59.5,51.8c0.4,0.5,0.9,0.9,1.1,1.5c4.1,12.1,8.2,24.1,12.2,36.2c5,15,10,29.9,15,44.9c3,9,6.1,18.1,9.2,27.2
	l1.4-0.5l-0.3,4.4l-0.3,1c-0.5,4.8-0.9,9.7-1.5,14.5c-0.3,2.4-0.9,4.8-1.4,7.2c-0.4-0.5-0.9-1-1.1-1.6C83.9,156.9,74,127.2,64,97.5
	c-3.2-9.4-6.4-18.9-9.6-28.3c-0.2-0.5-0.6-0.9-0.9-1.3C55.5,62.6,57.5,57.2,59.5,51.8z"/>
<path class="st6" d="M99.7,121.9l-1.2,1.4c-0.3-0.7-0.7-1.3-0.9-1.9C92.3,105.5,87,89.6,81.7,73.7C77.6,61.4,73.4,49.2,69.3,37
	c-0.2-0.6-0.6-1.1-0.9-1.6l11-14.5c0.3,0.5,0.8,0.9,1,1.4c3.1,9,6.1,17.9,9.1,26.9c2.8,8.4,5.6,16.8,8.5,25.2c0.2,0.6,0.9,1,1.3,1.4
	l0,1.9C99.5,92.5,99.6,107.2,99.7,121.9z"/>
<path class="st7" d="M99.4,75.8c-0.4-0.5-1.1-0.9-1.3-1.4c-2.9-8.4-5.6-16.8-8.5-25.2c-3-9-6.1-18-9.1-26.9c-0.2-0.5-0.7-0.9-1-1.4
	c3.6-3.5,7.1-7.2,10.8-10.5c3.3-3,6-6.2,6.1-10.9c0-0.2,0.1-0.4,0.3-0.9L97.6,1c0,1.2-0.1,2.4-0.1,3.6c0.1,2.1,0.5,4.2,0.6,6.2
	c0.2,3.9,0.3,7.8,0.3,11.6c0.1,6.2,0.2,12.5,0.3,18.7c0.1,10,0.2,20,0.3,29.9C99.1,72.7,99.3,74.3,99.4,75.8z"/>
<path class="st8" d="M94.9,188.3c0.5-2.4,1.1-4.8,1.4-7.2c0.6-4.8,1-9.7,1.5-14.5l0.1,0l0.1,0c0.1,6.1,1,12.1,2.5,17.9
	c-0.3,0.4-0.8,0.8-0.9,1.3c-1.3,3.7-2.6,7.5-3.9,11.2c-0.2,0.5-0.7,0.9-1,1.4l-1.4-4.7C93.4,193.7,94.9,188.3,94.9,188.3z"/>
<path class="st9" d="M94.7,198.4c0.4-0.4,0.9-0.8,1-1.4c1.3-3.7,2.6-7.5,3.9-11.2c0.2-0.5,0.6-0.9,0.9-1.3l2.3,5
	c-0.5,0.6-1.1,1.2-1.3,1.9l-4.4,12.9c-0.2,0.5-0.8,0.9-1.2,1.3C96,205.7,94.7,198.4,94.7,198.4z"/>
<path class="st10" d="M96,205.7c0.4-0.4,1-0.8,1.2-1.3l4.4-12.9c0.2-0.7,0.9-1.3,1.3-1.9l2.2,1.9c-1.1,1.1-1.7,2.3-1.3,3.8l-0.7,2.2
	c-0.3,0.4-0.7,0.7-0.9,1.1c-1.5,4.4-3,8.8-4.5,13.2c-0.2,0.6-0.7,1-1.1,1.5C96.4,210.7,96.2,208.2,96,205.7L96,205.7z"/>
<path class="st11" d="M96.6,213.3c0.4-0.5,0.9-0.9,1.1-1.5c1.5-4.4,3-8.8,4.5-13.2c0.2-0.4,0.6-0.8,0.9-1.1l-0.9,10.1
	c-0.2,0.3-0.6,0.5-0.7,0.9c-1,2.9-2,5.9-3.1,8.9c-0.2,0.6-0.6,1.1-1,1.7c-0.3-0.4-0.8-0.7-0.8-1.1C96.5,216.4,96.6,214.8,96.6,213.3
	z"/>
<path class="st12" d="M97.4,219c0.3-0.6,0.7-1.1,1-1.7c1.1-2.9,2-5.9,3.1-8.9c0.1-0.3,0.5-0.6,0.7-0.9l0,6.6l-2.2,5.7
	C100,219.9,97.4,219,97.4,219z"/>
<path class="st13" d="M100,219.9l2.2-5.7l0.5,6.7L100,219.9z"/>
<path class="st11" d="M103.8,195.3c-0.4-1.5,0.2-2.8,1.3-3.8l0.6,0.4L103.8,195.3z"/>
<path class="st4" d="M98.1,166.6l-0.1,0l-0.1,0l0.3-1C98.1,165.6,98.1,166.6,98.1,166.6z"/>
</svg>
