<?xml version="1.0" encoding="utf-8"?>
<!-- Generator: Adobe Illustrator 25.2.0, SVG Export Plug-In . SVG Version: 6.00 Build 0)  -->
<svg version="1.1" id="Layer_1" xmlns="http://www.w3.org/2000/svg" xmlns:xlink="http://www.w3.org/1999/xlink" x="0px" y="0px"
	 viewBox="0 0 100 100" style="enable-background:new 0 0 100 100;" xml:space="preserve">
<style type="text/css">
	.st0{fill:#00618A;}
	.st1{fill:#E48E00;}
</style>
<path class="st0" d="M0.1,91.2h3.3V66l5.1,21.9c0.6,2.7,1.4,3.7,3.1,3.7s2.4-1,3-3.7L19.7,66v25.2h3.4V66c0-2.5-0.5-3.7-1.6-4.2
	c-2.5-1.5-4.2-0.2-5,3.1l-5,21.7L6.6,64.8c-0.7-3.3-2.5-4.6-5-3.1C0.5,62.3,0,63.5,0,66L0.1,91.2L0.1,91.2z M25.8,70.6h3.3v13.8
	c0,0.8,0.1,2.5,1.9,2.5c0.9,0,7.1,0,7.2,0V70.4h3.3c0,0,0,22.5,0,22.7c0,5.6-3.6,6.7-5.2,6.9H25.9v-4.2h10.5
	c2.1-0.4,1.9-2.5,1.9-3.1V91h-7c-3.3,0-5.4-2.9-5.4-6C25.8,84.6,25.9,70.8,25.8,70.6z"/>
<path class="st1" d="M44.2,91.2h9.5c1.1,0,2.2-0.4,3.1-1.2c1.4-1.3,2.1-3.1,2.1-5.2v-4.6c0-1.9-0.8-3.5-2.4-4.6
	c-0.8-0.6-1.8-1-2.8-1h-4c-1.3,0-2-0.8-2.1-2.5c0-0.2,0-0.4,0-0.6v-2.9c0-0.2,0-0.4,0-0.6c0.2-1.3,0.5-1.7,1.7-1.9h0.3H59v-4.2h-9.3
	c-1.3,0-2,0.2-2.7,0.6c-2,1.2-2.8,3.1-2.8,6.3v3.7c0,2.9,1.7,5.4,4.5,6c0.3,0,0.6,0,1,0H53c0.1,0,0.3,0,0.4,0
	c1.1,0.2,1.5,0.6,1.8,1.3c0.2,0.4,0.3,0.8,0.3,1.2v3.5c0,0.4-0.2,1-0.5,1.5c-0.3,0.6-0.8,0.8-1.4,1h-0.4h-9.1
	C44.2,86.9,44.2,91.2,44.2,91.2z M79.4,83.6c0,4.4,1.7,6.7,5.1,7.3c0.3,0,0.6,0,1,0h8.6v-4.2h-8.7c-1.9,0-2.7-1-2.7-3.3V61.7h-3.3
	V83.6L79.4,83.6z M60.9,84V68.8c0-3.8,1.4-6.2,4.2-6.9c0.3,0,0.6-0.2,0.9-0.2h6.3c0.3,0,0.6,0,0.9,0.2c2.8,0.8,4.2,3.1,4.2,6.9V84
	c0,3.1-0.6,4.8-2,6l3.3,5.6h-3.8L72.3,91l-2.7,0.4H66c-0.6,0-1.2-0.2-1.9-0.6C61.9,89.6,60.9,87.5,60.9,84z M64.5,83.6
	c0,0.2,0,0.4,0.1,0.6c0.2,1.7,1.1,2.7,2.4,2.7h3l-2.8-4.8H71l2.4,4.2c0.4-0.4,0.7-1.2,0.8-2.1c0-0.2,0-0.4,0-0.6V69
	c0-0.2,0-0.4,0-0.6C74,66.7,73.1,66,71.9,66h-5c-1.5,0-2.4,1.2-2.4,3.1V83.6L64.5,83.6z"/>
<path class="st0" d="M97,54.6c-2-0.2-3.6,0.2-4.9,1.3c-0.4,0.4-1,0.4-1,1.2c0.2,0.4,0.2,1,0.4,1.5c0.3,1,0.9,2.3,1.3,3.1
	c0.5,0.8,1.1,1.5,1.6,2.3c1,1.2,2.1,1.9,3.1,3.1c0.6,0.8,1.1,1.5,1.7,2.3c0.3,0.4,0.5,1,0.8,1.2v-0.2c-0.2-0.4-0.2-1.2-0.4-1.5
	l-0.8-1.5c-0.7-1.9-1.7-3.5-2.7-4.8c-0.8-1.2-2.6-2.5-2.9-4.4l-0.1-0.2c0.6-0.2,1.2-0.6,1.7-0.8c0.9-0.4,1.6-0.4,2.5-0.8l1.2-0.6
	v-0.4c-0.5-1-0.8-2.1-1.3-2.9c-1.3-2.1-2.7-4.2-4.2-6c-0.8-1-1.8-1.5-2.7-2.5c-0.3-0.2-0.8-0.4-1-1c-0.5-1.2-0.7-2.5-1-3.8
	c-0.7-2.7-1.4-5.6-2.1-8.5c-0.4-1.9-0.7-3.8-1.3-5.6c-2.6-8.3-5.5-13.3-9.8-18.3c-0.9-1-2.1-1.5-3.2-1.9L70,4.8
	c-0.4-0.4-0.8-1.2-1.2-1.7c-1.5-1.7-5.2-5.6-6.3-0.6c-0.7,3.3,1,6.3,1.6,7.9c0.4,1.2,1,2.3,1.3,3.7c0.2,0.8,0.2,1.7,0.4,2.5
	c0.4,2.1,0.8,4.6,1.3,6.5c0.3,1,0.6,2.1,0.9,3.1c0.2,0.6,0.6,0.8,0.6,1.7c-0.4,1-0.4,2.5-0.6,3.7c-0.9,5.6-0.6,12.3,0.8,16.4
	c0.4,1.2,1.4,3.8,2.7,2.9c1.1-1,0.9-3.7,1.2-6.2c0.1-0.6,0-1,0.2-1.3v0.2l1,4c0.8,2.3,2.1,4.8,3.3,6.5c0.6,1,1.1,2.3,1.9,2.9v-0.2
	H79c-0.2-0.4-0.4-0.6-0.6-1c-0.5-0.8-1-1.9-1.3-2.9c-1.1-2.7-2-5.8-2.8-8.8c-0.4-1.5-0.8-3.1-1.1-4.6c-0.1-0.6-0.1-1.5-0.4-1.7
	c-0.4,1.2-0.9,2.1-1.2,3.3c-0.5,2.1-0.5,4.6-0.7,7.3l-0.1,0.2c-0.8-0.4-1.1-1.9-1.4-3.3c-0.8-3.5-0.9-9-0.2-13.1
	c0.2-1,1-4.2,0.6-5.2c-0.2-1-0.6-1.5-0.9-2.3c-0.3-1-0.7-2.1-0.9-3.1c-0.6-2.7-0.9-5.8-1.6-8.5c-0.3-1.3-0.8-2.7-1.3-3.8
	c-0.5-1.3-1-2.3-1.4-3.8c-0.1-0.6-0.3-1.3-0.1-1.9c0.1-0.4,0.2-0.6,0.3-0.6c0.3-0.6,1.3,0.2,1.6,0.4C66.4,4,67.2,4.8,68,5.7
	c0.4,0.6,0.8,1.3,1.2,1.7h0.5c0.8,0.4,1.7,0.2,2.5,0.6c1.3,0.8,2.6,1.9,3.6,3.3c3.3,4,6.1,9.8,7.9,16.7c0.3,1.2,0.4,2.1,0.7,3.3
	c0.5,2.3,1.2,4.8,1.7,7.1c0.5,2.3,1,4.6,1.8,6.5c0.4,1,1.9,1.5,2.6,2.1c0.5,0.4,1.3,0.8,1.7,1.3c0.9,1,1.7,2.3,2.5,3.3
	C95.7,52.5,97,53.6,97,54.6z M71.2,12.3c-0.4,0-0.7,0-1,0.2v0.2h0.1c0.2,0.8,0.6,1.3,0.8,1.9l0.6,2.3l0.1-0.2
	c0.4-0.6,0.5-1.3,0.5-2.5c-0.3-0.2-0.3-0.6-0.4-1C71.7,12.9,71.4,12.7,71.2,12.3z"/>
</svg>
