<?xml version="1.0" encoding="utf-8"?>
<!-- Generator: Adobe Illustrator 25.2.0, SVG Export Plug-In . SVG Version: 6.00 Build 0)  -->
<svg version="1.1" id="Layer_1" xmlns="http://www.w3.org/2000/svg" xmlns:xlink="http://www.w3.org/1999/xlink" x="0px" y="0px"
	 viewBox="0 0 100 100" style="enable-background:new 0 0 100 100;" xml:space="preserve">
<style type="text/css">
	.st0{fill:#EEEEEE;}
	.st1{fill:#F35654;}
	.st2{fill:#A6DAF0;}
	.st3{fill:#9DCE1D;}
</style>
<g id="XMLID_1_">
	<g>
		<rect x="70" y="40" class="st0" width="15" height="5"/>
		<rect x="50" y="35" class="st0" width="5" height="15"/>
		<rect x="15" y="35" class="st0" width="20" height="15"/>
		<path class="st1" d="M95,32.5v55c0,4.1-3.4,7.5-7.5,7.5h-20c-4.1,0-7.5-3.4-7.5-7.5v-55c0-4.1,3.4-7.5,7.5-7.5h20
			C91.6,25,95,28.4,95,32.5z M90,47.5v-10c0-1.4-1.1-2.5-2.5-2.5h-20c-1.4,0-2.5,1.1-2.5,2.5v10c0,1.4,1.1,2.5,2.5,2.5h20
			C88.9,50,90,48.9,90,47.5z M90,57.5c0-1.4-1.1-2.5-2.5-2.5h-20c-1.4,0-2.5,1.1-2.5,2.5s1.1,2.5,2.5,2.5h20
			C88.9,60,90,58.9,90,57.5z M85,67.5c0-1.4-1.1-2.5-2.5-2.5h-15c-1.4,0-2.5,1.1-2.5,2.5s1.1,2.5,2.5,2.5h15
			C83.9,70,85,68.9,85,67.5z M85,87.5c0-1.4-1.1-2.5-2.5-2.5h-10c-1.4,0-2.5,1.1-2.5,2.5s1.1,2.5,2.5,2.5h10
			C83.9,90,85,88.9,85,87.5z"/>
		<path class="st2" d="M75,12.5V20H5v-7.5C5,8.4,8.4,5,12.5,5h55C71.6,5,75,8.4,75,12.5z M35,15v-5h-5v5H35z M25,15v-5h-5v5H25z
			 M15,15v-5h-5v5H15z"/>
		<path class="st3" d="M5,25h52.5c-1.1,1.5-1.9,3.1-2.2,5h-7.8c-1.4,0-2.5,1.1-2.5,2.5v20c0,1.4,1.1,2.5,2.5,2.5H55v5h-7.5
			c-1.4,0-2.5,1.1-2.5,2.5s1.1,2.5,2.5,2.5H55v5h-7.5c-1.4,0-2.5,1.1-2.5,2.5s1.1,2.5,2.5,2.5H55v5H12.5C8.4,80,5,76.6,5,72.5V25z
			 M40,52.5v-20c0-1.4-1.1-2.5-2.5-2.5h-25c-1.4,0-2.5,1.1-2.5,2.5v20c0,1.4,1.1,2.5,2.5,2.5h25C38.9,55,40,53.9,40,52.5z M40,62.5
			c0-1.4-1.1-2.5-2.5-2.5h-25c-1.4,0-2.5,1.1-2.5,2.5s1.1,2.5,2.5,2.5h25C38.9,65,40,63.9,40,62.5z M30,72.5c0-1.4-1.1-2.5-2.5-2.5
			h-15c-1.4,0-2.5,1.1-2.5,2.5s1.1,2.5,2.5,2.5h15C28.9,75,30,73.9,30,72.5z"/>
		<path d="M100,32.5v55c0,6.9-5.6,12.5-12.5,12.5h-20C60.6,100,55,94.4,55,87.5V85H12.5C5.6,85,0,79.4,0,72.5v-60
			C0,5.6,5.6,0,12.5,0h55C74.4,0,80,5.6,80,12.5V20h7.5C94.4,20,100,25.6,100,32.5z M95,87.5v-55c0-4.1-3.4-7.5-7.5-7.5h-20
			c-4.1,0-7.5,3.4-7.5,7.5v55c0,4.1,3.4,7.5,7.5,7.5h20C91.6,95,95,91.6,95,87.5z M75,20v-7.5C75,8.4,71.6,5,67.5,5h-55
			C8.4,5,5,8.4,5,12.5V20H75z M57.5,25H5v47.5c0,4.1,3.4,7.5,7.5,7.5H55v-5h-7.5c-1.4,0-2.5-1.1-2.5-2.5s1.1-2.5,2.5-2.5H55v-5h-7.5
			c-1.4,0-2.5-1.1-2.5-2.5s1.1-2.5,2.5-2.5H55v-5h-7.5c-1.4,0-2.5-1.1-2.5-2.5v-20c0-1.4,1.1-2.5,2.5-2.5h7.8
			C55.6,28.1,56.4,26.5,57.5,25z M55,50V35h-5v15H55z"/>
		<path d="M90,37.5v10c0,1.4-1.1,2.5-2.5,2.5h-20c-1.4,0-2.5-1.1-2.5-2.5v-10c0-1.4,1.1-2.5,2.5-2.5h20C88.9,35,90,36.1,90,37.5z
			 M85,45v-5H70v5H85z"/>
		<path d="M87.5,55c1.4,0,2.5,1.1,2.5,2.5S88.9,60,87.5,60h-20c-1.4,0-2.5-1.1-2.5-2.5s1.1-2.5,2.5-2.5H87.5z"/>
		<path d="M82.5,65c1.4,0,2.5,1.1,2.5,2.5S83.9,70,82.5,70h-15c-1.4,0-2.5-1.1-2.5-2.5s1.1-2.5,2.5-2.5H82.5z"/>
		<path d="M82.5,85c1.4,0,2.5,1.1,2.5,2.5S83.9,90,82.5,90h-10c-1.4,0-2.5-1.1-2.5-2.5s1.1-2.5,2.5-2.5H82.5z"/>
		<path d="M40,32.5v20c0,1.4-1.1,2.5-2.5,2.5h-25c-1.4,0-2.5-1.1-2.5-2.5v-20c0-1.4,1.1-2.5,2.5-2.5h25C38.9,30,40,31.1,40,32.5z
			 M35,50V35H15v15H35z"/>
		<path d="M37.5,60c1.4,0,2.5,1.1,2.5,2.5S38.9,65,37.5,65h-25c-1.4,0-2.5-1.1-2.5-2.5s1.1-2.5,2.5-2.5H37.5z"/>
		<rect x="30" y="10" width="5" height="5"/>
		<path d="M27.5,70c1.4,0,2.5,1.1,2.5,2.5S28.9,75,27.5,75h-15c-1.4,0-2.5-1.1-2.5-2.5s1.1-2.5,2.5-2.5H27.5z"/>
		<rect x="20" y="10" width="5" height="5"/>
		<rect x="10" y="10" width="5" height="5"/>
	</g>
	<g>
	</g>
</g>
</svg>
