<?xml version="1.0" encoding="utf-8"?>
<!-- Generator: Adobe Illustrator 25.2.0, SVG Export Plug-In . SVG Version: 6.00 Build 0)  -->
<svg version="1.1" id="Capa_1" xmlns="http://www.w3.org/2000/svg" xmlns:xlink="http://www.w3.org/1999/xlink" x="0px" y="0px"
	 viewBox="0 0 20 20" style="enable-background:new 0 0 20 20;" xml:space="preserve">
<style type="text/css">
	.st0{fill:#353B48;}
	.st1{fill:#7F8FA6;}
	.st2{fill:#FFC312;}
</style>
<g>
	<g id="XMLID_1_">
		<g>
			<path class="st0" d="M13.7,5.5C13.7,5.5,13.7,5.5,13.7,5.5l-1.4,0V1h1.4V5.5z"/>
			<path class="st1" d="M13.3,16.5c0.3,0,0.5-0.2,0.5-0.5c0-0.3-0.2-0.5-0.5-0.5H7.1c-0.3,0-0.5,0.2-0.5,0.5c0,0.3,0.2,0.5,0.5,0.5
				H13.3z M13.8,13.4c0-0.3-0.2-0.5-0.5-0.5H7.1c-0.3,0-0.5,0.2-0.5,0.5c0,0.3,0.2,0.5,0.5,0.5h6.2C13.6,13.9,13.8,13.7,13.8,13.4z
				 M15.7,12.8V19h-11v-6.2c0-1.2,1-2.1,2.1-2.1h6.8C14.7,10.7,15.7,11.6,15.7,12.8z"/>
			<path class="st1" d="M11.3,1v4.5h-5c0,0,0,0,0,0V1H11.3z"/>
			<path class="st2" d="M1,18.7V1.3C1,1.2,1.1,1,1.3,1h3.9v4.4c0,0.6,0.5,1,1,1h7.4c0.6,0,1-0.5,1-1V1h0.8L19,4.5v14.2
				c0,0.2-0.1,0.3-0.3,0.3h-2v-6.2c0-1.7-1.4-3.1-3.1-3.1H6.8c-1.7,0-3.1,1.4-3.1,3.1V19H1.3C1.2,19,1,18.9,1,18.7z"/>
			<path d="M13.8,16c0,0.3-0.2,0.5-0.5,0.5H7.1c-0.3,0-0.5-0.2-0.5-0.5c0-0.3,0.2-0.5,0.5-0.5h6.2C13.6,15.5,13.8,15.8,13.8,16z"/>
			<path d="M13.3,12.9c0.3,0,0.5,0.2,0.5,0.5c0,0.3-0.2,0.5-0.5,0.5H7.1c-0.3,0-0.5-0.2-0.5-0.5c0-0.3,0.2-0.5,0.5-0.5H13.3z"/>
			<path d="M11.3,5.5V1h-5v4.4c0,0,0,0,0,0H11.3z M13.7,5.5V1h-1.4v4.5L13.7,5.5C13.7,5.5,13.7,5.5,13.7,5.5z M15.7,19v-6.2
				c0-1.2-1-2.1-2.1-2.1H6.8c-1.2,0-2.1,0.9-2.1,2.1V19H15.7z M4.1,20H1.3C0.6,20,0,19.4,0,18.7V1.3C0,0.6,0.6,0,1.3,0h4.4h8.4h1.5
				c0.1,0,0.3,0.1,0.3,0.1l3.8,3.8C19.9,4,20,4.2,20,4.3v14.4c0,0.7-0.6,1.3-1.3,1.3h-2.5H4.1z M5.3,1H1.3C1.1,1,1,1.2,1,1.3v17.3
				C1,18.9,1.2,19,1.3,19h2.3v-6.2c0-1.7,1.4-3.1,3.1-3.1h6.8c1.7,0,3.1,1.4,3.1,3.1V19h2c0.2,0,0.3-0.2,0.3-0.3V4.5L15.5,1h-0.8
				v4.4c0,0.6-0.5,1-1,1H6.3c-0.6,0-1-0.5-1-1V1z"/>
		</g>
		<g>
		</g>
	</g>
</g>
</svg>
