<?xml version="1.0" encoding="utf-8"?>
<!-- Generator: Adobe Illustrator 25.2.0, SVG Export Plug-In . SVG Version: 6.00 Build 0)  -->
<svg version="1.1" id="Capa_1" xmlns="http://www.w3.org/2000/svg" xmlns:xlink="http://www.w3.org/1999/xlink" x="0px" y="0px"
	 viewBox="0 0 20 20" style="enable-background:new 0 0 20 20;" xml:space="preserve">
<style type="text/css">
	.st0{fill:#9E7720;}
	.st1{fill:#FBC531;}
	.st2{fill:#353B48;}
</style>
<g>
	<g id="XMLID_1_">
		<g>
			<path class="st0" d="M11.4,13c0,0.5-0.4,0.9-1,1v1.9c0,0.2-0.2,0.4-0.5,0.4c-0.3,0-0.5-0.1-0.5-0.4V14c-0.6-0.1-0.9-0.6-0.9-1
				c0-0.6,0.7-1.1,1.4-1.1C10.8,11.9,11.4,12.4,11.4,13z"/>
			<path class="st1" d="M12.4,13c0-1-1-1.8-2.4-1.8c-1.3,0-2.4,0.8-2.4,1.8c0,0.6,0.4,1.1,1,1.5v1.5c0,0.6,0.7,1.1,1.4,1.1
				c0.8,0,1.4-0.5,1.4-1.1v-1.5C12,14.1,12.4,13.6,12.4,13z M2.9,8.9h14.3c1,0,1.9,0.7,1.9,1.5v7.4c0,0.8-0.9,1.5-1.9,1.5H2.9
				c-1,0-1.9-0.7-1.9-1.5v-7.4C1,9.6,1.8,8.9,2.9,8.9z"/>
			<path class="st2" d="M10,0.7c3.4,0,6.2,2.1,6.2,4.8v2.6h-0.9V5.6c0-2.2-2.4-4.1-5.2-4.1c-2.9,0-5.2,1.9-5.2,4.1v2.6H3.8V5.6
				C3.8,2.9,6.6,0.7,10,0.7z"/>
			<path d="M10.5,14c0.6-0.1,1-0.5,1-1c0-0.6-0.7-1.1-1.4-1.1c-0.8,0-1.4,0.5-1.4,1.1c0,0.4,0.4,0.9,0.9,1v1.9
				c0,0.2,0.2,0.4,0.5,0.4c0.3,0,0.5-0.1,0.5-0.4V14z M12.4,13c0,0.6-0.4,1.1-0.9,1.5v1.5c0,0.6-0.7,1.1-1.4,1.1
				c-0.8,0-1.4-0.5-1.4-1.1v-1.5c-0.6-0.4-1-0.9-1-1.5c0-1,1-1.8,2.4-1.8C11.3,11.1,12.4,11.9,12.4,13z"/>
			<path d="M14.3,5.6c0-1.8-1.9-3.3-4.3-3.3S5.7,3.7,5.7,5.6v2.6h8.6V5.6z M16.2,5.6c0-2.7-2.8-4.8-6.2-4.8S3.8,2.9,3.8,5.6v2.6h0.9
				V5.6c0-2.2,2.4-4.1,5.2-4.1c2.9,0,5.2,1.9,5.2,4.1v2.6h0.9V5.6z M17.1,8.9H2.9c-1,0-1.9,0.7-1.9,1.5v7.4c0,0.8,0.9,1.5,1.9,1.5
				h14.3c1,0,1.9-0.7,1.9-1.5v-7.4C19.1,9.6,18.2,8.9,17.1,8.9z M2.9,20C1.2,20,0,19,0,17.8v-7.4c0-1.3,1.2-2.2,2.8-2.2V5.6
				C2.9,2.5,6.1,0,10,0c3.9,0,7.1,2.5,7.1,5.5v2.6c1.6,0,2.9,1,2.9,2.2v7.4c0,1.2-1.2,2.2-2.9,2.2H2.9z"/>
		</g>
		<g>
		</g>
	</g>
</g>
</svg>
