<?xml version="1.0" encoding="utf-8"?>
<!-- Generator: Adobe Illustrator 25.2.0, SVG Export Plug-In . SVG Version: 6.00 Build 0)  -->
<svg version="1.1" id="Capa_1" xmlns="http://www.w3.org/2000/svg" xmlns:xlink="http://www.w3.org/1999/xlink" x="0px" y="0px"
	 viewBox="0 0 100 100" style="enable-background:new 0 0 100 100;" xml:space="preserve">
<style type="text/css">
	.st0{fill:#FFFFFF;}
</style>
<g>
	<g id="XMLID_1_">
		<g>
			<path class="st0" d="M98.1,78.9c1.2,3.4,0,8.2-2.5,10.8l-6.9,6.9c-1.3,1.2-4.9,2-5,2c-21.9,0.2-42.9-8.4-58.4-23.9
				S1.2,38,1.4,16.1c0-0.1,0.8-3.6,2-4.8l6.9-6.9c2.5-2.5,7.4-3.6,10.8-2.5l1.5,0.5c3.4,1.1,7,4.8,7.9,8.3L34,23.5
				c0.9,3.4-0.4,8.4-2.9,10.9L26.5,39C31,55.8,44.2,69,61,73.5l4.6-4.6c2.5-2.6,7.4-3.8,10.9-2.9l12.8,3.5c3.4,0.9,7.2,4.5,8.3,7.9
				L98.1,78.9z"/>
		</g>
		<g>
		</g>
	</g>
</g>
</svg>
