<?xml version="1.0" encoding="utf-8"?>
<!-- Generator: Adobe Illustrator 25.2.0, SVG Export Plug-In . SVG Version: 6.00 Build 0)  -->
<svg version="1.1" id="Слой_1" xmlns="http://www.w3.org/2000/svg" xmlns:xlink="http://www.w3.org/1999/xlink" x="0px" y="0px"
	 viewBox="0 0 100 100" style="enable-background:new 0 0 100 100;" xml:space="preserve">
<style type="text/css">
	.st0{fill:#6C63FE;}
	.st1{fill:#2A293B;}
	.st2{fill:#777777;}
</style>
<g>
	<g id="XMLID_1_">
		<g>
			<path d="M92.5,61.1v29.2c0,5.3-5.5,9.7-12.1,9.7c-6.7,0-12.1-4.3-12.1-9.7V61.1l1.1-0.5c1.3-0.5,2-1.5,2-2.6c0-1.1-0.8-2.1-2-2.6
				L68.2,55v-6.6h10.1V10.9c-0.6-0.2-1.1-0.5-1.5-0.9c-0.9-0.8-1.3-1.9-1.2-2.9L76.5,0h7.7l0.9,7.1c0.1,1-0.3,2.1-1.2,2.9
				c-0.4,0.4-0.9,0.6-1.5,0.9v37.5h10.1V55l-1.1,0.5c-1.2,0.5-2,1.5-2,2.6c0,1.1,0.8,2.1,2,2.6L92.5,61.1z M88.5,88.7V63
				c-1.9-1.1-3.1-2.9-3.1-4.9c0-1.9,1.2-3.8,3.1-4.9v-1.5H72.3v1.5c1.9,1.1,3.1,2.9,3.1,4.9c0,1.9-1.2,3.8-3.1,4.9v25.7H88.5z
				 M88.2,91.9H72.6c0.9,2.7,4,4.8,7.8,4.8C84.1,96.8,87.2,94.7,88.2,91.9z M81.1,7.4l-0.5-4.2h-0.4l-0.5,4.2c0,0.2,0.2,0.4,0.2,0.5
				s0.2,0.2,0.5,0.2c0.3,0,0.4-0.1,0.5-0.2C81,7.8,81.1,7.7,81.1,7.4z"/>
			<path class="st0" d="M88.5,63v25.7H72.3V63c1.9-1.1,3.1-3,3.1-4.9c0-2-1.2-3.8-3.1-4.9v-1.5h16.2v1.5c-1.9,1.1-3.1,3-3.1,4.9
				C85.3,60.1,86.5,61.8,88.5,63z"/>
			<path class="st1" d="M72.6,91.9h15.7c-1,2.7-4.1,4.8-7.9,4.8C76.6,96.8,73.5,94.7,72.6,91.9z"/>
			<path class="st2" d="M80.6,3.2l0.5,4.2c0,0.2-0.1,0.4-0.2,0.5c-0.1,0.1-0.2,0.2-0.5,0.2c-0.3,0-0.5-0.1-0.5-0.2s-0.2-0.2-0.2-0.5
				l0.5-4.2H80.6z"/>
			<path d="M57.1,21.8c0,0.3,0,0.7-0.2,1.1c0,0.2,0,0.2,0,0.4c-0.1,0.2-0.1,0.4-0.1,0.6c0,0.2-0.1,0.3-0.1,0.5
				c0,0.2-0.1,0.4-0.1,0.6c0,0.2-0.1,0.4-0.1,0.6c0,0.2-0.1,0.3-0.1,0.5c-0.1,0.2-0.1,0.4-0.2,0.6c0,0.2-0.1,0.3-0.1,0.5
				c-0.1,0.2-0.1,0.4-0.2,0.6c0,0.2,0,0.2-0.1,0.4c0,0.2-0.1,0.4-0.2,0.6c-0.1,0.1-0.1,0.2-0.2,0.3c-0.1,0.2-0.2,0.4-0.3,0.6
				c0,0.1-0.1,0.2-0.1,0.2c-0.1,0.2-0.3,0.5-0.4,0.7c0,0.1-0.1,0.1-0.1,0.2c-0.1,0.3-0.3,0.6-0.5,0.9c-1.4,2.2-3.2,4.1-5.5,5.8
				l-1.2,1c-3.8,3.1-6.5,11.4-6.5,16.8v35.8c0,4.9-5,8.9-11.1,8.9s-11.1-3.9-11.1-8.9V55.2c0-5.4-2.6-13.6-6.5-16.8l-1.2-1.1
				c-2.2-1.7-4-3.6-5.5-5.8c-0.2-0.3-0.3-0.6-0.5-0.9c0-0.1-0.1-0.1-0.1-0.2c-0.1-0.2-0.3-0.5-0.4-0.7c0-0.1-0.1-0.2-0.1-0.2
				C4.2,29.4,4.1,29.2,4,29c-0.1-0.1-0.1-0.2-0.2-0.3c0-0.2-0.1-0.4-0.2-0.6c0-0.2-0.1-0.2-0.1-0.4c-0.1-0.2-0.1-0.4-0.2-0.6
				c0-0.2-0.1-0.3-0.1-0.5C3.1,26.4,3,26.1,3,26s-0.1-0.3-0.1-0.5c0-0.2-0.1-0.4-0.1-0.6s-0.1-0.4-0.1-0.6c-0.1-0.2-0.1-0.3-0.1-0.5
				c-0.1-0.2-0.1-0.4-0.1-0.6c0-0.2,0-0.2,0-0.4c0-0.3,0-0.7,0-1C2.5,14,7.8,6.8,16.1,3l0.5-0.2h3.5V21c5.7,3.5,13.5,3.5,19.2,0V2.7
				H43l0.5,0.2C51.8,6.8,57.1,14,57.1,21.8z M53,23.5c0.1-0.6,0.1-1.1,0.1-1.7c0-6-3.6-11.5-9.6-15v15.8l-0.7,0.5
				c-3.7,2.5-8.3,3.8-13,3.8c-4.6,0-9.2-1.3-12.9-3.9l-0.7-0.5V6.8c-6,3.5-9.6,9-9.6,15c0,0.6,0,1.1,0.2,1.6v0.1
				c0.1,0.6,0.2,1.1,0.3,1.6c0,0.1,0,0.1,0,0.2c0.2,0.6,0.3,1.1,0.5,1.6v0.1c0.2,0.6,0.4,1.1,0.7,1.6c0,0.1,0,0.1,0,0.1
				c1.1,2.2,2.7,4.2,4.8,5.9l0.9,0.7c4.1,3.1,9.7,5.1,15.9,5.1s11.7-1.9,16-5l0.9-0.7c2-1.8,3.6-3.7,4.8-5.9c0-0.1,0-0.1,0-0.1
				c0.3-0.6,0.5-1,0.7-1.6v-0.1c0.2-0.6,0.4-1.1,0.5-1.6c0-0.1,0-0.1,0-0.2C52.8,24.7,52.9,24.1,53,23.5L53,23.5z M36.9,55.3
				c0-3.4,1.1-9,3.4-13.5c-3.2,1.1-6.8,1.7-10.5,1.7s-7.3-0.6-10.5-1.7c2.3,4.5,3.4,10,3.4,13.5v35.8c0,3.1,3.1,5.6,7.1,5.6
				c4,0,7.1-2.5,7.1-5.6V55.3z"/>
			<path class="st2" d="M53.1,21.8c0,0.6,0,1.1-0.1,1.7v0.1c-0.1,0.6-0.2,1.1-0.3,1.6c0,0.1,0,0.1,0,0.2c-0.1,0.6-0.3,1.1-0.5,1.6
				V27c-0.2,0.6-0.4,1-0.7,1.6c0,0,0,0,0,0.1c-1.1,2.2-2.7,4.1-4.8,5.9l-0.9,0.7c-4.2,3.1-9.8,5-16,5s-11.7-1.9-15.9-5.1L13,34.5
				c-2-1.7-3.6-3.7-4.8-5.9c0,0,0,0,0-0.1c-0.3-0.5-0.5-1-0.7-1.6v-0.1c-0.2-0.5-0.3-1-0.5-1.6c0-0.1,0-0.1,0-0.2
				c-0.1-0.6-0.2-1-0.3-1.6v-0.1c-0.2-0.5-0.2-1-0.2-1.6c0-6,3.6-11.5,9.6-15v15.7l0.7,0.5c3.7,2.6,8.3,3.9,12.9,3.9
				c4.7,0,9.2-1.3,13-3.8l0.7-0.5V6.8C49.4,10.2,53.1,15.8,53.1,21.8z"/>
			<path class="st2" d="M40.3,41.8c-2.3,4.5-3.4,10.1-3.4,13.5v35.8c0,3.1-3.1,5.6-7.1,5.6c-3.9,0-7.1-2.5-7.1-5.6V55.3
				c0-3.5-1.1-9-3.4-13.5c3.2,1.1,6.8,1.7,10.5,1.7S37.1,43,40.3,41.8z M32.8,91.1c0-1.3-1.4-2.4-3-2.4c-1.7,0-3,1.1-3,2.4
				c0,1.3,1.4,2.4,3,2.4C31.5,93.6,32.8,92.5,32.8,91.1z"/>
			<path d="M29.8,88.7c1.7,0,3,1.1,3,2.4c0,1.3-1.4,2.4-3,2.4c-1.7,0-3-1.1-3-2.4C26.8,89.8,28.1,88.7,29.8,88.7z"/>
		</g>
		<g>
		</g>
	</g>
</g>
</svg>
