<?xml version="1.0" encoding="utf-8"?>
<!-- Generator: Adobe Illustrator 25.2.0, SVG Export Plug-In . SVG Version: 6.00 Build 0)  -->
<svg version="1.1" id="Layer_1" xmlns="http://www.w3.org/2000/svg" xmlns:xlink="http://www.w3.org/1999/xlink" x="0px" y="0px"
	 viewBox="0 0 100 100" style="enable-background:new 0 0 100 100;" xml:space="preserve">
<style type="text/css">
	.st0{fill:#647F94;}
</style>
<g>
	<path class="st0" d="M97.3,21.8c-0.4-0.9-1.1-1.5-2-1.7c-0.9-0.2-1.9,0.1-2.5,0.8L81.7,32c-1.5,1.5-3.4,1.8-4.8,1.8
		c-2.6,0-5.2-1.2-7.3-3.3l-0.2-0.2c-3.7-3.7-4.3-9.1-1.4-12L79.1,7.3c0.7-0.7,0.9-1.6,0.8-2.5c-0.2-0.9-0.8-1.7-1.7-2
		c-3.8-1.6-7.7-2.4-11.6-2.4c-6.6,0-12.7,2.4-17,6.8l-7.4,7.4c-7.3,7.3-8.8,18.8-4,29.4c-0.3,0.2-0.6,0.5-0.8,0.8L2.7,79.2
		c-1.9,1.9-3,4.5-3,7.4c0,3.4,1.5,6.8,4,9.4L4,96.2c2.6,2.6,6,4.1,9.4,4.1c2.9,0,5.5-1.1,7.4-3l34.6-34.6c0.3-0.3,0.5-0.6,0.7-0.8
		c4,1.8,8.2,2.7,12.4,2.7c6.6,0,12.7-2.4,17-6.8l7.4-7.4C100,43.4,101.7,32.4,97.3,21.8z"/>
</g>
</svg>
