<?xml version="1.0" encoding="utf-8"?>
<!-- Generator: Adobe Illustrator 25.2.0, SVG Export Plug-In . SVG Version: 6.00 Build 0)  -->
<svg version="1.1" id="Layer_1" xmlns="http://www.w3.org/2000/svg" xmlns:xlink="http://www.w3.org/1999/xlink" x="0px" y="0px"
	 viewBox="0 0 120 120" style="enable-background:new 0 0 120 120;" xml:space="preserve">
<style type="text/css">
	.st0{fill:#FFB401;}
	.st1{fill:#548AFF;}
	.st2{fill:#D1E4FF;}
	.st3{fill:#A36522;}
	.st4{fill:#FFCEB6;}
	.st5{fill:#B1712C;}
	.st6{fill:#4976F2;}
	.st7{fill:#62798C;}
	.st8{fill:#FFA100;}
	.st9{fill:#FFC431;}
	.st10{fill:#91C0FF;}
</style>
<g id="filled_outline">
	<path class="st0" d="M78.1,29.5h-24v-12h24V29.5z"/>
	<path class="st1" d="M80.1,39.5l-18,22l-5.3-5.3l5.3-10.7L53,38.7L45,49l-6.9-3.5l-4-6h-12l-4,6L6.4,51.3C3.7,52.7,2,55.4,2,58.5
		c0,2.1,0.3,4.2,0.8,6.2l0,0L8,97.5h38l4.2-21.2l5.8,1.2h12l20.5-31.6L80.1,39.5z"/>
	<path class="st2" d="M38.1,45.5l-10,20l-10-20l4-6h12L38.1,45.5z"/>
	<path class="st3" d="M14,13.4v-6c0-3.3,2.7-6,6-6h12v12H14z"/>
	<path class="st4" d="M42.1,28c0,7.7-6.3,14-14,14l0,0c-7.7,0-14-6.3-14-14V13.4h28V28z"/>
	<path class="st5" d="M22.1,13.4v-4c0-4.4,3.6-8,8-8h6c3.3,0,6,2.7,6,6v6H22.1z"/>
	<path class="st6" d="M88.6,45.9L68.1,77.5h-12l-5.8-1.2l-4.2,21.2H8L2.8,64.6c1.3,4.7,3.9,8.9,7.6,12.1l5.6,4.8h28l12.7-25.3
		l5.3,5.3l18-22L88.6,45.9z"/>
	<path class="st7" d="M8,97.5h38v20H8C8,117.6,8,97.5,8,97.5z"/>
	<path class="st4" d="M52.9,38.7l9.1,6.8l10-8l2-8l-6-4l-8,4L52.9,38.7z"/>
	<path class="st8" d="M42.1,19.4h12l0,0v8l0,0h-12c-2.2,0-4-1.8-4-4S39.8,19.4,42.1,19.4z"/>
	<path class="st9" d="M78.1,15.4h32v16h-32V15.4z"/>
	<path class="st10" d="M110.2,15.4L110.2,15.4c4.4,0,8,3.6,8,8l0,0c0,4.4-3.6,8-8,8l0,0c-4.4,0-8-3.6-8-8l0,0
		C102.2,19,105.7,15.4,110.2,15.4z"/>
	<path class="st4" d="M80.1,39.5v-8h14v6l-5.5,8.4L80.1,39.5z"/>
	<path d="M26.1,29.5v4h2c3.3,0,6-2.7,6-6v-2h-4v2c0,1.1-0.9,2-2,2H26.1z"/>
	<circle cx="26.1" cy="21.5" r="2"/>
	<path d="M110.2,13.4h-32c-1.1,0-2,0.9-2,2l0,0h-22c-1.1,0-2,0.9-2,2l0,0h-8v-10c0-4.4-3.6-8-8-8H20c-4.4,0-8,3.6-8,8V28
		c0,5.1,2.5,10,6.6,13l-2,3L5.5,49.5C2.1,51.2,0,54.7,0,58.4c0,0.5,0,0.9,0,1.4l0,0v0.1c0.1,1.7,0.4,3.4,0.8,5.1l5.1,32.6v19.9
		c0,1.1,0.9,2,2,2l0,0h38c1.1,0,2-0.9,2-2l0,0V97.7l3.8-19l3.8,0.8c0.1,0,0.3,0,0.4,0h12c0.7,0,1.3-0.3,1.7-0.9l26-40.1
		c0.2-0.3,0.3-0.7,0.3-1.1v-4h14c5.5,0,10-4.5,10-10S115.7,13.4,110.2,13.4z M33.9,42.9l1.8,2.8L30,57.1V43.9
		C31.4,43.7,32.7,43.4,33.9,42.9z M39,48l3.1,1.2L31.7,62.7L39,48z M44.7,46l-5.3-2.1L37.5,41c3.7-2.7,6.1-6.9,6.6-11.5h8.1
		c0,1.1,0.9,2,2,2l0,0H56L44.7,46z M61.4,31.1l6.6-3.3l3.9,2.6l-1.5,6L62,43l-6.3-4.7L61.4,31.1z M63.6,46.8l9.7-7.7
		c0.3-0.3,0.6-0.7,0.7-1.1l1.6-6.5H76c0,1.1,0.9,2,2,2l0,0v5.3L61.9,58.5l-2.8-2.8L63.6,46.8z M76.1,19.4v8h-1.4l-5.5-3.7
		c-0.6-0.4-1.4-0.4-2-0.1l-7.6,3.8h-3.5v-8H76.1z M52.1,25.5h-10c-1.1,0-2-0.9-2-2s0.9-2,2-2h10V25.5z M36.1,3.4c2.2,0,4,1.8,4,4v4
		h-16v-2c0-3.3,2.7-6,6-6H36.1z M20,3.4h2c-1.3,1.7-2,3.8-2,6v2h-4v-4C16,5.2,17.7,3.4,20,3.4z M16,28V15.4h24v2.3
		c-3.1,1.1-4.8,4.5-3.7,7.7c0.6,1.7,1.9,3,3.6,3.6c-0.6,6.6-6.5,11.4-13.1,10.8C20.8,39.4,16,34.2,16,28z M26.1,43.9v13.2l-5.7-11.4
		l1.8-2.8C23.4,43.4,24.7,43.7,26.1,43.9z M7.3,53.1l9.8-4.9l7.6,15.3h-4.8v4h12c0.6,0,1.2-0.3,1.6-0.8l19.7-25.3l6.2,4.7L42.8,79.5
		h-26l-5-4.3c-3.4-2.9-5.8-6.7-7-11L4,59.5c0-0.4,0-0.7,0-1.1C3.9,56.2,5.2,54.1,7.3,53.1z M9,78.2l5.6,4.8c0.4,0.3,0.8,0.5,1.3,0.5
		h28c0.8,0,1.5-0.4,1.8-1.1l2-4l-3.4,17.1H9.7L6.5,75.8C7.3,76.6,8.2,77.5,9,78.2L9,78.2z M10,115.6v-16h34v16H10z M67,75.5H56.3
		L50,74.2l7.3-14.7l3.4,3.4c0.4,0.4,0.9,0.6,1.4,0.6h0.1c0.6,0,1.1-0.3,1.4-0.7l16.8-20.5l5.5,4.1L67,75.5z M92.1,36.9l-4,6.1
		l-6-4.5v-5h10V36.9z M80.1,29.5v-12h22c-2.7,3.6-2.7,8.4,0,12H80.1z M110.2,29.5c-3.3,0-6-2.7-6-6s2.7-6,6-6c3.3,0,6,2.7,6,6
		S113.5,29.5,110.2,29.5z"/>
</g>
</svg>
