<?xml version="1.0" encoding="utf-8"?>
<!-- Generator: Adobe Illustrator 25.2.0, SVG Export Plug-In . SVG Version: 6.00 Build 0)  -->
<svg version="1.1" id="Capa_1" xmlns="http://www.w3.org/2000/svg" xmlns:xlink="http://www.w3.org/1999/xlink" x="0px" y="0px"
	 viewBox="0 0 105.5 96.8" style="enable-background:new 0 0 105.5 96.8;" xml:space="preserve">
<style type="text/css">
	.st0{fill:#2A293B;}
</style>
<g>
	<g id="Wi-Fi">
		<g>
			<path class="st0" d="M52.8,70.3c-5,0-9.1,5-9.1,11.2s4.1,11.2,9.1,11.2s9.1-5,9.1-11.2C61.9,75.3,57.8,70.3,52.8,70.3z
				 M101.7,30.9C89.5,13,71.7,2.8,52.8,2.8S16.1,13,3.8,30.9c-1.6,2.4-1.4,5.9,0.6,7.9c0.9,0.9,1.9,1.3,2.9,1.3c1.3,0,2.6-0.7,3.5-2
				C21.3,22.8,36.6,14,52.8,14s31.5,8.8,41.9,24.1c0.9,1.3,2.2,2,3.5,2c1,0,2.1-0.4,2.9-1.3C103.1,36.9,103.3,33.3,101.7,30.9z
				 M52.8,25.3c-13.5,0-26.2,7.3-34.9,20.1c-1.6,2.4-1.4,5.9,0.6,7.9c0.9,0.9,1.9,1.3,2.9,1.3c1.3,0,2.6-0.7,3.5-2
				c7-10.2,17.2-16.1,28-16.1s21,5.9,28,16.1c0.9,1.3,2.2,2,3.5,2c1,0,2.1-0.4,2.9-1.3c1.9-2,2.2-5.5,0.6-7.9
				C79,32.6,66.3,25.3,52.8,25.3z M52.8,47.8c-8.1,0-15.7,4.4-21,12.1c-1.6,2.4-1.4,5.9,0.6,7.9c0.9,0.9,1.9,1.3,2.9,1.3
				c1.3,0,2.6-0.7,3.5-2c3.5-5.1,8.6-8.1,14-8.1s10.5,2.9,14,8.1c0.9,1.3,2.2,2,3.5,2c1,0,2.1-0.4,2.9-1.3c1.9-2,2.2-5.5,0.6-7.9
				C68.5,52.2,60.9,47.8,52.8,47.8z"/>
		</g>
	</g>
</g>
</svg>
