<?xml version="1.0" encoding="utf-8"?>
<!-- Generator: Adobe Illustrator 25.2.0, SVG Export Plug-In . SVG Version: 6.00 Build 0)  -->
<svg version="1.1" id="Capa_1" xmlns="http://www.w3.org/2000/svg" xmlns:xlink="http://www.w3.org/1999/xlink" x="0px" y="0px"
	 viewBox="0 0 100 100" style="enable-background:new 0 0 100 100;" xml:space="preserve">
<g>
	<path d="M59.8,87.5c0,6.9-4.4,12.5-9.8,12.5c-5.4,0-9.8-5.6-9.8-12.5c0-6.9,4.4-12.5,9.8-12.5C55.4,75,59.8,80.6,59.8,87.5z
		 M27.5,63.4l7.5,8c7.5-11.4,22.6-11.4,30,0l7.5-8C66.9,54.9,58.7,50,50,50C41.3,50,33.1,54.9,27.5,63.4z M13.8,45.5l7.2,8.4
		c7.4-10.4,18-16.4,29-16.4c11,0,21.6,6,29,16.4l7.2-8.4C77,32.5,63.8,25,50,25C36.2,25,23,32.5,13.8,45.5z M0,27.8l7.1,8.5
		C18.2,21.2,33.8,12.5,50,12.5c16.4,0,31.6,8.4,42.9,23.8l7.1-8.5C87.1,10.1,68.9,0,50,0C31.1,0,12.9,10.1,0,27.8z"/>
</g>
</svg>
